<svg xmlns="http://www.w3.org/2000/svg" width="900" height="600" viewBox="0 0 900 600"><path fill="#FFF" stroke="#AAA" stroke-width="10" stroke-miterlimit="10" d="M0 0h900v600H0z"/><path fill="#79ACDB" d="M0 0h900v191H0zM0 409h900v191H0z"/><path fill="#F5B41A" d="M450 254.4l8.9-45.2v46l17.6-42.6-9 45.2 25.5-38.3-17.6 42.6 32.5-32.7-25.6 38.3 38.3-25.6-32.6 32.5 42.5-17.6-38.3 25.5 45.2-9-42.6 17.6h46l-45.2 8.9 45.2 8.9h-46l42.6 17.6-45.2-9 38.3 25.5-42.5-17.6 32.6 32.5-38.3-25.6 25.6 38.3-32.5-32.6 17.6 42.5-25.5-38.3 9 45.1-17.6-42.5v46l-8.9-45.2-8.9 45.2v-46l-17.6 42.5 9-45.1-25.5 38.3 17.6-42.5-32.5 32.6 25.6-38.3-38.3 25.6 32.6-32.5-42.5 17.6 38.3-25.5-45.2 9 42.6-17.6h-46l45.2-8.9-45.2-8.9h46l-42.6-17.6 45.2 9-38.3-25.5 42.5 17.6-32.6-32.5 38.3 25.6-25.6-38.3 32.5 32.7-17.6-42.6 25.5 38.3-9-45.2 17.6 42.6v-46z"/></svg>