<svg xmlns="http://www.w3.org/2000/svg" width="900" height="600" viewBox="0 0 900 600"><path fill="#009B3A" d="M0 0h900v600H0z"/><path fill="#FEDF00" d="M449.9 61.5L76.3 300l373.6 238.5L823.4 300z"/><circle fill="#002776" cx="449.9" cy="300" r="157.5"/><path fill="#FFF" d="M305.2 237.8c-3.4 7.9-6 16.1-8.1 24.6 122.2-24.6 234.5 23.2 304.2 80.6 2.3-8 4-16.3 5-24.8-72-55.5-181.4-100.1-301.1-80.4z"/><path fill="#FFF" d="M319.4 263.3l1.6 4.8h5l-4.1 2.9 1.6 4.8-4.1-3-4 3 1.5-4.8-4-2.9h5zM499.8 242l1.5 4.8h5l-4 2.9 1.5 4.8-4-2.9-4.1 2.9 1.6-4.8-4.1-2.9h5zM333.7 330.2l1.5 4.7h5l-4 3 1.5 4.7-4-2.9-4.1 2.9 1.6-4.7-4.1-3h5zM385.8 376.9l1.6 4.7h5l-4 3 1.5 4.8-4.1-3-4 3 1.5-4.8-4-3h5zM449.9 363.4l1.5 4.8h5l-4 3 1.5 4.7-4-2.9-4.1 2.9 1.5-4.7-4-3h5zM562.2 348.4l1.5 4.8h5.1l-4.1 3 1.5 4.7-4-2.9-4.1 2.9 1.6-4.7-4.1-3h5zM559 375.9l1.4 4.3h4.4l-3.6 2.6 1.4 4.2-3.6-2.6-3.6 2.6 1.4-4.2-3.7-2.6h4.5zM568.8 363.4l1.3 4.3h4.5l-3.6 2.6 1.4 4.3-3.6-2.6-3.7 2.6 1.4-4.3-3.6-2.6h4.5zM530.6 396.7l1.4 4.3h4.5l-3.6 2.6 1.4 4.3-3.7-2.7-3.6 2.7 1.4-4.3-3.6-2.6h4.4zM498.1 400.6l1.4 4.3h4.5l-3.6 2.6 1.4 4.3-3.7-2.7-3.6 2.7 1.4-4.3-3.6-2.6h4.5zM468.8 332.5l1.3 4.3h4.5l-3.6 2.6 1.4 4.2-3.6-2.6-3.7 2.6 1.4-4.2-3.6-2.6h4.5zM449.9 318.1l1.3 4.3h4.5l-3.6 2.6 1.4 4.3-3.6-2.7-3.7 2.7 1.4-4.3-3.6-2.6h4.5zM389.2 299.1l1.4 4.2h4.5l-3.6 2.6 1.4 4.3-3.7-2.6-3.6 2.6 1.4-4.3-3.6-2.6h4.4zM366.9 347l1.4 4.3h4.4l-3.6 2.6 1.4 4.3-3.6-2.7-3.6 2.7 1.3-4.3-3.6-2.6h4.5zM313.6 345.3l1.4 4.3h4.4l-3.6 2.6 1.4 4.2-3.6-2.6-3.6 2.6 1.3-4.2-3.6-2.6h4.5zM361.8 364.8l1.1 3.1h3.2l-2.6 2 1 3.1-2.7-1.9-2.6 1.9 1-3.1-2.7-2h3.3zM434 334l1 3.1h3.3l-2.6 1.9 1 3.2-2.7-2-2.7 2 1.1-3.2-2.7-1.9h3.3zM493.9 286.3l1 3.1h3.3l-2.7 2 1 3.1-2.6-1.9-2.7 1.9 1-3.1-2.7-2h3.3zM485.6 383.9l1.1 3.2h3.3l-2.7 1.9 1 3.1-2.7-1.9-2.6 1.9 1-3.1-2.7-1.9h3.3zM511.7 388l1.1 3.2h3.3l-2.7 1.9 1 3.1-2.7-1.9-2.6 1.9 1-3.1-2.7-1.9h3.3zM529.7 383l1 3.1h3.3l-2.6 1.9 1 3.2-2.7-2-2.7 2 1.1-3.2-2.7-1.9h3.3zM546.3 385.8l1 3.1h3.3l-2.7 1.9 1 3.2-2.6-2-2.7 2 1-3.2-2.6-1.9h3.2zM584.5 351.9l1.1 3.1h3.3l-2.7 1.9 1 3.2-2.7-2-2.6 2 1-3.2-2.7-1.9h3.3zM530.6 414.8l1 3.2h3.3l-2.6 1.9 1 3.1-2.7-1.9-2.6 1.9 1-3.1-2.7-1.9h3.3zM442.2 346.3l.7 2.1h2.2l-1.8 1.4.7 2.1-1.8-1.4-1.8 1.4.7-2.1-1.8-1.4h2.2zM449.9 422l.4 1.4h1.5l-1.2.9.5 1.4-1.2-.9-1.3.9.5-1.4-1.2-.9h1.5zM349 324.6l.7 2.1h2.3l-1.8 1.3.6 2.2-1.8-1.4-1.7 1.4.6-2.2-1.8-1.3h2.3z"/><g fill="#009B3A"><path d="M309.6 248.3c-.3-2.5.1-4.5 1.3-6.1 1.2-1.6 2.8-2.5 4.9-2.8 1.4-.2 2.7 0 3.9.5s2.2 1.3 2.9 2.5c.7 1.1 1.2 2.4 1.4 3.9s.1 2.9-.4 4.2-1.2 2.3-2.3 3.1c-1.1.8-2.2 1.2-3.5 1.4-1.4.2-2.7 0-3.9-.5-1.2-.5-2.2-1.4-2.9-2.5-.8-1.1-1.3-2.4-1.4-3.7zm2-.2c.2 1.8.9 3.2 2 4.1 1.1.9 2.4 1.3 3.9 1.1s2.7-.9 3.5-2.1 1.1-2.7.9-4.7c-.2-1.2-.5-2.3-1-3.1-.5-.9-1.2-1.5-2.1-1.9-.9-.4-1.8-.5-2.8-.4-1.4.2-2.6.8-3.5 1.9s-1.2 2.8-.9 5.1zM330.4 253.3l-1.1-15.2 6.7-.5c1.4-.1 2.4 0 3.1.2.7.2 1.3.7 1.8 1.3.5.7.7 1.4.8 2.2.1 1.1-.2 2-.8 2.8-.6.8-1.7 1.3-3.1 1.6.5.2 1 .4 1.3.7.6.5 1.2 1.1 1.8 1.9l2.9 3.9-2.5.2-2.2-3c-.7-.9-1.2-1.5-1.6-2s-.8-.8-1.1-.9c-.3-.1-.6-.3-.9-.3h-1.1l-2.3.2.5 6.7-2.2.2zm1.4-8.6l4.3-.3c.9-.1 1.6-.2 2.1-.4s.9-.6 1.1-1 .3-.9.3-1.4c0-.7-.4-1.3-.9-1.7-.6-.4-1.4-.6-2.5-.5l-4.8.4.4 4.9zM348.8 252.1l-.3-15.2 5.2-.1c1.2 0 2.1 0 2.7.2.9.2 1.6.5 2.3 1 .8.7 1.4 1.5 1.9 2.6.4 1 .6 2.3.7 3.6 0 1.2-.1 2.2-.3 3.1-.2.9-.6 1.6-1 2.2s-.9 1.1-1.4 1.4c-.5.4-1.1.6-1.8.8s-1.5.3-2.4.3l-5.6.1zm2-1.8l3.3-.1c1 0 1.8-.1 2.4-.3.6-.2 1-.5 1.3-.8.5-.5.8-1.1 1.1-2 .3-.8.4-1.8.3-2.9 0-1.6-.3-2.8-.9-3.6-.5-.8-1.2-1.4-1.9-1.7-.5-.2-1.4-.3-2.6-.3l-3.2.1.2 11.6zM367.1 251.9l.5-15.2 11 .3-.1 1.8-9-.3-.1 4.7 8.4.3-.1 1.8-8.4-.3-.1 5.2 9.3.3-.1 1.8-11.3-.4zM384.3 252.5l1.3-15.2 3 .3 2.7 11c.2 1 .4 1.8.5 2.3.2-.5.6-1.3 1-2.4l4.5-10.2 2.7.2-1.3 15.2-1.9-.2 1.1-12.7-5.5 12.3-1.8-.2-3.3-13.3-1.1 12.9h-1.9zM420.6 256.7l2.4-13.4 9.7 1.7-.3 1.6-7.9-1.4-.7 4.1 7.4 1.3-.3 1.6-7.4-1.3-.8 4.6 8.2 1.5-.3 1.6-10-1.9zM449.2 262.6l3.9-14.7 5.5 1.5c1 .2 1.7.5 2.2.7.7.3 1.2.7 1.6 1.2.4.5.7 1 .8 1.7.1.7.1 1.4-.1 2.1-.3 1.3-1 2.2-2 2.9s-2.6.7-4.7.2l-3.8-1-1.6 6-1.8-.6zm4-7.2l3.8 1c1.3.3 2.2.3 2.9 0 .7-.3 1.1-.9 1.3-1.8.2-.6.1-1.2 0-1.7-.2-.5-.5-.9-1-1.2-.3-.2-.9-.4-1.8-.6l-3.8-1-1.4 5.3zM465.7 267.1l4.5-14.5 6.4 2c1.3.4 2.2.8 2.8 1.3.6.5 1 1.1 1.2 1.9.2.8.2 1.6-.1 2.4-.3 1-.9 1.8-1.8 2.3-.9.5-2.1.6-3.5.4.4.4.7.8.9 1.1.4.7.7 1.5 1 2.4l1.3 4.7-2.4-.8-1-3.6c-.3-1-.5-1.9-.8-2.4-.2-.6-.5-1-.7-1.3s-.5-.5-.7-.7c-.2-.1-.6-.2-1-.4l-2.2-.7-2 6.4-1.9-.5zm4.4-7.5l4.1 1.3c.9.3 1.6.4 2.1.4.6 0 1-.2 1.4-.5.4-.3.7-.7.8-1.2.2-.7.1-1.3-.2-1.9-.4-.6-1.1-1.1-2.2-1.4l-4.6-1.4-1.4 4.7zM485 265.5c.9-2.4 2.2-4 3.9-4.9 1.8-.9 3.6-1 5.7-.2 1.3.5 2.4 1.2 3.2 2.3.8 1 1.3 2.2 1.5 3.5.1 1.3 0 2.7-.6 4.1-.5 1.5-1.3 2.6-2.3 3.6-1 .9-2.1 1.5-3.4 1.7-1.3.2-2.6.1-3.8-.4-1.4-.5-2.4-1.3-3.2-2.3s-1.3-2.2-1.4-3.5c-.2-1.4-.1-2.7.4-3.9zm1.9.7c-.6 1.7-.7 3.2-.1 4.6.6 1.3 1.5 2.2 2.9 2.8 1.4.5 2.8.4 4.1-.2 1.3-.7 2.3-1.9 2.9-3.8.4-1.2.6-2.2.5-3.3-.1-1-.4-1.9-1-2.6-.6-.8-1.3-1.3-2.3-1.6-1.3-.5-2.7-.4-4 .1-1.1.5-2.2 1.9-3 4zM510.4 276.8l.7-1.6 5.9 2.5-2.2 5.2c-1.2.3-2.4.5-3.5.4-1.1 0-2.2-.3-3.2-.7-1.4-.6-2.5-1.4-3.4-2.5-.9-1.1-1.4-2.3-1.5-3.6-.1-1.4.1-2.7.7-4.1.6-1.4 1.4-2.5 2.5-3.5 1.1-.9 2.3-1.5 3.6-1.6 1.3-.1 2.7.1 4.1.7 1 .4 1.9 1 2.5 1.7.7.7 1.1 1.4 1.4 2.2.2.8.2 1.7.1 2.7l-1.9-.2c.1-.8.1-1.5-.1-2s-.5-1.1-.9-1.5c-.5-.5-1.1-.9-1.8-1.2-.9-.4-1.6-.5-2.4-.5-.7 0-1.4.1-1.9.4-.6.3-1.1.6-1.5 1-.7.7-1.3 1.6-1.7 2.6-.5 1.3-.8 2.4-.7 3.4.1 1 .4 1.9 1.1 2.7.6.8 1.4 1.3 2.3 1.7.8.3 1.7.5 2.5.5.9 0 1.6-.1 2.2-.3l1.1-2.6-4-1.8zM519.3 287.3l6.6-13.7 6.1 2.9c1.2.6 2.1 1.2 2.6 1.7.5.6.8 1.2.9 2s-.1 1.6-.4 2.3c-.5 1-1.2 1.6-2.1 2s-2.1.3-3.5-.1c.4.5.6.9.8 1.2.3.7.5 1.6.6 2.5l.6 4.9-2.3-1.1-.5-3.7c-.1-1.1-.3-1.9-.4-2.5-.1-.6-.3-1-.5-1.4-.2-.3-.4-.6-.7-.8-.2-.1-.5-.3-1-.6l-2.1-1-2.9 6.1-1.8-.7zm5.5-6.8l3.9 1.9c.8.4 1.5.6 2.1.7.5.1 1-.1 1.5-.3.4-.3.7-.6 1-1.1.3-.6.3-1.3.1-1.9-.3-.6-.9-1.2-1.9-1.7l-4.3-2.1-2.4 4.5zM535.8 295.4L543 282l9.7 5.2-.8 1.6-7.9-4.2-2.2 4.1 7.4 4-.8 1.6-7.4-4-2.4 4.6 8.2 4.4-.8 1.6-10.2-5.5zM552.8 299l1.7.8c-.3.7-.4 1.3-.4 1.9 0 .6.3 1.2.7 1.8.4.6 1 1.1 1.8 1.6.7.4 1.3.6 1.9.7.6.1 1.2.1 1.6-.1.5-.2.8-.5 1-.9.2-.4.3-.8.3-1.3-.1-.5-.3-.9-.7-1.5-.3-.3-.9-1-2-2-1-1-1.7-1.8-2-2.3-.4-.7-.7-1.4-.7-2 0-.7.2-1.3.5-1.9.4-.7.9-1.2 1.7-1.5.7-.4 1.5-.5 2.4-.3.9.1 1.8.4 2.7 1 1 .6 1.7 1.2 2.3 2 .6.8.9 1.5.9 2.4 0 .9-.1 1.7-.6 2.5l-1.7-.9c.4-.9.5-1.7.2-2.4s-.9-1.4-1.9-2c-1-.6-1.9-.9-2.6-.8-.7.1-1.2.4-1.5 1-.3.5-.3 1-.2 1.5.2.5.8 1.3 2.1 2.5 1.2 1.2 2 2 2.4 2.6.6.8.9 1.6.9 2.3 0 .8-.1 1.5-.6 2.2-.4.7-1 1.2-1.8 1.6s-1.6.5-2.6.4c-.9-.1-1.9-.4-2.8-1-1.2-.7-2.1-1.5-2.7-2.3-.6-.8-.9-1.7-1-2.7 0-1.1.2-2 .7-2.9zM567.8 308l1.7.9c-.3.7-.5 1.3-.5 1.9 0 .6.2 1.2.6 1.8.4.6 1 1.2 1.7 1.7.6.4 1.3.7 1.9.8.6.1 1.2.1 1.6-.1.5-.2.8-.5 1.1-.9.3-.4.4-.8.3-1.3 0-.5-.3-.9-.7-1.5-.3-.4-.9-1.1-1.9-2.1-1-1.1-1.6-1.8-1.9-2.4-.4-.7-.6-1.4-.6-2.1s.2-1.3.6-1.9c.4-.6 1-1.1 1.7-1.4.7-.3 1.5-.4 2.4-.2.9.2 1.8.5 2.6 1.1.9.6 1.7 1.3 2.2 2.1.5.8.8 1.6.8 2.4s-.2 1.6-.7 2.4l-1.7-.9c.4-.9.5-1.7.3-2.4s-.8-1.4-1.8-2.1-1.9-1-2.6-.9c-.7.1-1.2.4-1.6.9-.3.5-.4.9-.2 1.5.1.5.8 1.4 2 2.6 1.2 1.2 1.9 2.1 2.3 2.7.5.8.8 1.6.8 2.4s-.2 1.5-.6 2.2c-.4.7-1.1 1.2-1.8 1.5-.8.3-1.6.4-2.6.3s-1.9-.5-2.8-1.1c-1.1-.8-2-1.6-2.6-2.4-.6-.9-.8-1.8-.9-2.7.2-1 .4-1.9.9-2.8zM583.9 315.5c1.5-2.1 3.2-3.3 5.1-3.6 1.9-.4 3.8.1 5.5 1.3 1.1.8 2 1.8 2.5 3s.7 2.5.5 3.8-.8 2.6-1.6 3.8c-.9 1.3-1.9 2.2-3.2 2.8-1.2.6-2.5.9-3.8.7-1.3-.2-2.5-.6-3.5-1.4-1.2-.8-2-1.9-2.5-3.1s-.7-2.5-.4-3.8c.1-1.2.6-2.4 1.4-3.5zm1.6 1.2c-1.1 1.5-1.5 3-1.3 4.4.2 1.4.9 2.6 2.1 3.5 1.2.9 2.6 1.2 4 .9 1.4-.3 2.7-1.2 3.8-2.8.7-1 1.2-2 1.4-3s.1-1.9-.2-2.8c-.4-.9-1-1.6-1.8-2.2-1.2-.8-2.4-1.2-3.9-.9-1.4 0-2.7 1.1-4.1 2.9z"/></g></svg>