<svg xmlns="http://www.w3.org/2000/svg" width="900" height="600" viewBox="0 0 900 600"><path fill="#FFF" stroke="#A9A9AA" stroke-width="10" stroke-miterlimit="10" d="M0 0h900v600H0z"/><path fill="#171796" d="M0 400h900v200H0z"/><path fill="#F00" d="M0 0h900v200H0zM450 455.2c64.2 0 116.6-52.5 116.6-116.6V200H333.4v138.6c0 64.1 52.5 116.6 116.6 116.6z"/><path fill="#FFF" d="M450 453.3c62.9 0 114.4-51.5 114.4-114.4V202.2H335.6v136.7c0 62.9 51.5 114.4 114.4 114.4z"/><path fill="#F00" d="M383.9 206.5h-44v48.4h44v-48.4zM383.9 303.2h44v-48.4h-44v48.4zM339.9 338.6c0 4.4.3 8.7.8 13H384v-48.4h-44v35.4zM472 303.2h-44v48.4h44v-48.4zM472 400h44v-48.4h-44V400zM516 426.5c9.8-7.4 18.3-16.3 25.1-26.5H516v26.5zM383.9 400h44v-48.4h-44V400zM358.7 400c6.9 10.2 15.4 19.1 25.2 26.5V400h-25.2zM457.6 448.4c4.9-.3 9.7-1 14.3-2V400h-44v46.4c4.7 1 9.4 1.6 14.3 1.9 5.2.4 10.3.4 15.4.1zM559.2 351.6c.5-4.3.8-8.6.8-13v-35.3h-44v48.4l43.2-.1zM472 303.2h44v-48.4h-44v48.4zM472 206.5h-44v48.4h44v-48.4zM560 254.9v-48.4h-44v48.4h44z"/><path fill="#FFF" d="M562.5 198.5l27.3-61.9-20.8-33.5-34.5 12.8-24.2-27.7-31.9 18.3L450 83.2l-28.4 23.3-31.9-18.3-24.2 27.7-34.5-12.8-20.8 33.6 27.3 61.9C371.9 183 410 174.3 450 174.3s78.1 8.7 112.5 24.2z"/><path fill="#0093DD" d="M366.3 118.6L332 106l-19.1 30.9 7.3 16.7 18.6 42.1c13.9-6.1 28.3-11.1 43.2-15l-15.7-62.1z"/><path fill="#FFF" stroke="#000" stroke-width=".25" d="M364.3 149.1c1.2 2.3 1.9 5 1.9 7.8 0 9.2-7.5 16.7-16.7 16.7-8.1 0-14.9-5.8-16.4-13.5 2.9 5.1 8.4 8.6 14.6 8.6 9.2 0 16.8-7.5 16.8-16.8 0-1-.1-1.9-.2-2.8z"/><path d="M349 126l-.1.2-1.1 6 4.6 4.1.2.1-.3.1-5.8 2-1.1 6-.1.3-.2-.2-4.6-4-5.8 2-.3.1.1-.3 1.1-6-4.5-4-.3-.2.3-.1 5.8-2 1.2-6v-.3l.2.2 4.6 4 5.8-1.9z"/><path fill="#F7DB17" d="M342 134.5l4.3 3.8 5.4-1.9-9.7-1.9zM342.1 134.3l9.7 1.9-4.3-3.8-5.4 1.9zM331.7 132.3l9.7 1.9-4.3-3.8-5.4 1.9zM341.3 134.3l-9.7-1.9 4.3 3.8 5.4-1.9zM341.9 134l6.5-7.5-5.4 1.8-1.1 5.7zM334.9 142l6.5-7.5-5.4 1.9-1.1 5.6zM341.5 134.7l-6.5 7.5 5.4-1.8 1.1-5.7zM348.5 126.7l-6.5 7.5 5.4-1.9 1.1-5.6zM341.5 134l-3.2-9.4-1.1 5.6 4.3 3.8zM344.9 144.1l-3.2-9.4-1.1 5.6 4.3 3.8zM341.9 134.6l3.2 9.4 1.1-5.6-4.3-3.8zM338.5 124.6l3.2 9.4 1.1-5.6-4.3-3.8z"/><path fill="#171796" d="M421.9 109.3l-31.7-18.1-23.9 27.4 15.8 62.1c14.6-3.7 29.7-6.3 45.1-7.5l-5.3-63.9z"/><path fill="#F00" d="M378.1 165.2c15.5-3.9 31.4-6.6 47.7-8l-1.3-16.1c-17.2 1.4-34.1 4.3-50.4 8.4l4 15.7zM370.2 134c17.2-4.4 34.9-7.4 53-8.9l-1.3-15.8c-19 1.6-37.6 4.7-55.6 9.3l3.9 15.4z"/><path fill="#0093DD" d="M478.3 109.3l-28.3-23-28.1 23 5.3 63.9c7.5-.6 15.1-1 22.8-1 7.7 0 15.4.3 22.9 1l5.4-63.9z"/><path d="M449.9 138c-.1 0-.1 0-.2.1-.6.7-1.1 1.4-1.6 2.1-.6.2-.7.5-.5 1-.8-.1-.9.6-.9 1.3-.7-1.1-1.5-1.4-2.4-.9 0-.7-.6-1-1.3-1.2-.5 0-.9-.2-1.3-.4-.2-.1-.3-.2-.5-.3-.4-.3-.7 0-.5.2l2.4 3.9c0 .2 0 .4.3.6.1.4.3.8.4 1.2 0 .1-.1.2-.1.3-.7-.3-1.3-.3-2-.4-.5 0-.9-.1-1.1-.4-.2-.2-.3-.1-.3.2 0 1.6.5 3 1.8 4.4-.7 0-1.4 0-2.1.1-.2 0-.3.1-.2.3.4.9 1 1.7 2.4 2.3-.6.3-1 .8-1.1 1.5 0 .7-.2 1.1-.6 1.3-.2.1-.2.2-.1.3.7.5 1.7.6 2.7.3-.5.8-.7 1.6-.6 2.5.6.2 1.2 0 1.8-.2-.1.2-.1.5-.2.9 0 .3-.1.7-.3 1-.1.1-.2.2 0 .3 1 .3 1.9.2 2.7-.1 0 .7 0 1.4.2 2.2.1.2.2.3.4.1.5-.6 1-1.2 1.6-1.5.1.3.2.5.5.6.3.2.4.5.5 1 0 .1 0 .2.1.3.4 0 1.5-1.1 1.7-1.8.6.4.8.7 1.3 1.4.2.2.3.1.4-.1.2-.7.2-1.4.2-2.1.8.3 1.7.4 2.7.1.2-.1.1-.2 0-.3-.2-.3-.3-.7-.3-1.1 0-.4 0-.7-.1-.9.6.2 1.2.3 1.8.2.1-.9-.2-1.7-.6-2.5 1 .2 1.9.2 2.7-.3.2-.1.1-.2-.1-.3-.4-.2-.6-.7-.6-1.3-.1-.7-.4-1.2-1.1-1.5 1.4-.6 2.1-1.4 2.4-2.3.1-.2 0-.3-.2-.3-.7 0-1.4-.1-2.1-.1 1.3-1.4 1.8-2.8 1.8-4.4 0-.3-.1-.4-.3-.2-.2.3-.5.4-1 .4-.7 0-1.3.1-1.9.4 0-.1-.1-.2-.1-.3.1-.4.3-.8.5-1.2.2-.2.3-.4.3-.6.8-1.3 1.5-2.6 2.3-3.9.2-.2-.1-.5-.5-.2-.2.1-.3.2-.5.3-.3.2-.8.4-1.3.4-.7.2-1.2.5-1.3 1.2-.9-.5-1.7-.2-2.4.9 0-.7-.1-1.4-.9-1.3.2-.5.1-.9-.5-1-.6-.7-1.4-1.4-1.9-2.1-.1-.1-.2-.1-.3-.1z"/><path fill="#F7DB17" d="M457.4 142.1c-.2-.1-.4.1-.5.3-.1.2-.1.5.1.6.1.1.2 0 .4-.2l.1-.1c.1-.3.1-.5-.1-.6zM442.6 142.1c.2-.1.4.1.5.3.1.2.1.5 0 .6s-.3-.1-.4-.3-.3-.5-.1-.6zM456 144.8c-.1 0-.2.1-.2.2s.1.2.2.2.2-.1.2-.2-.1-.2-.2-.2zM444.1 144.8c-.1 0-.2.1-.2.2s.1.2.2.2.2-.1.2-.2-.1-.2-.2-.2zM456.8 143.9c-2.2-.3-4.5-.4-6.7-.4s-4.5.1-6.7.3c-.1 0-.1.3 0 .3 2.2-.2 4.5-.3 6.7-.3s4.4.1 6.6.4c.1 0 .2-.3.1-.3z"/><path fill="#F7DB17" d="M443.3 143.6c2.3-.2 4.5-.3 6.8-.3 2.2 0 4.5.1 6.7.4l.3-.5h-.3c-.2-.1-.3-.5-.1-.8.2-.3.5-.5.7-.4.1.1.2.2.2.3l1.3-2.2c-.6.4-1 .6-1.7.7-.8.1-1.2.4-1.1.9.1.5-.2.4-.6.2-.9-.5-1.6.2-1.9 1-.2.6-.5.5-.5 0v-.6c-.1-.7-.3-.8-.6-.7-.5.2-.5.1-.4-.2.1-.2.3-.4.2-.7 0-.2-.2-.3-.4-.3-.5-.7-1.4-1.4-1.9-2.2-.5.7-1.1 1.4-1.6 2.2-.3 0-.4.1-.5.3-.1.3.2.5.2.6.1.2.1.4-.4.2-.4-.2-.6 0-.6.7v.6c0 .6-.3.6-.5 0-.3-.8-1-1.6-2-1-.4.2-.6.3-.5-.2.1-.5-.3-.8-1.1-.9-.8-.1-1.1-.4-1.7-.7l1.2 2c0-.1.1-.1.2-.2.2-.1.5.1.7.4.2.3.1.7-.1.8h-.1l.1.6zM456.3 146.3c0 .1 0 .1 0 0-.2.1-.3.2-.5.4l-.6.6s-.1.1-.1 0c-.1-.1 0-.1 0-.1.2-.2.4-.4.6-.5.1-.1.2-.2.2-.3-.3 0-.6-.1-.8-.1-.2.1-.5.2-.7.3-.2.1-.3.2-.4.4 0 0 0 .1-.1 0-.1 0-.1-.1 0-.1.1-.2.3-.3.5-.4.1-.1.2-.1.3-.2-.3 0-.6-.1-1-.1-.1 0-.1.1-.2.1l-.2.2s-.1.1-.1 0-.1-.1 0-.1c.1-.1.1-.2.2-.2h-.7l-.2.2c0 .1-.1.1-.1.2 0 0 0 .1-.1.1s-.1-.1-.1-.1c0-.1.1-.2.1-.2l.1-.1h-1c-.1 0-.1.1-.2.2s-.1.1-.1.2c0 0 0 .1-.1 0-.1 0-.1-.1 0-.1 0-.1.1-.2.2-.2l.1-.1h-2.2l.1.1.2.2v.1h-.1c0-.1-.1-.1-.1-.2l-.2-.2h-1l.1.1c.1.1.1.2.1.2v.1c-.1 0-.1 0-.1-.1s-.1-.1-.1-.2-.1-.1-.2-.2h-.7l.2.2s.1.1 0 .1h-.1l-.2-.2c-.1-.1-.1-.1-.2-.1-.3 0-.7 0-1 .1.1.1.3.1.4.2.2.1.4.3.5.4v.1h-.1c-.1-.1-.2-.3-.4-.4-.2-.1-.5-.2-.7-.3-.3 0-.5 0-.8.1l.3.3c.2.2.4.4.6.5 0 0 .1.1 0 .1-.1.1-.1 0-.1 0-.2-.2-.5-.4-.6-.6l-.4-.4c-.6-.3-1-.4-1.7-.4-.5 0-.9 0-1.4-.2.1.3.2.5.4.7.2.2.4.4.6.4 0 0 .1 0 .1.1.1.5.2.8.5 1.1.2.2.3.3.6.4-.2-.2-.4-.5-.5-.7-.2-.4-.3-.8-.2-1.2 0 0 0-.1.1-.1s.1.1.1.1c0 .4 0 .8.2 1.1.2.3.5.7.9 1 .1.1 0 .2-.1.2-.5-.1-.9-.4-1.1-.7-.3-.3-.4-.7-.5-1.2-.3-.1-.5-.3-.7-.5-.1-.2-.3-.4-.3-.6.1 1.3.5 2.4 1.4 3.4.2.2.5.5.8.6.3.1.3.3-.1.3h-.3c.2.1.5.2.7.3.4.2.6.5.7.8 0 0 0 .1-.1.1s-.1 0-.1-.1c0-.3-.2-.5-.6-.7-.3-.2-.8-.3-1.2-.5h-1.4c.1.1.2.2.4.2.2.1.6.3 1 .4.3.1.5.2.7.3.2.1.4.3.5.4 0 0 .1.1 0 .1-.1.1-.1 0-.1 0-.1-.2-.3-.3-.5-.4-.2-.1-.4-.2-.6-.2-.5-.1-.8-.2-1.1-.4-.2-.1-.4-.2-.5-.4.5 1.2 1.3 1.7 2.5 2 .1 0 .1 0 .2.1.3.1.5.1.8.2.3 0 .5.1.8.1 0 0 .1 0 .1.1s-.1.1-.1.1c-.3 0-.5-.1-.8-.1-.2 0-.3-.1-.5-.1h-.3c-.7 0-1.2.7-1.3 1.5.3-.2.5-.5.8-.6.3-.2.7-.3 1.1-.2 0 0 .1 0 .1.1s-.1.1-.1.1c-.3-.1-.6 0-.9.2-.3.2-.6.5-.9.7-.1.4-.2.8-.6 1.1.2.1.3.2.5.1.3-.1.5-.2.8-.3.3-.1.5-.2.8-.2 0 0 .1 0 .1.1s0 .1-.1.1c-.3 0-.5.1-.8.2-.2.1-.4.2-.7.3.7.1 1.4 0 2-.2.2-.1.3-.1.4-.1.2-.1.3-.2.5-.2.2-.1.4-.2.5-.2 0 0 .1 0 .1.1s0 .1-.1.1c-.3 0-.4.1-.7.2 0 .1-.2.2-.4.3-.1.1-.2.2-.3.2-.3.3-.4.5-.6.8-.1.2-.2.4-.2.7l.6-.9c.3-.3.6-.6 1-.8h.1v.1c-.4.2-.7.4-1 .7-.3.3-.5.7-.6 1-.1.2 0 0-.1.3.3-.4.6-.7 1-.9.4-.3.8-.5 1.2-.4 0 0 .1 0 .1.1s-.1.1-.1.1c-.3-.1-.7.1-1.1.4-.4.3-.7.7-1.1 1.1.5.1 1.1-.1 1.6-.3.3-.1.5-.4.7-.5l.2-.2.3-.3s.1-.1.1 0c.1.1 0 .1 0 .1l-.3.3-.3.3s0 .1-.1 0c-.2.2-.4.5-.5.7-.2.6-.1 1.1-.4 1.7.2-.1.4-.2.5-.4.2-.2.3-.4.4-.7.1-.3.3-.6.5-.8.2-.2.5-.4.8-.5 0 0 .1 0 .1.1s0 .1-.1.1c-.3.1-.5.3-.7.5-.2.2-.4.4-.5.7-.1.3-.2.5-.4.7-.1.1-.3.3-.5.4h.4c.2 0 .6-.2.8-.4.2-.2.3-.4.5-.6 0 0 0-.1.1 0s.1.1 0 .1c-.1.3-.3.5-.5.7l-.6.3c.5 0 .9-.1 1.4-.3.2-.1.3-.5.4-.6.1-.2.2-.3.3-.5.1-.2.3-.3.5-.4 0 0 .1 0 .1.1v.1c-.2.1-.3.2-.4.3-.1.1-.2.3-.3.4 0 .2-.2.7-.2.9 0 .6 0 1.2.2 1.8.2-.2.3-.4.5-.6.1-.3.1-.6.1-1v-1s0-.1.1-.1.1 0 .1.1v1c0 .3 0 .5-.1.8.2-.2.2-.2.2-.3.1-.2.2-.5.2-.7v-.7s0-.1.1-.1.1 0 .1.1c.1.2.1.5 0 .7 0 .2-.1.4-.1.6.2-.1.3-.2.5-.4v-.7c0-.2 0-.4.1-.6 0-.1 0-.1.1-.1s.1.1.1.1v1.2c0 .2.1.5.4.7.3.2.5.5.6.8 0-.4.1-.8 0-1.2 0-.4-.2-.8-.3-1.1v-.1h.1c.2.3.3.7.4 1.2.1.4 0 .9 0 1.4.3-.2 1.1-.8 1-1.8 0-.1 0-.2-.1-.2v-.1h.1c.1.1.1.2.1.3v.2s.1-.1.2-.1.2.1.2.2c-.1-.2-.1-.4-.1-.5v-.7s0-.1.1-.1.1.1.1.1c-.1.2-.1.4 0 .7 0 .2.1.5.2.7v.1l.2.2c0-.2-.1-.5-.1-.8v-1s0-.1.1-.1.1.1.1.1v1c0 .3.1.7.1 1 .2.2.3.4.5.6.2-.6.2-1.2.2-1.8 0-.2-.2-.7-.2-.9-.1-.2-.2-.3-.3-.4-.1-.1-.3-.3-.4-.3 0 0-.1 0-.1-.1s.1-.1.1-.1c.2.1.3.2.5.4.1.1.2.3.3.5.2 0 .2.5.4.6.5.2.9.3 1.3.3-.2-.1-.4-.1-.6-.3-.2-.2-.4-.4-.5-.7v-.1h.1c.1.3.3.5.5.6.3.2.9.4 1.2.4-.2-.1-.3-.2-.5-.4s-.3-.4-.4-.7c-.1-.3-.3-.5-.5-.7-.2-.2-.4-.4-.7-.5 0 0-.1 0-.1-.1s.1-.1.1-.1c.3.1.6.3.8.5.2.2.4.5.5.8.1.3.2.5.4.7.1.2.3.3.5.4-.3-.6-.2-1.1-.4-1.7-.1-.4-.7-.8-.6-.9.1-.2.4.3.7.4.5.2 1.1.3 1.6.3-.4-.4-.7-.8-1.1-1.1-.4-.3-.7-.4-1-.4 0 0-.1 0-.1-.1s0-.1.1-.1c.4-.1.8.1 1.2.4.3.2.6.5.9.9-.1-.1 0 0-.1-.2-.2-.4-.4-.7-.7-1-.3-.3-.6-.6-1-.7 0 0-.1 0 0-.1 0-.1.1-.1.1 0 .4.2.7.5 1 .8l.6.9c0-.2-.1-.5-.2-.7-.1-.3-.3-.6-.6-.9-.2-.2-.6-.4-.6-.5-.1 0-.1 0-.2-.1-.2-.1-.4-.1-.5-.2 0 0-.1 0-.1-.1s.1-.1.1-.1c.1 0 .3.1.5.2.1 0 .2.1.3.2.2 0 .4.1.6.2.6.2 1.3.4 2 .2-.2-.1-.4-.2-.7-.3-.3-.1-.5-.1-.8-.2 0 0-.1 0-.1-.1s.1-.1.1-.1c.3 0 .6.1.8.2.3.1.5.2.8.3.2.1.3 0 .5-.1-.4-.3-.5-.7-.6-1.1-.3-.3-.6-.6-.9-.7-.3-.2-.6-.3-.9-.2 0 0-.1 0-.1-.1s0-.1.1-.1c.4-.1.7 0 1.1.2.3.2.6.4.8.6v-.1c0-.8-.6-1.4-1.3-1.5-.2 0-.6.1-.6-.1s.3-.1.7-.3c1.1-.3 1.9-.9 2.5-2-.2.1-.3.2-.6.4-.3.1-.6.3-1.1.4-.2.1-.5.1-.6.2-.2.1-.3.2-.5.4 0 0-.1.1-.1 0-.1-.1 0-.1 0-.1.1-.2.3-.3.5-.4.2-.1.4-.2.7-.3.5-.1.8-.2 1-.4.2-.1.3-.2.4-.2h-1.4c-.4.1-.9.3-1.2.5-.3.2-.6.4-.6.7 0 0 0 .1-.1.1s-.1-.1-.1-.1c0-.3.3-.6.7-.8.2-.1.4-.2.7-.3h-.3c-.3 0-.3-.2-.1-.3.3-.1.6-.4.7-.6.8-1 1.2-2.1 1.4-3.3l-.3.6c-.2.2-.4.4-.7.5-.1.5-.3.9-.5 1.2-.3.3-.6.5-1.1.7-.1 0-.2-.1-.1-.2.4-.3.7-.7.8-1 .2-.4.2-.8.2-1.1 0 0 0-.1.1-.1s.1 0 .1.1c0 .4 0 .8-.2 1.2-.1.3-.3.5-.5.7.2-.1.4-.3.6-.4.3-.3.4-.7.5-1.1 0 0 0-.1.1-.1.3-.1.5-.2.6-.4.2-.2.3-.4.4-.7-.4.2-.9.2-1.4.2-.9.4-1.4.5-2 .7z"/><path fill="#F7DB17" d="M456.2 145.8c-2-.3-4-.3-6-.3s-4.1.1-6.1.3c-.1 0 0 .1 0 .1 0 .1.1.1.4.1 1.9-.2 3.8-.3 5.7-.3 2 0 4 .1 6 .3 0 .1.1-.2 0-.2z"/><path fill="#F7DB17" d="M444.1 145.6c2-.2 4-.3 6-.3s4 .1 6 .4l.1-.4h-.2c-.2 0-.4-.2-.4-.4s.2-.4.4-.4.3.1.3.2l.2-.5c-2.1-.2-4.3-.4-6.4-.4-2.2 0-4.3.1-6.5.3l.2.5c.1-.1.2-.2.3-.2.2 0 .4.2.4.4s-.2.4-.4.4h-.1l.1.4zm9.1-1.2c-.2 0-.4.2-.4.4s.2.4.4.4.4-.2.4-.4c-.1-.3-.2-.4-.4-.4zm0 .2c-.1 0-.2.1-.2.2s.1.2.2.2.2-.1.2-.2-.1-.2-.2-.2zm-3.2-.3c-.2 0-.4.2-.4.4s.2.4.4.4.4-.2.4-.4-.2-.4-.4-.4zm0 .2c-.1 0-.2.1-.2.2s.1.2.2.2.2-.1.2-.2c-.1-.1-.1-.2-.2-.2zm-3.2-.1c-.2 0-.4.2-.4.4s.2.4.4.4.4-.2.4-.4c0-.3-.2-.4-.4-.4zm0 .2c-.1 0-.2.1-.2.2s.1.2.2.2.2-.1.2-.2c0-.2-.1-.2-.2-.2z"/><path d="M450.1 142.1c0-.2-.1-.4-.3-.5-.2-.1-.3-.2-.6-.3-.1 0-.1-.2 0-.2.2-.1.3-.2.5-.4.1-.2.2-.5.3-.8 0-.1.2-.1.2 0 0 .2.2.5.3.6.2.2.4.3.6.4.1 0 .1.2 0 .2-.2 0-.3.1-.4.3-.1.2-.2.4-.3.7-.1.1-.3.1-.3 0zm.1-.3c.1-.2.1-.3.2-.4.1-.1.2-.2.3-.2-.2-.1-.3-.2-.4-.4-.1-.1-.2-.2-.2-.3-.1.2-.1.3-.2.5-.1.1-.2.3-.3.3.1.1.3.1.4.2.1 0 .1.1.2.3zM452.6 156.9l-1.5.6s-.1 0-.1-.1 0-.1.1-.1l1.5-.6c.1 0 .1 0 .1.1s-.1.1-.1.1zm.1-1l-1.8 1s-.1.1-.2 0 0-.1 0-.2l1.8-1s.1-.1.2 0c.1.2.1.2 0 .2zm-5.4-.2l1.8 1s.1.1 0 .2-.1.1-.2 0l-1.8-1s-.1-.1 0-.2h.2zm.2 1l1.5.6c.1 0 .1 0 .1.1s-.1.1-.1.1l-1.5-.6c-.1 0-.1 0-.1-.1s0-.1.1-.1zm.7 1.3c.4.1.8.1 1.1.1.3 0 .5-.2.6-.4v-1.5c-.3 0-.6 0-.9-.1-.3-.1-.5-.3-.6-.5-.1-.3-.1-.7 0-1 0-.1 0-.1.1-.1s.1.1.1.1c-.1.2-.1.6 0 .8.1.2.2.3.5.4.3.1.6.1.9.1.3 0 .6 0 .9-.1.2-.1.4-.2.6-.4.1-.2.2-.3.2-.5 0-.1-.1-.2-.1-.2-.1-.1-.2-.1-.4-.1H450.6c-.1 0-.1 0-.1-.1s0-.1.1-.1h.2c.2 0 .3-.1.5-.1s.4.1.5.2c.1.1.2.2.2.4s0 .5-.2.7c-.2.2-.4.4-.7.4-.2.1-.5.1-.8.1v1.4c.1.2.3.4.6.4.3.1.7 0 1.1-.1.1 0 .1 0 .1.1s0 .1-.1.1c-.4.1-.8.2-1.1.1-.3 0-.5-.2-.6-.4-.1.2-.4.3-.6.4-.3.1-.7 0-1.1-.1-.1 0-.1 0-.1-.1-.5.1-.4.1-.3.1zm1 .6h1.2c.1 0 .1 0 .1.1s-.1.1-.1.1h-1.2c-.1 0-.1 0-.1-.1s.1-.1.1-.1zM451 149.5c.4-.4.9-.7 1.3-.9.4-.2.8-.3 1.1-.3.1 0 .1 0 .1.1s-.1.1-.1.1c-.3 0-.6.1-1 .3-.4.2-.8.5-1.2.9 0 0-.1.1-.2 0s-.1-.2 0-.2zm-1.8.1c-.4-.4-.9-.7-1.3-.9-.4-.2-.8-.3-1.1-.3-.1 0-.1 0-.1-.1s0-.1.1-.1c.3 0 .7.1 1.2.3.5.2.9.6 1.4 1 0 0 .1.1 0 .2-.1 0-.2 0-.2-.1zm-.7 3c.1-.2.2-.5.4-.6.2-.2.3-.4.5-.5 0 0 .1-.1.2 0s0 .1 0 .2c-.2.1-.3.3-.5.5-.1.2-.3.4-.4.6 0 .1 0 .1-.1.1s-.1-.2-.1-.3zm1.1-5.1c.1.2.3.4.3.7.1.2.1.5.1.8v.7c0 .3-.1.5-.3.7-.1.2-.3.3-.5.3h-.5c.1.3.2.6 0 .9 0 .1-.1.1-.2.1-.1-.1-.3-.1-.4-.2-.1-.1-.2-.1-.4-.2-.3-.1-.5-.2-.7-.3-.2-.1-.3-.2-.4-.4-.1-.1-.2-.3-.3-.5 0-.2-.1-.3-.1-.5l-.6-.3c-.2-.1-.3-.3-.5-.4 0 0-.1-.1 0-.2s.1 0 .2 0c.1.1.3.2.4.4.2.1.4.2.6.4.4 0 .7.2 1.1.3.3.1.6.3.9.6 0 0 .1 0 .1.1l.1.1c.2.1.3.1.5 0 .1 0 .3-.1.4-.2.1-.2.2-.4.2-.6v-.7c0-.3 0-.5-.1-.8l-.3-.6s-.1-.1 0-.2c.4-.1.4-.1.4 0zm-1.1 3.1l-.9-.6-.9-.3c0 .1 0 .3.1.4 0 .2.1.3.2.4.1.1.2.2.4.3.2.1.4.2.7.3.1 0 .3.1.4.2.1 0 .2.1.3.1-.1-.2-.2-.5-.3-.8zm2.3-3l-.3.6c-.1.2-.1.5-.1.8v.7c0 .2.1.4.2.6.1.1.2.2.4.2h.5s.1 0 .1-.1l.1-.1.9-.6c.4-.2.7-.3 1.1-.3.2-.1.4-.2.6-.4s.3-.2.4-.4c0 0 .1-.1.2 0s0 .1 0 .2c-.1.1-.3.3-.5.4l-.6.3c0 .2 0 .4-.1.5 0 .2-.1.4-.3.5l-.4.4c-.2.1-.4.2-.7.3-.1 0-.3.1-.4.2-.1.1-.3.1-.4.2-.1 0-.1 0-.2-.1-.1-.3-.1-.6 0-.9-.2.1-.3.1-.5 0-.2 0-.4-.2-.5-.3-.2-.2-.2-.5-.3-.7v-.7c0-.3 0-.6.1-.8.1-.2.2-.5.3-.7 0 0 .1-.1.2 0 .3.1.3.2.2.2zm2.8 2.1c-.3 0-.6.1-.9.3-.3.1-.6.3-.9.6v.1c-.1.3-.2.5-.1.8.1 0 .2-.1.3-.1.1-.1.3-.1.4-.2.3-.1.5-.2.7-.3.2-.1.3-.2.4-.3.1-.1.2-.3.2-.4-.1-.2-.1-.3-.1-.5z"/><path d="M452.6 149.9c-.4 0-.6.3-.6.6s.3.6.6.6.6-.3.6-.6c.1-.3-.2-.6-.6-.6zm0 .2c-.2 0-.4.2-.4.4s.2.4.4.4.4-.2.4-.4-.1-.4-.4-.4zm0 .2c-.1 0-.3.1-.3.3s.1.3.3.3c.1 0 .3-.1.3-.3s-.1-.3-.3-.3zm-5-.4c.4 0 .6.3.6.6 0 .4-.3.6-.6.6-.4 0-.6-.3-.6-.6s.3-.6.6-.6zm0 .2c.2 0 .4.2.4.4s-.2.4-.4.4-.4-.2-.4-.4.2-.4.4-.4zm0 .2c.1 0 .3.1.3.3s-.1.3-.3.3-.3-.1-.3-.3.2-.3.3-.3zM437.1 109.2c-.1 0-.1 0-.2.1-.5.8-1 1.4-1.5 2.2-.6.2-.7.6-.5 1-.8 0-.8.6-.8 1.3-.8-1.1-1.6-1.4-2.4-.8-.1-.7-.6-1-1.3-1.1-.5 0-1-.2-1.3-.4-.2-.1-.3-.2-.5-.3-.4-.2-.7 0-.5.2.8 1.3 1.7 2.5 2.5 3.8 0 .2 0 .4.3.6.2.4.3.8.5 1.2 0 .1-.1.2-.1.3-.7-.3-1.3-.3-2-.3-.5 0-.9-.1-1.1-.4-.2-.2-.3-.1-.3.3.1 1.6.6 3 1.9 4.3-.7 0-1.4.1-2.1.1-.2 0-.3.1-.2.3.4.9 1.1 1.7 2.5 2.2-.6.4-.9.9-1 1.6 0 .7-.2 1.1-.6 1.4-.2.1-.2.2-.1.3.8.5 1.7.5 2.7.2-.4.8-.6 1.7-.5 2.5.6.1 1.2 0 1.8-.2-.1.2-.1.5-.1.9 0 .3-.1.7-.3 1-.1.1-.2.3 0 .3 1 .2 1.9.1 2.7-.2 0 .7.1 1.4.3 2.1.1.2.2.3.4.1.4-.7.9-1.2 1.5-1.6.1.3.2.5.5.6.3.2.5.5.5 1 0 .1 0 .2.1.3.4 0 1.5-1.2 1.7-1.8.6.3.9.7 1.4 1.3.2.2.3.1.4-.1.2-.7.1-1.4.1-2.2.8.3 1.7.3 2.7 0 .2-.1.1-.2 0-.3-.2-.3-.3-.7-.4-1.1 0-.4-.1-.7-.2-.8.6.2 1.2.3 1.8.1.1-.9-.2-1.7-.7-2.5 1 .2 1.9.1 2.7-.4.2-.1.1-.2-.1-.3-.4-.2-.6-.7-.7-1.3-.1-.7-.5-1.2-1.1-1.5 1.4-.6 2-1.4 2.3-2.4.1-.2 0-.3-.2-.3h-2.1c1.2-1.5 1.7-2.9 1.6-4.5 0-.3-.1-.4-.3-.2-.2.3-.5.4-1 .5-.7.1-1.3.1-1.9.5 0-.1-.1-.2-.1-.3.1-.4.3-.8.4-1.2.2-.2.3-.4.2-.6.7-1.3 1.4-2.6 2.2-3.9.2-.2-.2-.5-.5-.2-.2.1-.3.2-.5.3-.3.2-.7.4-1.3.5-.7.2-1.2.5-1.2 1.2-.9-.5-1.7-.2-2.4 1-.1-.7-.2-1.3-.9-1.2.2-.5 0-.9-.6-1-.6-.7-1.4-1.3-2-2.1l-.1-.1z"/><path fill="#F7DB17" d="M444.7 113.1c-.2-.1-.4.1-.5.3-.1.2-.1.5.1.6.1.1.2 0 .3-.2l.1-.1c.2-.3.2-.6 0-.6zM429.9 113.6c.2-.1.4 0 .5.3.1.2.1.5 0 .6-.2.1-.3-.1-.4-.3s-.3-.5-.1-.6zM443.4 115.8c-.1 0-.2.1-.2.2s.1.2.2.2.2-.1.2-.2-.1-.2-.2-.2zM431.5 116.3c-.1 0-.2.1-.2.2s.1.2.2.2.2-.1.2-.2-.1-.2-.2-.2zM444.2 114.9c-2.2-.2-4.5-.2-6.7-.1s-4.5.3-6.7.6c-.1 0-.1.3.1.3 2.2-.3 4.4-.5 6.7-.6 2.2-.1 4.4 0 6.6.1v-.3z"/><path fill="#F7DB17" d="M430.7 115.1c2.3-.3 4.5-.5 6.8-.6 2.2-.1 4.5 0 6.7.1l.3-.6h-.3c-.2-.1-.3-.5-.1-.8.2-.3.5-.5.7-.4.1.1.2.2.2.3l1.2-2.2c-.6.4-.9.7-1.7.8-.8.2-1.2.5-1.1 1 .1.5-.2.4-.6.2-.9-.5-1.6.3-1.9 1.1-.2.6-.5.6-.5 0v-.6c-.1-.7-.3-.8-.7-.6-.5.2-.5.1-.4-.2.1-.2.2-.4.2-.7 0-.2-.2-.3-.5-.3-.6-.7-1.4-1.4-2-2.1-.5.7-1.1 1.5-1.6 2.2-.3 0-.4.1-.4.3 0 .3.2.5.3.6.1.2.1.4-.4.2-.4-.2-.6 0-.6.7v.6c0 .6-.3.6-.5.1-.4-.8-1.1-1.5-2-1-.4.3-.6.3-.5-.1 0-.5-.3-.8-1.2-.9-.8-.1-1.1-.3-1.7-.7l1.3 2c0-.1.1-.1.2-.2.2-.1.5.1.7.4.2.3.1.7-.1.8h-.1l.3.6zM443.8 117.3c0 .1 0 .1 0 0-.2.1-.3.2-.5.4l-.6.6s-.1.1-.1 0c-.1-.1 0-.1 0-.1l.6-.6c.1-.1.2-.2.2-.3-.3 0-.6 0-.8-.1-.2.1-.5.2-.6.3-.2.1-.3.2-.4.4 0 0 0 .1-.1 0-.1 0-.1-.1 0-.1.1-.2.3-.3.5-.5.1-.1.2-.1.3-.2h-1c-.1 0-.1.1-.2.1l-.2.2s-.1.1-.1 0-.1-.1 0-.1c.1-.1.1-.2.2-.2h-.7l-.2.2c-.1.1-.1.1-.1.2 0 0 0 .1-.1.1s-.1-.1-.1-.1c0-.1.1-.2.1-.2l.1-.1h-1c-.1 0-.1.1-.2.2s-.1.1-.1.2c0 0 0 .1-.1 0-.1 0-.1-.1 0-.1 0-.1.1-.2.2-.2l.1-.1h-2.2l.1.1.2.2v.1c-.1.1-.1 0-.1 0 0-.1-.1-.1-.1-.2-.1-.1-.1-.1-.2-.1-.3 0-.7 0-1 .1l.1.1c.1.1.1.1.1.2v.1h-.1c0-.1-.1-.1-.1-.2s-.1-.1-.2-.2c-.2 0-.5 0-.7.1l.2.2s.1.1 0 .1c-.1.1-.1 0-.1 0l-.2-.2c-.1-.1-.1-.1-.2-.1-.3 0-.6.1-1 .1.1 0 .3.1.4.2.2.1.4.2.5.4 0 0 .1.1 0 .1-.1.1-.1 0-.1 0-.1-.1-.2-.3-.4-.4-.2-.1-.5-.2-.7-.3-.3 0-.5.1-.8.1l.3.3c.2.2.4.3.6.5 0 0 .1.1 0 .1h-.1c-.3-.2-.5-.4-.6-.5l-.4-.4c-.6-.2-1.1-.3-1.7-.4-.5 0-.9 0-1.4-.2.1.2.2.5.4.7.2.2.4.3.6.4 0 0 .1 0 .1.1.1.5.3.8.5 1.1.2.2.3.3.6.4-.2-.2-.4-.5-.5-.7-.2-.4-.3-.8-.3-1.2 0 0 0-.1.1-.1s.1.1.1.1c0 .4.1.8.3 1.1.2.3.5.7.9 1 .1.1 0 .2-.1.2-.5-.1-.9-.3-1.2-.6-.3-.3-.5-.7-.6-1.2-.3-.1-.5-.2-.7-.5-.1-.2-.3-.4-.4-.6.1 1.3.6 2.4 1.5 3.3.2.2.5.5.8.6.3.1.3.3 0 .3h-.3c.3.1.5.2.7.3.4.2.7.5.7.8 0 0 0 .1-.1.1s-.1 0-.1-.1c0-.3-.3-.5-.6-.6-.3-.2-.8-.3-1.2-.4-.5 0-.9 0-1.4.1.1.1.2.2.4.2.2.1.6.2 1 .3.3.1.5.1.7.2.2.1.4.3.5.4 0 0 .1.1 0 .1-.1.1-.1 0-.1 0-.1-.1-.3-.3-.5-.4-.2-.1-.4-.2-.6-.2-.5-.1-.8-.2-1.1-.3l-.6-.3c.6 1.1 1.4 1.6 2.5 1.9h.2c.3.1.5.1.8.1.3 0 .5.1.8.1 0 0 .1 0 .1.1s-.1.1-.1.1c-.3 0-.5 0-.8-.1-.2 0-.3 0-.5-.1h-.3c-.7.1-1.2.7-1.2 1.5.3-.2.5-.5.8-.7.3-.2.7-.3 1.1-.2 0 0 .1 0 .1.1s-.1.1-.1.1c-.3-.1-.6 0-.9.2-.3.2-.6.5-.9.8-.1.4-.2.9-.6 1.1.2.1.3.2.5.1s.5-.3.8-.3c.3-.1.5-.2.8-.2 0 0 .1 0 .1.1s0 .1-.1.1c-.3 0-.5.1-.8.2l-.6.3c.7.1 1.4-.1 2-.3.2-.1.3-.1.4-.1.1-.1.3-.2.5-.3.2-.1.4-.2.5-.2 0 0 .1 0 .1.1s0 .1-.1.1c-.3.1-.4.1-.6.3 0 .1-.2.2-.4.3l-.2.2c-.3.3-.4.6-.5.9-.1.2-.1.4-.2.7.2-.3.3-.6.6-.9.3-.3.6-.6 1-.8h.1v.1c-.4.2-.7.5-.9.8-.3.3-.5.7-.6 1-.1.2 0 0-.1.3.3-.4.6-.7.9-.9.4-.3.8-.5 1.2-.4 0 0 .1 0 .1.1s-.1.1-.1.1c-.3 0-.7.1-1.1.4-.3.3-.7.7-1 1.1.5.1 1.1-.1 1.6-.3.3-.1.5-.4.7-.5l.2-.2.3-.3s.1-.1.1 0c.1.1 0 .1 0 .1l-.3.3-.3.3s0 .1-.1 0c-.2.2-.4.5-.5.7-.1.6 0 1.1-.3 1.7.2-.1.4-.3.5-.4.1-.2.3-.4.4-.7.1-.3.3-.6.5-.8.2-.2.5-.4.8-.5 0 0 .1 0 .1.1s0 .1-.1.1c-.3.1-.5.3-.7.5-.2.2-.3.5-.4.7-.1.3-.2.6-.4.8-.1.2-.3.3-.4.4h.4c.2 0 .6-.2.8-.4.2-.2.3-.4.4-.6 0 0 0-.1.1-.1s.1.1.1.1c-.1.3-.3.5-.5.7-.2.1-.3.2-.6.3.5 0 .9-.2 1.4-.3.2-.1.2-.5.4-.6.1-.2.2-.3.3-.5.1-.2.3-.3.5-.4h.1v.1c-.2.1-.3.2-.4.3-.1.1-.2.3-.3.4 0 .2-.1.7-.1.9 0 .6 0 1.2.2 1.8.1-.2.3-.4.5-.6 0-.3.1-.7.1-1 0-.3 0-.7-.1-1 0 0 0-.1.1-.1s.1 0 .1.1c.1.3.1.7.1 1 0 .3 0 .5-.1.8.2-.2.2-.2.2-.3.1-.2.2-.5.2-.7 0-.2 0-.5-.1-.7 0 0 0-.1.1-.1s.1 0 .1.1c.1.2.1.5.1.7 0 .2-.1.4-.1.6.2-.1.3-.3.5-.4v-.7-.6c0-.1 0-.1.1-.1s.1.1.1.1v1.2c0 .2.2.5.4.7.3.2.5.5.6.8v-1.2c-.1-.4-.2-.8-.4-1.1 0 0-.1-.1 0-.1.1-.1.1 0 .1 0 .2.3.3.7.4 1.1.1.4.1.9 0 1.4.3-.3 1.1-.8 1-1.8 0-.1-.1-.2-.1-.2v-.1h.1c.1.1.1.2.1.3v.2l.1-.1c.1 0 .2.1.2.2-.1-.2-.1-.4-.1-.5v-.7s0-.1.1-.1.1.1.1.1v.7c0 .2.1.5.2.7v.1l.2.2c0-.2-.1-.5-.1-.8v-1s0-.1.1-.1.1.1.1.1v1c0 .3.1.7.2 1 .2.2.3.3.5.6.1-.6.2-1.2.1-1.8 0-.2-.2-.7-.2-.9-.1-.2-.2-.3-.3-.4-.1-.1-.3-.2-.4-.3 0 0-.1 0-.1-.1s.1-.1.1-.1c.2.1.4.2.5.4.1.1.2.3.3.4.2 0 .3.5.4.6.5.2.9.2 1.4.2-.2 0-.4-.1-.6-.3-.2-.2-.4-.4-.5-.7v-.1h.1c.1.3.3.5.5.6.3.2.9.3 1.2.3-.2-.1-.3-.2-.5-.4s-.3-.4-.4-.7c-.1-.3-.3-.5-.5-.7-.2-.2-.5-.4-.7-.4 0 0-.1 0-.1-.1s.1-.1.1-.1c.3.1.6.3.8.5.2.2.4.5.5.8.1.3.2.5.4.7.1.2.3.3.5.4-.3-.6-.2-1.1-.4-1.7-.1-.4-.7-.8-.6-.9.1-.2.4.2.7.3.5.2 1.1.3 1.6.2-.4-.4-.8-.8-1.1-1-.4-.3-.7-.4-1.1-.3 0 0-.1 0-.1-.1s0-.1.1-.1c.4-.1.8.1 1.2.3.3.2.6.5 1 .8-.1-.1 0 0-.1-.2-.2-.4-.4-.7-.7-1-.3-.3-.6-.5-1-.7 0 0-.1 0 0-.1 0-.1.1-.1.1 0 .4.2.8.4 1.1.7.2.3.5.6.6.9-.1-.2-.1-.5-.2-.7-.1-.3-.3-.6-.6-.8-.2-.2-.6-.4-.6-.5-.1 0-.1 0-.2-.1-.2-.1-.4-.1-.5-.1 0 0-.1 0-.1-.1s.1-.1.1-.1c.1 0 .3.1.5.1.1 0 .2.1.3.2.2 0 .4.1.6.2.6.2 1.3.3 2 .2-.2-.1-.4-.2-.7-.2-.3-.1-.5-.1-.8-.1 0 0-.1 0-.1-.1s0-.1.1-.1c.3 0 .6.1.8.1.3.1.5.2.8.3.2.1.3 0 .5-.2-.4-.3-.6-.7-.6-1.1-.3-.3-.6-.5-1-.7-.3-.2-.6-.2-.9-.2 0 0-.1 0-.1-.1s0-.1.1-.1c.4-.1.7 0 1.1.2.3.2.6.4.8.6v-.1c-.1-.8-.7-1.4-1.3-1.4-.2 0-.6.1-.6-.1s.3-.1.7-.3c1.1-.4 1.9-.9 2.4-2.1-.2.1-.3.3-.5.4-.2.1-.6.3-1 .4-.2.1-.5.2-.6.3-.2.1-.3.3-.5.4 0 0-.1.1-.1 0v-.1c.1-.2.3-.3.5-.5.2-.1.4-.2.7-.3.5-.1.8-.3 1-.4.1-.1.3-.2.4-.3h-1.4c-.4.1-.8.3-1.2.5-.3.2-.5.4-.5.7 0 0 0 .1-.1.1s-.1 0-.1-.1c0-.3.3-.6.6-.8.2-.1.4-.2.7-.3h-.3c-.3 0-.3-.2-.1-.3.3-.1.5-.4.7-.7.8-1 1.1-2.2 1.2-3.4l-.3.6c-.2.2-.4.4-.6.5-.1.5-.2.9-.5 1.2-.3.3-.6.6-1.1.7-.1 0-.2-.1-.1-.2.4-.3.6-.7.8-1 .2-.4.2-.8.2-1.2 0 0 0-.1.1-.1s.1 0 .1.1c.1.4 0 .8-.2 1.3-.1.3-.3.5-.5.8.2-.1.4-.3.5-.5.2-.3.4-.7.5-1.2 0 0 0-.1.1-.1.3-.1.5-.3.6-.5.1-.2.2-.4.3-.7-.4.2-.9.2-1.3.3-1.6.8-2.1 1-2.6 1.2z"/><path fill="#F7DB17" d="M443.6 116.8c-2-.2-4-.2-6.1-.1-2 .1-4 .3-6.1.6-.1 0 0 .1 0 .1 0 .1.1.1.4.1 1.9-.2 3.8-.4 5.7-.5 2-.1 4-.1 6 .1.1 0 .3-.3.1-.3z"/><path fill="#F7DB17" d="M431.5 117.1c2-.3 4-.5 6-.6 2-.1 4 0 6 .1l.1-.4s-.1 0-.2.1c-.2 0-.4-.1-.4-.4 0-.2.1-.4.4-.4.2 0 .3.1.3.2l.2-.5c-2.2-.2-4.3-.2-6.4-.1-2.2.1-4.3.3-6.5.6l.2.5c.1-.1.2-.2.3-.2.2 0 .4.1.4.4s-.1.4-.4.4h-.1l.1.3zm9-1.6c-.2 0-.4.2-.3.4 0 .2.2.4.4.4s.4-.2.3-.4-.2-.4-.4-.4zm.1.2c-.1 0-.2.1-.2.2s.1.2.2.2.2-.1.2-.2c-.1-.1-.1-.2-.2-.2zm-3.3-.2c-.2 0-.4.2-.4.4s.2.4.4.4.4-.2.4-.4-.2-.4-.4-.4zm0 .2c-.1 0-.2.1-.2.2s.1.2.2.2.2-.1.2-.2-.1-.2-.2-.2zm-3.1 0c-.2 0-.4.2-.4.4s.2.4.4.4.4-.2.3-.4c.1-.2-.1-.4-.3-.4zm0 .2c-.1 0-.2.1-.2.2s.1.2.2.2.2-.1.2-.2-.1-.2-.2-.2z"/><path d="M437.4 113.3c0-.2-.2-.4-.3-.5-.2-.1-.4-.2-.6-.2-.1 0-.1-.2 0-.2.2-.1.3-.2.5-.4.1-.2.2-.5.3-.8 0-.1.2-.1.2 0l.3.6c.2.2.4.3.6.4.1 0 .1.2 0 .2-.2 0-.3.1-.4.3-.1.2-.2.4-.3.7-.1 0-.3 0-.3-.1zm.1-.3c.1-.2.1-.3.2-.4l.3-.3c-.2-.1-.3-.2-.4-.3-.1-.1-.2-.2-.2-.3 0 .2-.1.3-.2.5-.1.1-.2.3-.3.4.2.1.3.1.4.2l.2.2zM440.4 128l-1.5.7s-.1 0-.1-.1 0-.1.1-.1l1.5-.7s.1 0 .1.1 0 .1-.1.1zm.2-.9l-1.8 1s-.1.1-.2 0 0-.1 0-.2l1.8-1s.1-.1.2 0 0 .1 0 .2zm-5.5 0l1.8.9s.1 0 0 .1c0 .1-.1.1-.1.1l-1.8-.9s-.1 0 0-.1c0-.2.1-.1.1-.1zm.2.9l1.5.6c.1 0 .1 0 .1.1s-.1.1-.1.1l-1.5-.6c-.1 0-.1 0-.1-.1s.1-.1.1-.1zm.7 1.3c.4.1.8.1 1.1.1.3-.1.5-.2.5-.5l-.1-1.5c-.3 0-.6 0-.9-.1-.3-.1-.5-.3-.6-.5-.1-.3-.1-.7 0-1 0-.1 0-.1.1-.1s.1.1.1.1c0 .2-.1.6 0 .8.1.2.2.3.5.4.3.1.6.1.9.1.3 0 .6-.1.9-.2.2-.1.4-.2.6-.4.1-.2.2-.4.1-.5 0-.1-.1-.2-.2-.2-.1-.1-.2-.1-.4-.1-.1 0-.3 0-.4.1h-.2c-.1 0-.1 0-.1-.1s0-.1.1-.1h.2c.2 0 .3-.1.5-.1s.4 0 .5.1c.1.1.2.2.3.4 0 .2 0 .5-.2.7-.1.2-.4.4-.7.5-.2.1-.5.1-.8.2l.1 1.4c.1.2.3.4.6.4s.7 0 1.1-.1c.1 0 .1 0 .1.1s0 .1-.1.1c-.4.1-.8.2-1.1.1-.3 0-.5-.2-.7-.4-.1.2-.4.4-.6.4-.3.1-.7 0-1.2-.1-.1 0-.1 0-.1-.1 0 .1.1.1.1.1zm1.1.6l1.2-.1c.1 0 .1 0 .1.1s0 .1-.1.1l-1.2.1c-.1 0-.1 0-.1-.1s.1-.1.1-.1zM438.5 120.7c.4-.4.8-.7 1.2-.9.4-.2.7-.4 1.1-.4.1 0 .1 0 .1.1s-.1.1-.1.1c-.3 0-.6.1-.9.3-.4.2-.8.5-1.2.9 0 0-.1.1-.2 0-.1 0 0-.1 0-.1zm-1.8.2c-.4-.4-.9-.7-1.4-.9-.4-.2-.8-.3-1.1-.3-.1 0-.1 0-.1-.1s0-.1.1-.1c.3 0 .8.1 1.2.3.5.2 1 .5 1.4.9 0 0 .1.1 0 .2 0 .1 0 0-.1 0zm-.5 3c.1-.2.2-.5.4-.7.1-.2.3-.4.5-.5 0 0 .1-.1.2 0s0 .1 0 .2c-.2.1-.3.3-.5.5-.1.2-.3.4-.3.6 0 .1 0 .1-.1.1s-.2-.1-.2-.2zm.9-5.2c.2.2.3.4.4.6.1.2.1.5.1.8v.7c0 .3-.1.5-.3.7-.1.2-.3.3-.5.4h-.5c.1.3.2.6.1.9 0 .1-.1.1-.1.1-.1-.1-.3-.1-.4-.2-.1-.1-.3-.1-.4-.1-.3-.1-.5-.2-.7-.3-.2-.1-.3-.2-.5-.4-.1-.1-.2-.3-.3-.5 0-.2-.1-.3-.1-.5l-.6-.3c-.2-.1-.4-.2-.5-.4 0 0-.1-.1 0-.2s.1 0 .2 0c.1.1.3.2.5.3l.6.3c.4 0 .7.1 1.1.3.3.1.6.3 1 .5 0 0 .1 0 .1.1l.1.1c.2.1.3.1.5 0 .1 0 .3-.1.4-.3.1-.2.2-.4.2-.6v-.7c0-.3-.1-.5-.1-.8l-.3-.6s-.1-.1 0-.2 0 .3 0 .3zm-1 3.2c-.3-.2-.6-.4-.9-.5l-.9-.3c0 .1 0 .3.1.4 0 .2.1.3.2.4.1.1.2.2.4.3.2.1.4.2.7.3.1 0 .3.1.4.1.1 0 .2.1.3.1 0-.2-.1-.5-.3-.8.1 0 0 0 0 0zm2.2-3.1l-.3.6c-.1.2-.1.5-.1.8v.7c0 .2.1.4.3.6.1.1.2.2.4.2.1 0 .3 0 .4-.1l.1-.1.1-.1.9-.6c.4-.2.7-.3 1.1-.4.2-.1.4-.3.6-.4.2-.1.3-.3.4-.4 0 0 .1-.1.2 0s0 .1 0 .2c-.1.1-.3.3-.5.4-.2.1-.4.2-.6.4v.5c0 .2-.1.4-.2.5-.1.1-.2.3-.4.4-.2.1-.4.2-.7.4-.1 0-.2.1-.4.2-.1.1-.2.1-.4.2h-.2c-.1-.3-.1-.6 0-.9-.2.1-.3.1-.5 0-.2 0-.4-.1-.5-.3-.2-.2-.3-.5-.3-.7 0-.3-.1-.5 0-.7 0-.3 0-.6.1-.8.1-.3.2-.5.3-.7 0 0 .1-.1.2 0 .1 0 .1.1 0 .1zm2.9 2l-.9.3-.9.6v.1c-.1.3-.1.6-.1.8.1 0 .2-.1.3-.1.1-.1.3-.1.4-.2.3-.1.5-.2.7-.3.2-.1.3-.2.4-.3.1-.1.2-.3.2-.4-.1-.2-.1-.3-.1-.5z"/><path d="M440.2 121c-.4 0-.6.3-.6.7 0 .4.3.6.7.6.4 0 .6-.3.6-.7 0-.3-.3-.6-.7-.6zm0 .2c-.2 0-.4.2-.4.5 0 .2.2.4.5.4.2 0 .4-.2.4-.5 0-.2-.2-.4-.5-.4zm0 .2c-.1 0-.3.1-.2.3 0 .1.1.3.3.2.1 0 .3-.1.2-.3 0-.1-.1-.2-.3-.2zm-5-.2c.4 0 .7.3.7.6 0 .4-.3.7-.6.7-.4 0-.7-.3-.7-.6 0-.4.3-.7.6-.7zm0 .2c.2 0 .4.2.5.4s-.2.4-.4.5c-.2 0-.4-.2-.5-.4 0-.3.2-.5.4-.5zm0 .2c.1 0 .3.1.3.2s-.1.3-.2.3-.3-.1-.3-.2c0-.2.1-.3.2-.3zM462.9 109.2c-.1 0-.1 0-.2.1-.6.7-1.1 1.3-1.7 2.1-.6.2-.7.5-.5 1-.8-.1-.9.5-.9 1.2-.7-1.2-1.5-1.5-2.4-1 0-.7-.5-1-1.3-1.2-.5 0-.9-.2-1.3-.5-.2-.1-.3-.2-.5-.3-.4-.3-.7 0-.5.2.7 1.3 1.5 2.6 2.2 3.9-.1.2 0 .4.2.6.1.4.2.8.4 1.2 0 .1-.1.2-.1.3-.6-.3-1.3-.4-2-.5-.5 0-.8-.2-1.1-.4-.2-.2-.3-.1-.3.2-.1 1.6.4 3 1.6 4.5h-2.1c-.2 0-.3.1-.2.3.3.9.9 1.8 2.3 2.4-.6.3-1 .8-1.1 1.5-.1.7-.3 1.1-.7 1.3-.2.1-.2.2-.1.3.7.6 1.7.6 2.6.4-.5.8-.7 1.6-.7 2.5.6.2 1.2.1 1.8-.1-.1.2-.1.5-.2.9 0 .3-.1.7-.3 1-.1.1-.2.2 0 .3 1 .3 1.9.2 2.7 0 0 .7 0 1.4.1 2.2 0 .2.2.3.4.1.5-.6 1-1.1 1.6-1.5.1.3.2.5.4.7.3.2.4.5.4 1 0 .1 0 .2.1.3.4 0 1.6-1.1 1.8-1.7.6.4.8.8 1.2 1.4.2.2.3.1.4-.1.2-.7.3-1.4.3-2.1.8.3 1.7.5 2.7.2.2 0 .1-.2 0-.3-.2-.3-.3-.8-.3-1.1 0-.4 0-.7-.1-.9.6.2 1.2.4 1.8.2.1-.9-.1-1.7-.5-2.5 1 .3 1.9.3 2.7-.2.2-.1.1-.2-.1-.3-.4-.2-.6-.7-.6-1.4-.1-.7-.4-1.2-1-1.6 1.5-.5 2.1-1.3 2.5-2.2.1-.2 0-.3-.2-.3-.7-.1-1.4-.1-2.1-.2 1.3-1.4 1.9-2.8 2-4.4 0-.3-.1-.4-.3-.3-.2.2-.5.4-1 .4-.7 0-1.3 0-2 .3 0-.1-.1-.2-.1-.3.2-.4.3-.8.5-1.1.2-.1.3-.4.3-.6.8-1.3 1.6-2.5 2.5-3.8.2-.2-.1-.5-.5-.2-.2.1-.3.2-.5.3-.4.2-.8.4-1.3.4-.7.1-1.3.4-1.3 1.1-.8-.6-1.7-.3-2.4.8 0-.7-.1-1.4-.8-1.3.2-.5.1-.9-.5-1.1-.5-.8-1.3-1.4-1.8-2.2l.1.1z"/><path fill="#F7DB17" d="M470.2 113.6c-.1-.1-.4 0-.5.3s-.1.5 0 .6c.1.1.2 0 .4-.2l.1-.1c.1-.2.1-.5 0-.6zM455.4 113.1c.2-.1.4.1.5.3.1.2.1.5-.1.6-.2.1-.3-.1-.4-.3-.1-.3-.2-.6 0-.6zM468.7 116.3c-.1 0-.2.1-.2.2s.1.2.2.2.2-.1.2-.2c0-.2-.1-.2-.2-.2zM456.8 115.8c-.1 0-.2.1-.2.2s.1.2.2.2.2-.1.2-.2c-.1-.1-.1-.2-.2-.2zM469.5 115.4c-2.2-.4-4.4-.6-6.7-.6s-4.5 0-6.7.1c-.1 0-.1.3 0 .3 2.2-.1 4.5-.2 6.7-.1s4.4.3 6.6.6c.1 0 .2-.3.1-.3z"/><path fill="#F7DB17" d="M456.1 114.6c2.3-.1 4.5-.2 6.8-.1 2.2.1 4.5.3 6.7.6l.3-.5h-.3c-.2-.1-.3-.5-.1-.8.2-.3.5-.5.7-.4.1.1.2.2.2.3l1.4-2.1c-.6.4-1 .6-1.7.7-.8.1-1.2.4-1.1.9.1.5-.2.4-.6.1-.9-.5-1.6.1-2 1-.2.5-.5.5-.5-.1v-.6c0-.7-.2-.9-.6-.7-.5.2-.5.1-.4-.2.1-.2.3-.4.2-.6 0-.2-.2-.3-.4-.3-.5-.7-1.3-1.5-1.8-2.2-.6.7-1.2 1.4-1.7 2.1-.3 0-.4.1-.5.3-.1.3.1.5.2.7.1.2.1.4-.4.2-.4-.2-.6 0-.6.6 0 .2 0 .4-.1.6 0 .6-.3.6-.5 0-.3-.8-1-1.6-1.9-1.1-.4.2-.6.3-.5-.2.1-.5-.3-.8-1.1-1-.7-.1-1.1-.4-1.7-.8l1.2 2.1c0-.1.1-.1.2-.2.2-.1.5.1.7.4.2.3.1.7-.1.8h-.1l.1.5zM468.9 117.8c-.2.1-.3.2-.5.4s-.4.4-.6.5c0 0-.1.1-.1 0-.1-.1 0-.1 0-.1.2-.2.5-.4.6-.5.1-.1.2-.2.2-.3-.3 0-.6-.1-.8-.1-.2.1-.5.1-.7.3-.2.1-.3.2-.4.4 0 0 0 .1-.1 0s-.1-.1 0-.1c.1-.2.3-.3.5-.4.1-.1.2-.1.3-.1-.3 0-.6-.1-.9-.1-.1 0-.1.1-.2.1l-.2.2s-.1.1-.1 0v-.1c.1-.1.1-.2.2-.2-.2 0-.5 0-.7-.1l-.2.2c0 .1-.1.1-.1.2 0 0 0 .1-.1 0-.1 0-.1-.1 0-.1 0-.1.1-.2.1-.2l.1-.1c-.3 0-.7-.1-1-.1-.1 0-.1.1-.2.1-.1.1-.1.1-.1.2 0 0-.1.1-.1 0-.1-.1-.1-.1 0-.1.1-.1.1-.2.2-.2l.1-.1c-.4 0-.7 0-1.1-.1h-1.1l.1.1.2.2v.1h-.1c0-.1-.1-.1-.1-.2l-.2-.2h-1l.1.1c.1.1.1.2.1.2s0 .1-.1.1-.1 0-.1-.1-.1-.1-.1-.2-.1-.1-.2-.2h-.7l.2.2v.1c-.1.1-.1 0-.1 0 0-.1-.1-.1-.2-.2l-.2-.2h-1c.1.1.2.1.4.2s.4.3.5.5v.1h-.1c-.1-.1-.2-.3-.4-.4-.2-.1-.5-.2-.7-.3h-.8c.1.1.1.2.2.3l.6.6s.1.1 0 .1c-.1.1-.1 0-.1 0l-.6-.6-.4-.4c-.6-.3-1-.4-1.7-.5-.5-.1-.9-.1-1.3-.3.1.3.2.5.3.7.1.2.3.4.6.5 0 0 .1 0 .1.1.1.5.2.9.5 1.2.1.2.3.3.5.5-.2-.2-.4-.5-.5-.8-.2-.4-.2-.9-.2-1.3 0 0 0-.1.1-.1s.1.1.1.1c0 .4 0 .8.2 1.2.2.4.4.7.8 1.1.1.1 0 .2-.1.2-.5-.1-.8-.4-1.1-.7-.3-.3-.4-.7-.5-1.2-.3-.1-.5-.3-.6-.5l-.3-.6c0 1.3.4 2.4 1.2 3.4.2.2.5.6.7.7.3.1.3.3-.1.3h-.3c.2.1.5.2.7.3.4.2.6.5.6.8 0 0 0 .1-.1.1s-.1 0-.1-.1c0-.3-.2-.5-.5-.7-.3-.2-.8-.4-1.2-.5h-1.4c.1.1.2.2.4.3.2.1.5.3 1 .4.3.1.5.2.7.3.2.1.4.3.5.5 0 0 .1.1 0 .1-.1.1-.1 0-.1 0-.1-.2-.3-.3-.5-.4l-.6-.3c-.5-.1-.8-.3-1-.4-.2-.1-.4-.3-.5-.4.5 1.2 1.3 1.7 2.4 2.1.1 0 .1 0 .2.1.3.1.5.1.8.2.3.1.5.1.8.1 0 0 .1 0 .1.1s-.1.1-.1.1c-.3 0-.5-.1-.8-.1-.2 0-.3-.1-.5-.1h-.3c-.7 0-1.3.6-1.3 1.4.3-.2.5-.4.8-.6.4-.2.7-.3 1.1-.2 0 0 .1 0 .1.1s-.1.1-.1.1c-.3-.1-.6 0-.9.2-.3.2-.6.4-1 .7-.1.4-.3.8-.6 1.1.2.1.3.2.5.2.3-.1.5-.2.8-.3.3-.1.6-.1.8-.1 0 0 .1 0 .1.1s0 .1-.1.1c-.3 0-.5.1-.8.1-.2.1-.4.2-.7.2.6.2 1.4 0 2-.2.2-.1.3-.1.4-.1.2-.1.3-.1.5-.2s.4-.1.5-.1c0 0 .1 0 .1.1s0 .1-.1.1c-.3 0-.4 0-.7.2 0 .1-.2.2-.4.3-.1.1-.2.1-.3.2-.3.2-.4.5-.6.8-.1.2-.2.4-.2.7l.6-.9c.3-.3.6-.6 1.1-.7h.1v.1c-.4.2-.7.4-1 .7-.3.3-.5.6-.7 1l-.1.2c.3-.3.7-.6 1-.9.4-.3.9-.4 1.3-.3 0 0 .1 0 .1.1s-.1.1-.1.1c-.3-.1-.7.1-1.1.3-.4.3-.7.6-1.1 1 .5.1 1.1 0 1.6-.2.3-.1.6-.4.7-.4l.2-.2.3-.3s.1-.1.1 0c.1.1 0 .1 0 .1l-.3.3-.3.3h-.1c-.2.2-.5.5-.5.7-.2.6-.1 1.1-.4 1.7.2-.1.4-.2.5-.4.2-.2.3-.4.4-.7.1-.3.3-.6.5-.8.2-.2.5-.4.8-.5 0 0 .1 0 .1.1s0 .1-.1.1c-.3.1-.5.2-.7.4-.2.2-.4.4-.5.7-.1.3-.3.5-.4.7-.1.1-.3.3-.5.4h.4c.2 0 .6-.2.8-.3.2-.1.4-.3.5-.6 0 0 0-.1.1 0 .1 0 .1.1 0 .1-.1.3-.3.5-.5.7l-.6.3c.5 0 .9-.1 1.4-.2.2-.1.3-.5.4-.6.1-.2.2-.3.3-.5.1-.2.3-.3.5-.4 0 0 .1 0 .1.1s0 .1-.1.1c-.2.1-.3.2-.4.3-.1.1-.2.3-.3.4 0 .2-.2.7-.2.9 0 .6-.1 1.2.1 1.8.2-.2.3-.4.5-.6.1-.3.1-.6.2-1v-1s0-.1.1-.1.1 0 .1.1v1c0 .3-.1.5-.1.8.2-.1.2-.1.2-.3.1-.2.2-.5.2-.7v-.7s0-.1.1-.1.1 0 .1.1c0 .2.1.5 0 .7 0 .2-.1.4-.2.6.2-.1.3-.2.5-.3v-.7c0-.2 0-.4.1-.6 0-.1 0-.1.1-.1s.1.1.1.1c0 .1-.1.3-.1.5v.7c0 .2.1.6.3.7.3.2.4.5.5.8.1-.4.1-.8.1-1.2 0-.4-.1-.8-.3-1.1v-.1h.1c.2.3.3.7.3 1.2 0 .4 0 .9-.1 1.4.3-.2 1.2-.7 1.1-1.7 0-.1 0-.2-.1-.2v-.1h.1c0 .1.1.2.1.3v.2s.1-.1.2-.1c.1.1.2.1.2.2-.1-.2-.1-.4-.1-.5 0-.3 0-.5.1-.7 0 0 0-.1.1-.1s.1.1.1.1c-.1.2-.1.4-.1.7 0 .2.1.5.2.7v.1l.2.2c0-.2 0-.5-.1-.8 0-.3 0-.7.1-1 0 0 0-.1.1-.1s.1.1.1.1c-.1.3-.1.6-.1 1 0 .3 0 .7.1 1 .2.2.3.4.4.6.2-.6.3-1.2.3-1.8 0-.2-.2-.7-.2-.9-.1-.2-.2-.3-.3-.5-.1-.1-.2-.3-.4-.3 0 0-.1 0 0-.1 0-.1.1-.1.1 0 .2.1.3.2.5.4.1.1.2.3.3.5.2 0 .2.5.4.6.4.2.9.3 1.3.3l-.6-.3c-.2-.2-.4-.4-.5-.7 0 0 0-.1.1-.1s.1 0 .1.1c.1.3.2.5.4.6.2.2.8.4 1.2.4-.2-.1-.3-.2-.5-.4s-.3-.4-.4-.8c-.1-.3-.2-.5-.4-.7-.2-.2-.4-.4-.7-.5 0 0-.1 0-.1-.1s.1-.1.1-.1c.3.1.5.3.8.5.2.2.4.5.5.8.1.3.2.5.4.7.1.2.3.3.5.4-.3-.6-.2-1.1-.3-1.7-.1-.4-.7-.8-.5-1 .1-.1.4.3.7.4.5.2 1 .4 1.6.3-.3-.4-.7-.8-1-1.1-.3-.3-.7-.4-1-.4 0 0-.1 0-.1-.1s0-.1.1-.1c.4-.1.8.1 1.2.4.3.3.6.5.9.9 0-.1 0 0-.1-.2-.2-.4-.4-.7-.6-1-.3-.3-.6-.6-.9-.8 0 0-.1 0 0-.1 0-.1.1-.1.1 0 .4.2.7.5 1 .8l.6.9c0-.2-.1-.5-.2-.7-.1-.3-.3-.6-.5-.9-.2-.2-.6-.4-.6-.6-.1 0-.1 0-.2-.1-.2-.1-.4-.1-.5-.2 0 0-.1 0-.1-.1s.1-.1.1-.1c.1 0 .3.1.5.2.1 0 .2.1.3.2.2 0 .4.2.6.2.6.3 1.3.4 2 .3l-.6-.3c-.2-.1-.5-.2-.8-.2 0 0-.1 0-.1-.1s.1-.1.1-.1c.3 0 .6.1.8.2.3.1.5.2.8.3.2.1.3 0 .5-.1-.4-.3-.5-.7-.6-1.1-.3-.3-.6-.6-.9-.8-.3-.2-.6-.3-.9-.2 0 0-.1 0-.1-.1s0-.1.1-.1c.4-.1.7 0 1.1.2.3.2.5.4.8.7v-.1c0-.8-.5-1.4-1.2-1.5-.2 0-.6 0-.5-.1 0-.2.3-.1.7-.2 1.2-.3 2-.8 2.6-1.9-.2.1-.3.2-.6.3-.3.1-.6.2-1.1.3-.2 0-.5.1-.6.2-.2.1-.4.2-.5.4 0 0-.1.1-.1 0-.1-.1 0-.1 0-.1.1-.2.3-.3.5-.4.2-.1.4-.2.7-.2.5-.1.8-.2 1-.3.2-.1.3-.2.4-.2-.4 0-.9 0-1.4-.1-.4.1-.9.3-1.2.4-.3.2-.6.4-.6.6 0 0 0 .1-.1.1s-.1-.1-.1-.1c0-.3.3-.6.7-.8.2-.1.4-.2.7-.3h-.3c-.3 0-.3-.2 0-.3.3-.1.6-.4.8-.6.8-1 1.3-2.1 1.5-3.3-.1.2-.2.4-.4.6-.2.2-.4.4-.7.5-.1.5-.3.9-.6 1.2-.3.3-.7.5-1.1.6-.1 0-.2-.1-.1-.2.4-.3.7-.6.9-1 .2-.4.3-.8.3-1.1 0 0 0-.1.1-.1s.1 0 .1.1c0 .4-.1.8-.3 1.2-.1.2-.3.5-.5.7.2-.1.4-.2.6-.4.3-.3.4-.7.5-1.1 0 0 0-.1.1-.1.3-.1.5-.2.6-.4.2-.2.3-.4.4-.7-.4.2-.9.2-1.4.2-1.4.6-1.9.7-2.5.9z"/><path fill="#F7DB17" d="M468.8 117.3c-2-.3-4-.5-6-.6-2-.1-4.1 0-6.1.1-.1 0 0 .1 0 .1 0 .1.1.1.4.1 1.9-.1 3.8-.1 5.7-.1 2 .1 4 .2 6 .5 0 .2.1-.1 0-.1z"/><path fill="#F7DB17" d="M456.7 116.6c2-.1 4-.2 6-.1s4 .3 6 .6l.1-.4h-.2c-.2 0-.4-.2-.3-.4 0-.2.2-.4.4-.4s.3.1.3.2l.2-.5c-2.1-.3-4.3-.5-6.4-.6-2.2-.1-4.3-.1-6.5.1l.2.5c.1-.1.2-.2.3-.1.2 0 .4.2.4.4s-.2.4-.4.4h-.1v.3zm9.1-.9c-.2 0-.4.1-.4.4 0 .2.1.4.4.4.2 0 .4-.1.4-.4 0-.2-.2-.4-.4-.4zm0 .2c-.1 0-.2.1-.2.2s.1.2.2.2.2-.1.2-.2-.1-.2-.2-.2zm-3.2-.4c-.2 0-.4.1-.4.4s.1.4.4.4c.2 0 .4-.1.4-.4 0-.2-.2-.4-.4-.4zm0 .2c-.1 0-.2.1-.2.2s.1.2.2.2.2-.1.2-.2-.1-.2-.2-.2zm-3.1-.2c-.2 0-.4.1-.4.4s.1.4.4.4c.2 0 .4-.1.4-.4s-.2-.4-.4-.4zm0 .2c-.1 0-.2.1-.2.2s.1.2.2.2.2-.1.2-.2-.1-.2-.2-.2z"/><path d="M462.9 113.3c0-.2-.1-.4-.3-.5-.1-.1-.3-.2-.5-.3-.1 0-.1-.2 0-.2.2-.1.3-.2.5-.4.1-.2.3-.5.3-.7 0-.1.2-.1.2 0 0 .3.1.5.3.6.2.2.4.3.6.4.1 0 .1.2 0 .2-.2 0-.3.1-.4.2-.2.2-.3.4-.3.6-.3.3-.4.2-.4.1zm.1-.3c.1-.2.2-.3.3-.4.1-.1.2-.2.3-.2-.1-.1-.3-.2-.4-.4-.1-.1-.1-.2-.2-.4-.1.2-.1.3-.2.5l-.3.3c.1.1.3.1.4.3-.1.1 0 .2.1.3zM464.8 128.2l-1.5.6c-.1 0-.1 0-.1-.1s0-.1.1-.1l1.5-.6c.1 0 .1 0 .1.1s-.1.1-.1.1zm.2-.9l-1.8.9s-.1 0-.1-.1 0-.1.1-.1l1.8-.9h.1c0 .1-.1.1-.1.2zm-5.4-.4l1.8 1s.1.1 0 .2-.1.1-.2 0l-1.8-1s-.1-.1 0-.2.1-.1.2 0zm.1.9l1.5.7c.1 0 .1 0 .1.1s-.1.1-.1.1l-1.5-.7s-.1 0-.1-.1 0-.1.1-.1zm.6 1.3c.4.1.8.2 1.1.1.3 0 .5-.2.6-.4l.1-1.5c-.3 0-.6-.1-.9-.2-.3-.1-.5-.3-.6-.5-.1-.3-.1-.7 0-1 0-.1 0-.1.1-.1s.1.1.1.1c-.1.2-.1.6 0 .8.1.2.2.3.4.4.3.1.6.1.9.1.3 0 .6 0 .9-.1l.6-.3c.1-.2.2-.3.2-.5 0-.1-.1-.2-.1-.2-.1-.1-.2-.1-.4-.1H462.7c-.1 0-.1 0-.1-.1s0-.1.1-.1h.7c.2 0 .4.1.5.2.1.1.2.2.2.4s-.1.5-.2.7c-.2.2-.4.3-.7.4-.2.1-.5.1-.8.1l-.1 1.4c.1.2.3.4.5.4.3.1.7 0 1.1-.1.1 0 .1 0 .1.1s0 .1-.1.1c-.4.1-.8.1-1.2.1-.3-.1-.5-.2-.6-.4-.2.2-.4.3-.7.4-.3 0-.7 0-1.1-.1-.1 0-.1 0-.1-.1h.1zm1 .7h1.2c.1 0 .1 0 .1.1s-.1.1-.1.1h-1.2c-.1 0-.1 0-.1-.1s.1-.1.1-.1zM463.4 120.7c.5-.4.9-.6 1.3-.8.4-.2.8-.3 1.1-.3.1 0 .1 0 .1.1s-.1.1-.1.1c-.3 0-.6.1-1 .3-.4.2-.8.5-1.2.8 0 0-.1.1-.2 0s0-.1 0-.2zm-1.8.1c-.4-.4-.9-.7-1.3-1-.4-.2-.8-.4-1.1-.3-.1 0-.1 0-.1-.1s0-.1.1-.1c.3 0 .7.1 1.2.4.4.2.9.6 1.3 1 0 0 .1.1 0 .2l-.1-.1zm-.7 3c.1-.2.3-.4.4-.6l.5-.5s.1-.1.2 0 0 .1 0 .2c-.2.1-.3.3-.5.5s-.3.4-.4.6c0 0 0 .1-.1.1-.2-.2-.1-.3-.1-.3zm1.3-5.1c.1.2.2.4.3.7.1.2.1.5.1.8v.7c0 .3-.1.5-.3.7-.1.2-.3.3-.5.3h-.5c.1.3.1.6 0 .9 0 .1-.1.1-.2 0s-.2-.1-.4-.2c-.1-.1-.2-.1-.4-.2-.3-.1-.5-.2-.7-.4-.2-.1-.3-.2-.4-.4-.1-.1-.2-.3-.2-.5v-.5c-.2-.1-.4-.2-.6-.4-.2-.1-.3-.3-.5-.4 0 0-.1-.1 0-.2s.1 0 .2 0c.1.1.3.2.4.4.2.1.4.3.6.4.4.1.7.2 1.1.4l.9.6s.1 0 .1.1l.1.1c.1.1.3.1.4.1.1 0 .3-.1.4-.2l.3-.6v-.7c0-.3 0-.5-.1-.8l-.3-.6s-.1-.1 0-.2c.1 0 .2.1.2.1zm-1.2 3.1l-.9-.6c-.3-.2-.6-.3-.9-.3v.4c0 .2.1.3.2.4.1.1.2.2.4.3.2.1.4.2.7.3.1.1.3.1.4.2.1 0 .2.1.3.1-.1-.2-.1-.5-.2-.8zm2.4-2.9l-.3.6c-.1.2-.1.5-.1.8v.7c0 .2.1.4.2.6.1.1.2.2.4.3h.5s.1 0 .1-.1l.1-.1c.3-.2.6-.4 1-.5.4-.2.7-.3 1.1-.3l.6-.3c.2-.1.3-.2.5-.3 0 0 .1-.1.2 0s0 .1 0 .2c-.1.1-.3.2-.5.4l-.6.3c0 .2 0 .4-.1.5-.1.2-.1.4-.3.5-.1.1-.3.2-.5.4-.2.1-.4.2-.7.3-.1 0-.3.1-.4.1-.1.1-.3.1-.4.2-.1 0-.1 0-.1-.1-.1-.3 0-.6.1-.9h-.5c-.2-.1-.4-.2-.5-.4-.2-.2-.2-.5-.3-.7v-.7c0-.3.1-.6.1-.8.1-.2.2-.5.4-.6 0 0 .1-.1.2 0-.2-.2-.2-.2-.2-.1zm2.7 2.2c-.3 0-.6.1-.9.3-.3.1-.6.3-.9.5v.1c-.1.3-.2.5-.1.8.1 0 .2-.1.3-.1.1-.1.3-.1.4-.1.3-.1.5-.2.7-.3.2-.1.3-.2.4-.3.1-.1.2-.2.2-.4-.2-.2-.1-.4-.1-.5z"/><path d="M465.1 121.2c-.4 0-.6.3-.7.6 0 .4.3.7.6.7.4 0 .7-.3.7-.6 0-.4-.2-.7-.6-.7zm0 .2c-.2 0-.4.2-.5.4s.2.4.4.5c.2 0 .4-.2.5-.4 0-.3-.2-.5-.4-.5zm0 .2c-.1 0-.3.1-.3.2s.1.3.2.3.3-.1.3-.2c0-.2-.1-.3-.2-.3zm-5-.6c.4 0 .6.3.6.7 0 .4-.3.6-.7.6-.4 0-.6-.3-.6-.7 0-.3.3-.6.7-.6zm0 .2c.2 0 .4.2.4.5s-.2.4-.5.4c-.2 0-.4-.2-.4-.5s.2-.4.5-.4zm0 .2c.1 0 .3.1.2.3 0 .1-.1.3-.3.2-.1 0-.3-.1-.2-.3 0-.1.1-.2.3-.2z"/><path fill="#171796" d="M533.9 118.6l-24.1-27.4-31.5 18.1-5.3 63.9c15.4 1.3 30.5 3.8 45.1 7.6l15.8-62.2z"/><path d="M484.5 122.5c1.1-.3 2.2-.3 3.2.3.5.2.8.4 1 .7.5-.4 1-.7 1.5-1 .7-.5 1.5-1 2.2-1.3 1.1-.6 2.3-.9 3.4-1 1.2-.2 2.4-.2 3.6-.1 1 .1 2 .3 2.9.9.8.4 1.7.8 2.5 1.2.9.5 1.8.9 2.6 1.3 1.1.4 2.4.6 3.7.6.7 0 1.3 0 1.9-.1.5-.1.8.2.3.5-4.1 2.5-7.4.3-10.2-.7 1 .7 1.9 1.4 2.7 2.1 1.1 1 2.2 2 4.3 3 1.3.6 2.6 1 4.4 1 .6 0 1.2 0 1.9-.1.4-.1.5 0 .5.2 0 .1 0 .4-.2.5-1.1.7-2.1.9-3.2 1-2.1.1-4.4-.6-6.5-1.7-1.7-.9-2.8-2-4.1-3-1.3-1-2.5-1.5-3.7-1.8-1.2-.3-2.5-.2-3.6.1.3.1.6.2.8.4.6.3 1.3.5 2.4.6.6.1.4.4-.5.9-.5.7-1.2 1-2.1.9-1.2.8-1.7.3-2.1-.2-.1.3-.1.7-.3 1 .1.2.1.4 0 .5.2.3.3.6.2.9 0 .2.1.3.3.5.3.2.4.5.5.8 0 .2.1.4.3.6.2.2.5.4.7.7.7.3 1.1.8 1.2 1.6.6.2.8.6.9 1.1.3.1.6.3.8.6 1.1 0 2.2 0 3.3.1 1 .1 1.8.7 2.5 1.5.5.1 1 .1 1.5 0 .5-.2 1.1-.4 1.6-.4 1-.1 2-.1 2.9.1.6.2 1.1.5 1.5.9.6.7 1.5.6 2.2.2 1-.4 1.9-.4 3 0 .5-.2.9-.3 1.4-.2.4-.4.8-.5 1.2-.5.7 0 1.2.1 1.1 1 0 .2-.2.5-.4.6-.3.7-.9.9-1.7.8-.1.5-.3.8-.6 1 .4 1.1 0 1.5-.8 1.5-.2.3-.4.5-.8.4-.3.4-.7.6-1.1.6 0 .3.2.4.4.7.5.8-.3 1.2-1 1.2.2.5.2 1.1.1 1.6.8.5.9 1 .2 1.4.5.9.3 1.6-.7 2.1 0 .5-.1 1-.4 1.3-.2.2-.6.2-.3.6.4.7.3 1.5-.3 1.5-.1 0-.2 0-.2.2 0 .1-.1.1-.2.2-.7.4-1.4.8-2 1.3-.1.1-.2.1-.3 0-.4 1-1.3 1.9-2.2 2.9-.1.7-.5 1.2-1.2 1.5 0 .2-.2.4-.4.4.4.4.5.8.2 1.2-.4.5-1 1-1.6 1.1-1.3.3-2 .3-2.5-.2-.4-.4-.3-.7 0-.9-.8.1-.9-.3-.9-.9 0-.3.1-.2.4-.2.4 0 .8-.2 1.2-.3.2-.3.4-.5.6-.7.1-.9.7-1.4 1.4-1.6.6-.2 1.2-.8 1.8-1.6.3-.6.7-1.2 1-1.8-.2-.3-.3-.6-.3-1-.3-.2-.5-.4-.7-.6-.5 0-.8-.3-.8-.6-.1 0-.3 0-.4-.1-.3.2-.5.3-.9.3-.4.5-.9.8-1.4 1.1-.2.5-.5.6-.9.7-1.1.1-1.8 1.5-2.4 2.1-.2.2-.4.5-.5.9-.1.7-.2 1.3-.6 1.3-.4 0-.4-.1-.4-.1h-.5c.3.3.3.7.1 1.1-.3.4-.7.5-1.1.5-.8.1-1.4 0-2-.3-.6-.2-.6-.6-.6-.9-.4-.2-.5-.4-.5-.6.1-.2.3-.4.6-.3.2-.1.5-.2.7-.2.7-.8 1.5-1.4 2.3-1.8.2-.3.5-.6.8-.8.1-.7.6-1.2 1.1-1.8 0-.3.1-.5.3-.8v-.4c-.2-.4-.4-.9-.2-1.4-.1-.2-.1-.5-.1-.7-1.3.8-1.8.5-1.9-.1-.5.4-1 .6-1.3 0-.5.1-1 .3-1.4.1-.3.1-.6.2-1 .3-.1.3-.3.6-.6.9 0 .6-.2 1.2-.6 1.8-.2.6-.5 1.3-.9 1.9 0 .2 0 .4-.1.6.1.7-.1 1.1-.6 1.3-.1.3-.3.6-.5.9v.3c.2.4.2.9-.3 1.3-.4.2-.7.5-1.1.6-.4.2-.9.1-1.2 0-.7-.2-.6-.5-.5-.7-.2.1-.4.1-.7 0-.2-.1-.3-.2-.4-.3-.1-.3-.2-.5.2-.7.4-.2.7-.3 1.1-.7.1-.3.3-.5.5-.5.2-.5.5-.8.8-.9.3-.6.5-1.3.9-1.8.1-.2.2-.4.1-.6 0-.2 0-.3.1-.4.1-.1.2-.1 0-.2-.2-.5-.1-1 .2-1.4.3-.5.7-1.8.4-2.4-.1-.3-.1-.7-.1-1.1-.1 0-.2 0-.3-.1-.3-.2-.5 0-.7.3-.2.4-.3.7-.5.7-.1 1-.7 1.8-1.2 2-.1.5-.2.9-.1 1.4.1.5 0 .9-.2.9-.3.1-.5.2-.7.6 0 .1-.1.3-.1.4.4.4.3.8-.1 1.2-.8.8-1.8.7-2.8.4-.7-.3-.9-.6-.8-.9-1.1-.1-.8-.9 0-1.1.9-.3 1.7-.9 2.3-1.7.1-1 .3-1.7.8-1.8.1-.6.2-1.2.5-1.7s.4-1 .3-1.7c-.6-.4-.6-.7-.1-1.1.2-.1.2-.2-.1-.3-.4 0-.3-.4-.3-.7 0-.2-.1-.3-.3-.3-.8-.1-.6-.4-.3-.8.1-.2.2-.4.1-.5-.1-.1-.2-.3-.2-.6-.5-.4-.3-.7 0-1.1-.3-.2-.4-.6-.4-1-.9 0-1.2-.5-.7-1.2.2-.3.5-.6.8-.8.2-.3.4-.7.3-1-.3-.7.6-1.1 1.3-1.7-.1-.2-.1-.3-.2-.5-.4-.4-.3-.7.1-1.1-.1-.2-.1-.3-.2-.5-1 .2-1-.4-.5-1.3-.6-.3-.4-.9.6-1.8 0-.2.1-.4.1-.5-.5 0-.9.2-1.2.4-.4.3-.8.2-1.2.1-.1-.2-.3-.4-.5-.5-.3-.2-.3-.5-.3-.8-1.2.1-1.4-.8-.7-1.3.4-.3.7-.6.8-1 .3-.8 1-1.3 1.6-1.9 0-.2.1-.5.1-.7-.3-.2-.6-.3-.9-.4-.1-.3-.3-.6-.7-.8-.2-.1-.3-.3-.2-.5-.3.1-.2-.3 0-.6z"/><path fill="#F7DB17" d="M505.5 152.4h-.2c-.3.3-.7.6-1 .9-.3-.3-.7 0-.3.2-.1.1-.1.1-.2.1-.1.4-.3.5-.7.6h-.2v-.4c0-.2 0-.4.1-.5v-.1c-.1 0-.1 0-.1.1 0 .2-.1.4-.1.5v.5c-1 .3-1.6 1.4-2.3 2.1-.3.3-.5.6-.6 1-.1.2-.1 1.1-.3 1.1h-.3c-.1-.2-.3-.2-.4 0h-1.2c-.3.3.5.2.8.4.2.1.2.3.2.6-.3.8-2.3.6-2.9.2-.3-.2-.3-.3-.3-.6h.4c.2 0 .5-.1.7-.2.1 0 .1-.1.1-.2-.1-.1-.1-.1-.2-.1-.2.1-.4.2-.6.2h-.6c-.1-.1-.2-.1-.2-.2s.2 0 .3 0l.9-.3c.7-.7 1.4-1.4 2.3-1.8.3-.3.6-.6 1-.8.1-.8.5-1.2 1.1-1.8l.3-.9v-.5c-.2-.4-.4-.8-.2-1.3-.1-.3-.1-.6-.1-.9v-.2c.2-.1.4-.3.6-.4.2-.1.3-.2.5-.3v1c-.1.1-.2.2-.2.3-.1.1-.1.2-.1.3 0 0 0 .1.1.1s.1 0 .1-.1 0-.2.1-.3c.1-.1.1-.2.2-.3.3 0 .6-.2.9-.4.3-.2.6-.5.8-.8v1.3c-.3.2-.5.5-.7.9v.1h.1c.2-.3.4-.6.6-.8.1 0 .1 0 .1-.1l.1-.1c.3-.2.6-.4 1-.6-.1.4-.1.8 0 1.1.1.7.2 1.1.6 1.4z"/><path fill="#F7DB17" d="M486.2 141.2l.2-.2c.1-.3.3-.5.4-.7.2-.3.4-.5.6-.7h.1v.1c-.2.2-.4.5-.6.7-.1.2-.3.5-.4.7 0 .1.1.2 0 .2 0 .4.1.6.3.9h.1c.1-.2.2-.3.3-.5.2-.2.3-.3.6-.4.2-.1.3-.3.4-.4.1-.1.2-.3.2-.4 0 0 0-.1.1 0 .1 0 0 .1 0 .1-.1.2-.1.3-.3.4-.1.1-.2.3-.4.4-.2.1-.4.3-.5.4-.1.1-.2.3-.3.4.1.1.1.3 0 .4-.3.4-.6.6-.1.9 0 .3.1.5.2.6.1.1.1.5-.2.9-.3.3-.1.2.2.2h.1c.1-.2.2-.4.3-.5.1-.2.3-.3.4-.5.2-.2.4-.4.5-.6.1-.2.2-.4.2-.6 0 0 0-.1.1-.1s.1 0 .1.1c0 .2-.1.5-.2.7-.1.2-.3.5-.5.7l-.4.4c-.1.2-.2.3-.3.5.3.2.2.6.3.9h.2c.1-.1.1-.2.2-.3l.3-.5s0-.1.1 0c.1 0 0 .1 0 .1l-.3.5c-.1.1-.1.2-.2.3.2.2.2.5 0 .7-.5.4-.4.5.1.8.1.4.1.8 0 1.2v.8s0 .1-.1.1-.1 0-.1-.1v-.4-.1c0 .1 0 .1-.1.2-.3.7-.7 1.3-.7 2.1-.8.2-.7 1-.7 1.7-.6.8-1.4 1.5-2.4 1.9-.2.1-.6.2-.7.4 0 .1.3.3.5.2.6-.5.8-.2.2.3-.1.1 0 .2.1.3.6.5 2 .7 2.7.3.5-.3.7-.6.3-1.1 0-.7.3-1.3 1-1.5.1-.1.1-.4 0-.6-.1-.6 0-1.1.2-1.6 0-.1.1-.1.2-.2.3-.1.8-.8.9-1.5 0-.2.1-.3.1-.5 0-.3.1-.3.3-.1.1-.2.1-.3.2-.4.3-.4.7-.7 1.1-.5-.1-.3-.2-.7-.2-1 0-.4 0-.9.1-1.3 0-.1 0-.1.1-.1.1-.3.3-.6.4-.9.1-.3.3-.6.4-.9 0 0 0-.1.1 0 .1 0 0 .1 0 .1-.1.3-.3.6-.4.9-.1.3-.3.6-.4.9.1 0 0 .1 0 .1-.1.4-.2.8-.1 1.2 0 .4.1.9.3 1.2v.1c.2.1.2.2.2.4s0 .4.1.7c.4.8 0 2.1-.4 2.7-.2.3-.3.7-.2 1 .3.2.1.5-.1.7v.2c0 .3-.1.5-.2.7-.3.6-.6 1.3-.9 1.9-.5.1-.6.4-.8.9-.3.1-.3.2-.4.4-.3.3-.7.5-1.1.7-.4.2 0 .3.2.5s.5-.2.7-.5c.2-.3.4-.2.3 0-.1.3-.3.6-.3.8-.1.2.7.4.9.4.5 0 1.1-.5 1.5-.7.3-.3.3-.6.1-1-.2 0-.4 0-.6-.1-.2-.1-.5-.1-.7-.2 0 0-.1 0 0-.1 0-.1.1 0 .1 0 .2.1.5.2.7.2.2 0 .4.1.6.1v-.3c.3-.3.4-.6.6-1 .5-.3.6-.5.5-1.1.1-.2.1-.4.1-.6.4-.6.7-1.3.9-2 .4-.6.6-1.1.6-1.8 0-.3.1-.4.3-.4.1-.2.3-.4.4-.6h.1c0-.2.1-.3.1-.4.1-.1.1-.2.2-.3.1-.2.1-.4.1-.6 0-.2-.1-.4-.2-.6-.1-.1-.1-.2-.1-.2 0-.1 0-.2.1-.3h.1v.1c-.1.1-.1.1 0 .1 0 .1.1.1.1.2.1.2.2.4.2.6 0 .2 0 .4-.1.6-.1.1-.1.1-.2.3 0 .1-.1.2-.1.4.3 0 .6-.1.9-.2.1-.1.3-.3.4-.5.1-.2.2-.4.2-.7 0 0 0-.1.1-.1s.1 0 .1.1c-.1.3-.1.5-.3.8-.1.2-.2.3-.3.5.5.1.9 0 1.3-.1-.1-.6-.1-1.1 0-1.5.1-.4.2-.7.4-.9 0 0 0-.1.1 0v.1c-.2.2-.3.5-.4.9-.1.4-.1.8 0 1.4.2.3.3.6.7.3.1-.1.3-.2.4-.3 0 0 0-.1.1-.1.4-.4.7-.8 1.1-1.1.4-.3.7-.6 1.1-.8h.1v.1c-.4.2-.7.5-1.1.8-.3.3-.6.6-1 .9v.3c0 .4.1.7.7.5.3-.1.4-.1.7-.3.2-.1.3-.2.4-.2.2-.2.4-.3.6-.4.2-.1.4-.3.6-.4 0-.2.1-.5.2-.7.2-.6.5-1.1.9-1.6.3-.2.6-.4.8-.6.2-.2.4-.5.5-.8 0 0 0-.1.1 0 .1 0 0 .1 0 .1-.1.3-.3.6-.5.9-.2.3-.5.5-.9.7-.4.5-.7 1-.9 1.5-.1.2-.1.4-.1.6v1.1c.3 0 .6-.2.8-.4.3-.2.6-.6.9-.9.1-.2.2-.5.3-.6.1-.2.3-.3.5-.4h.1v.1c-.2.1-.3.2-.4.4l-.3.6v1.4c.3-.3.7-.5 1.2-.6 0 0 .1 0 .1.1-.1.4-.1.8 0 1.2.1.4.2.7.5 1 .1-.2.3-.4.4-.6l.2-.2c.1-.1.2-.2.4-.3l.3-.3.3-.3h.1v.1l-.3.3-.3.3-.3.3V152.9c.3.1.4.1.7.1.1.5.1.6.6.6v-.6c0-.2.1-.4.1-.6 0 0 0-.1.1 0 .1 0 .1.1 0 .1-.1.2-.1.4-.1.6v.6c.2.4.4.6.8.8.1-.2.2-.4.2-.5.1-.2.1-.4.1-.6 0 0 0-.1.1-.1s.1 0 .1.1c0 .2 0 .4-.1.6l-.3.6c0 .2.1.4.1.6.1-.1.1-.3.2-.4.1-.2.2-.3.3-.5h.1v.1c-.1.1-.2.3-.3.4-.1.1-.2.3-.2.5 0 .1.1.2.2.2-.8 1.3-1.6 3.1-3.1 3.7-.8.3-1.1.7-1.3 1.5-.3.2-.5.5-.7.8-.5.2-1 .4-1.5.4 0 .4.1.5.5.5.7-.3.8-.4.9-.4.1.1-.1.6-.7.9-.1.1-.1.1 0 .2.5.7 1.7.5 2.4.3.5-.1 1.3-.7 1.6-1.2.1-.2-.1-.5-.3-.7-.9.1-.8-.8 0-.4.3-.1.3-.1.4-.4.7-.3 1-.6 1.2-1.4.7-.8 1.5-1.6 2-2.5.1-.2.2-.5.2-.7.1-.2.2-.3.2-.5s.1-.4.1-.6c0 0 0-.1.1-.1s.1 0 .1.1c0 .2 0 .4-.1.6 0 .2-.1.3-.2.5 0 .1.1.2.2.2.6-.5 1.3-.9 2-1.3 0-.3.2-.4.5-.4.1 0 .2 0 .2-.1.2-.4 0-.7-.2-1-.2-.5.1-.6.5-.9.3-.2.3-.9.3-1.3v-.2c0-.1-.1-.3-.1-.4v-.1h.1c0 .1.1.3.1.4v.2c.3-.2.6-.4.8-.7.1-.4-.1-.8-.3-1.1-.1 0-.2.1-.2.1-.2.1-.3.1-.5.2h-.1v-.1c.2-.1.3-.1.5-.2.1-.1.3-.1.4-.2.1-.1.3-.2.4-.3.2-.3-.4-.6-.6-.8-.3-.3-.6-.6-.9-.8v-.1c0-.1.1 0 .1 0 .3.3.6.5.9.8 0-.5.1-.9-.1-1.4 0-.2-.1-.3-.2-.5-.3-.1-.4-.3-.6-.5-.1-.2-.2-.4-.2-.6 0 0 0-.1.1-.1s.1 0 .1.1c0 .2.1.4.2.6.1.2.3.3.5.4.3.1.8.1 1.1-.1.4-.2-.1-.7-.3-1-.1-.2-.1-.4-.2-.7h.1l-.2-.2c-.1-.1-.2-.1-.2-.1s-.1 0 0-.1c0-.1.1-.1.1 0 .1 0 .2.1.3.2.1.1.2.2.2.3h.1c.4-.1.7-.3.9-.6-.1-.2-.3-.3-.5-.5s-.4-.3-.5-.5v-.1c0-.1.1 0 .1 0 .2.1.4.3.5.5l.5.5v.1c.4 0 .5 0 .7-.4 0-.2-.1-.3-.2-.5s-.2-.3-.4-.5v-.1h.1c.2.2.3.3.4.5.1.2.2.3.3.5.2 0 .4 0 .5-.1.3-.2.1-.9 0-1.2l-.1-.1c-.1-.1-.2-.1-.2-.2 0 0-.1 0 0-.1 0-.1.1 0 .1 0 .1.1.2.1.2.2.1 0 .1.1.2.1 0 0 .1 0 .1-.1.3-.2.3-.5.4-.7.1-.4.1-.2.6-.3.5-.1.8-.1 1.1-.8.2-.1.3-.2.3-.4.1-.4 0-.6-.4-.6-.6 0-1 .1-1.4.5.1.1.1.2.2.2v.1h-.1c0-.1-.1-.2-.2-.2-.5-.1-1 0-1.5.2 0 0-.1 0-.2-.1.1.1.2.3.3.4.1.2.1.4.1.5 0 0 0 .1-.1.1s-.1 0-.1-.1c0-.2 0-.3-.1-.5s-.2-.4-.4-.6c-.4-.2-.8-.2-1.2-.2l.2.2c.1.1.2.2.3.2v.1h-.1c-.1-.1-.2-.2-.3-.2-.1-.1-.2-.2-.3-.2-.3 0-.7.1-1.1.3-.2.1-.5.2-.7.2.2.2.3.4.4.6.1.2.2.5.3.7v.1h-.1c-.1-.3-.2-.5-.3-.7s-.3-.4-.4-.6v-.1h-.7l.3.4v.1h-.1l-.2-.5c-.2 0-.4-.1-.6-.2.1.2.1.5.1.8 0 .4.1.7.1 1.1 0 0 0 .1-.1.1s-.1 0-.1-.1c0-.4 0-.8-.1-1.1 0-.3-.1-.6-.2-.9-.1-.1-.2-.2-.3-.2-.2-.2-.5-.4-.7-.6v.3c0 .2-.1.4-.3.6 0 0 0 .1-.1 0-.1 0 0-.1 0-.1.1-.2.2-.3.2-.5v-.4c-.4-.2-.9-.3-1.3-.3.1.2.2.3.3.5l.3.6c.2.2.3.3.3.5.1.2.1.4.1.6 0 0 0 .1-.1.1s-.1 0-.1-.1c0-.2 0-.4-.1-.6-.1-.2-.1-.3-.3-.5l-.3-.6c-.1-.2-.3-.4-.4-.6h-.5l.1.1c.1.1.1.2.1.3 0 0 0 .1-.1.1s-.1 0-.1-.1 0-.2-.1-.3c0-.1-.1-.1-.1-.2-.3 0-.6 0-1 .1.3.4.6.8.8 1.3.2.5.4 1 .5 1.5 0 0 0 .1-.1.1s-.1 0-.1-.1c-.1-.5-.2-1-.5-1.5-.2-.5-.5-.9-.8-1.3-.3 0-.5.1-.8.1.1.1.2.1.3.2l.3.3v.1h-.1l-.3-.3c-.1-.1-.2-.2-.4-.3-.1 0-.3.1-.4.1-.1 0-.1.1-.2.1.2.2.4.3.6.5.2.2.5.5.7.8v.1h-.1c-.2-.3-.4-.6-.7-.8-.2-.2-.5-.4-.7-.6-.3.1-.5.1-.8.1.2.3.3.7.4 1 .1.4.2.7.2 1.1 0 0 0 .1-.1.1s-.1 0-.1-.1c0-.4-.1-.7-.2-1.1-.1-.4-.3-.7-.4-1-.2 0-.3 0-.5-.1.1.3.2.6.2.9.1.4.2.8.2 1.1 0 0 0 .1-.1.1s-.1 0-.1-.1c0-.4-.1-.8-.2-1.1-.1-.3-.2-.7-.3-1-.5-.5-1-1-1.6-1.3.1.2.2.3.3.5.1.3.2.6.2.9 0 0 0 .1-.1.1s-.1 0-.1-.1c0-.3 0-.6-.2-.8-.1-.2-.2-.5-.4-.7-.1 0-.3-.1-.4-.1-.4 0-.8-.1-1.2-.1.3.3.6.6.5.9 0 0 0 .1-.1.1s-.1 0-.1-.1c0-.3-.3-.6-.6-.9h-.8c.1.1.3.3.3.4l.3.6c0 .3.1.6.2.8.1.2.3.4.6.5 0 0 .1 0 0 .1 0 .1-.1 0-.1 0-.3-.1-.5-.3-.6-.5-.1-.2-.2-.5-.2-.8 0-.2-.1-.3-.2-.5s-.3-.3-.4-.5h-.8c.1.3.2.7.3 1 .1.4.1.9.1 1.3 0 0 0 .1-.1.1s-.1 0-.1-.1c0-.4 0-.9-.1-1.3s-.1-.7-.3-1h-.1c-.2-.3-.3-.4-.6-.5v.1c0 .1-.1.2-.1.3 0 0 0 .1-.1 0-.1 0 0-.1 0-.1.1-.1.1-.1.1-.2v-.1s-.1 0-.1-.1c-.1-.6-.3-.8-.7-1v.5c0 .2-.1.4-.2.6 0 0 0 .1-.1 0-.1 0 0-.1 0-.1.1-.2.2-.4.2-.6v-.5h-.1c-.1-.8-.3-1.2-1.1-1.5v.3c0 .2 0 .4-.1.5 0 0 0 .1-.1 0-.1 0 0-.1 0-.1.1-.2.1-.3.1-.5v-.5l-.6-.6c0 .3 0 .6-.1.9-.1.3-.3.7-.5 1 0 0 0 .1-.1 0-.1 0 0-.1 0-.1.2-.3.4-.7.5-1 .1-.3.1-.6.1-1-.1-.1-.2-.2-.2-.3 0 .1-.1.1-.1.2 0 0 0 .1-.1 0-.1 0 0-.1 0-.1 0-.1.1-.1.1-.2s.1-.1.1-.2v-.1c0-.2-.2-.4-.3-.6 0 .1-.1.2-.1.2-.1.1-.1.2-.2.4 0 0 0 .1-.1 0-.1 0 0-.1 0-.1.1-.1.2-.2.2-.3 0-.1.1-.2.1-.3-.1-.1-.1-.2-.2-.3 0 .1-.1.1-.1.2-.1.1-.1.2-.2.2h-.1v-.1c.1-.1.2-.1.2-.2.1-.1.1-.1.1-.2s.1 0 0-.2c.1-.4-.1-.6-.3-.9-.1 0-.2 0-.4.1l-.6.3h-.1v-.1c.2-.1.4-.3.6-.3.2-.1.4-.1.5-.1v-.3c-.6.2-1.1.3-1.4.3-.4 0-.7 0-.9-.1 0 0-.1 0 0-.1 0-.1.1 0 .1 0 .2.1.5.2.9.1.4 0 .8-.1 1.4-.3.1-.2.2-.5.3-.7-.2.1-.4.1-.6 0 0 0-.1 0-.1-.1s0-.1.1-.1c.2 0 .4 0 .7-.1v-.2c0-.3.3-.3.5-.1.2.2.3.4.5.5.4.2.8 0 1-.2-.1 0-.2-.1-.3-.1 0 0-.1 0 0-.1 0-.1.1-.1.1 0 .1 0 .2.1.3.1l.1-.1c.7.1 1.2-.1 1.7-.6h-1.1c-.4 0-.6-.1-.9-.2 0 0-.1 0 0-.1 0-.1.1 0 .1 0 .2.1.5.2.8.2.3 0 .8.1 1.2 0 0 0 .1-.1.1-.2l.6-.3c-.9-.1-1.7-.3-2.4-.7-.2-.2-.5-.3-.8-.4-.6-.1-1.2.1-1.7.3l-.4-.4c-.2 0-.4-.1-.6-.2h-.8s-.1 0-.1-.1 0-.1.1-.1h.8c.3 0 .5.1.7.2.8-.3 1.5-.5 2.1-.5.7-.2 1.4-.3 2.2-.3-.1-.1 0-.1 0-.2.4-.4.5-.8.4-1.1-.1-.3-.5-.7-1-1-.5.1-1-.1-1.6 0-.3 0-.7.1-1 .2.3.1.5.3.7.5.2.3.4.7.5 1.2 0 .1 0 .1-.1.1s-.1 0-.1-.1c-.1-.5-.2-.8-.5-1.1-.2-.3-.8-.5-.9-.5-.6.1-1.1.1-1.6.2-.4.1-.7.2-.9.4.4-.1.7-.1 1.1.1.3.2.6.4.7.9 0 .1 0 .1-.1.2-.1 0-.1 0-.2-.1-.1-.4-.4-.6-.6-.8-.5-.3-1.6 0-2 .3-.3.2-.5.4-.8.7 0 .1-.1.1-.2 0s-.1-.2 0-.2c.3-.3.5-.6.8-.8.3-.2.6-.3.8-.4.3-.3.7-.5 1.2-.7.5-.1 1.1-.2 1.6-.2-.2-.3-.4-.5-.6-.7-.3-.1-.6-.1-.9-.1-.7.2-1.3.6-1.9 1h.7c.1 0 .1 0 .1.2 0 .1-.4.1-.6 0h-.5-.1c-.7.4-1.2.9-1.8 1.4h-.1c-.5 0-.9.1-1.1.2-.2.2-.2.4-.2.7-.1.3-.2.6-.2 1-.6.5-1.3 1.1-1.6 1.9l-.3.6c.1 0 .2.1.3.1 0 0 .1 0 .1.1 0-.1 0-.3.1-.4 0-.2.1-.4.2-.5 0 0 0-.1.1 0 .1 0 0 .1 0 .1-.1.1-.1.3-.2.5s-.1.4-.1.6c0 .1-.1.1-.1 0s-.1-.2-.1-.3c-.1-.1-.2-.1-.3-.1l-.4.4c-.1.1-.2.2-.3.4 0 .3.3.3.7.4.8 0 .2.5.6.9.2.1.4.3.5.5.3.1.5.1.7 0 0-.5 0-.8.2-.8 0-.1 0-.1.1-.2 0-.1.1-.2.2-.3 0 0 0-.1.1 0v.1c-.1.1-.1.2-.2.3 0 .1 0 .1-.1.2v.5c.4-.2.8-.3 1.3-.3.8-1 1.2-.7.5 0 0 .1-.1.2-.1.2-.1.2-.2.4-.2.8-.2.2-1.2 1-.9 1.3.3 0 .4 0 .3.2-.1.3-.5.8-.4 1.1 0 .1.2.1.4.1.3-.2.6-.5.8-.8.3-.3.5-.6.7-1 0-.1.1-.1.1-.1l.3-.9c.1-.3.2-.6.4-.9 0 0 .1-.1.1 0 .1.2.2.3.3.4.1.1.2.1.3.1.1 0 .2 0 .3-.1l.3-.3s0-.1.1 0c.1 0 0 .1 0 .1-.1.2-.2.3-.4.4-.1.1-.2.1-.4.1-.1 0-.2 0-.4-.1l-.3-.3c-.1.3-.2.5-.3.8l-.3.9c.1.1 0 .1 0 .2-.2.4-.5.7-.8 1.1l-.7.7c0 .2.1.4.2.6.4-.4.9-.8 1.2-1.2.4-.4.7-.8.9-1.3 0 0 0-.1.1 0 .1 0 0 .1 0 .1-.1.2-.3.4-.4.7v.1s-.1.2-.1.4v.8s0 .1-.1.1-.1 0-.1-.1v-.9-.2l-.3.3c-.4.4-.8.8-1.3 1.2v.1c-.4.3-.7.4-.3.8.1-.1.3-.2.4-.3l.5-.3h.1v.1l-.5.3c-.2.1-.3.2-.5.3 0 .2 0 .3.1.5h.1c.3-.2.7-.5 1-.7h.1v.1c-.3.2-.6.5-1 .7l-.1.1c-.3.2-1.5.9-1.3 1.4.3-.1.5-.2.8-.3.3-.1.5-.3.8-.6h.1v.1c-.3.3-.5.5-.8.6v.2s0 .1-.1.1-.1 0-.1-.1v-.1-.1c-.2.1-.5.2-.7.3.1.5-.1.9-.4 1.2-.1.1-1.3 1-.8 1.3.8.2.9.3 1.1.3z"/><path fill="#F7DB17" d="M486.7 125.1c-.2-.1-.5-.3-.8-.4-.2-.3-.4-.5-.6-.7-.2-.1-.2-.1-.1-.3.2 0 .4-.1.4-.2.1 0 .2 0 .3.1.1 0 .2.1.3.2 0 0 0 .1.1 0 .1 0 0-.1 0-.1-.1-.1-.2-.2-.3-.2-.1 0-.3-.1-.5-.1-.1 0-.2-.1-.4-.1-.2-.2-.3-.3-.2-.6.1 0 .3.1.4.1.1 0 .2.1.2.2h.1v-.1c-.1-.1-.2-.1-.3-.2-.1 0-.2-.1-.3-.1 1-.2 1.9-.2 2.7.3.5.2.7.4.9.7-.1.1-.2.1-.2.2-.6 0-1 .1-1.3.3-.3.4-.4.7-.4 1z"/><path d="M506.1 152.2c-.2.1-.3.2-.5.2.1-.2.3-.5.4-.6 0 0 0-.1.1-.1v.5zM508.6 157.4c-.1.2-.3.4-.5.5-.2.2-.4.3-.6.5h-.1v-.1c.2-.1.4-.3.6-.4l.5-.5c0-.1 0-.1.1 0zM510.2 155.5c-.1.1-.2.2-.2.4 0 0 0 .1-.1 0-.1 0 0-.1 0-.1.1-.1.2-.3.2-.4l.1.1c.1-.1 0 0 0 0zM509.3 155.4c0 .2-.1.4-.2.5-.1.2-.3.3-.5.4h-.1v-.1c.2-.1.4-.2.5-.4.1-.1.2-.3.2-.5l.1.1c0-.1 0-.1 0 0zM510.9 153.4l-.2.2c0 .1-.1.2-.1.3 0 0 0 .1-.1 0-.1 0-.1-.1 0-.1 0-.1.1-.2.1-.3.1 0 .2-.1.3-.1 0-.1 0-.1 0 0 .1 0 0 0 0 0zM512.2 153.6c-.1.2-.1.4-.2.6l-.3.6s0 .1-.1 0c-.1 0 0-.1 0-.1.1-.2.2-.4.2-.5.1-.2.1-.4.2-.5.1-.2.1-.2.2-.1 0-.1 0-.1 0 0zM511.6 146c.4.6.5 1.2.5 1.8 0-.2.1-.4.2-.7.2-.2.3-.5.3-.7.1-.2.1-.5 0-.7 0 0 0-.1.1-.1s.1 0 .1.1v.8c-.1.2-.2.5-.3.7l-.3 1.2v.1c0 .1-.1.1-.1 0v-.1c0-.8 0-1.5-.5-2.3-.1-.1-.1-.1 0-.1 0-.1 0 0 0 0zM510.6 147.2V147.5s0 .1-.1.1-.1 0-.1-.1v-.1-.2h.2zM510.4 149c.1.3.2.7.2 1 0 .2.1.5.1.7l.1-.1c.1-.1.2-.2.4-.3h.1v.1c-.2.1-.3.2-.4.3-.1.1-.2.3-.2.4 0 .1-.1.1-.1 0 0-.4 0-.7-.1-1-.1-.3-.1-.7-.2-1-.1-.1-.1-.2.1-.1-.1-.1 0-.1 0 0zM511.7 149.6c.1.3.1.5.1.8v.7s0 .1-.1.1-.1 0-.1-.1v-.7c0-.2 0-.5-.1-.7.1-.1.1-.2.2-.1 0-.1 0 0 0 0zM512.9 149.4c0 .2.1.5.1.7 0 .2-.1.5-.2.7-.1.2-.1.5 0 .7 0 .2.1.5.2.7v.1h-.1c-.1-.3-.2-.5-.3-.8v-.8c.1-.2.1-.4.1-.6 0-.2 0-.4-.1-.7.2 0 .2-.1.3 0 0-.1 0-.1 0 0zM513.5 147.4c0 .1-.1.2-.1.4 0 .1-.1.2-.1.4 0 0 0 .1-.1 0-.1 0-.1 0 0-.1 0-.1.1-.2.1-.4 0-.1.1-.2.1-.4l.1.1c0-.1 0 0 0 0zM512.9 144.2c0 .1.1.2.1.3v.1h-.1c0-.1-.1-.2-.1-.3 0-.1 0-.2.1-.1 0-.1 0-.1 0 0zM513.2 141.7v1c-.1.1-.2.3-.3.5-.1.2-.1.4 0 .7 0 0 0 .1-.1.1s-.1 0-.1-.1c-.1-.3 0-.6 0-.8.1-.2.2-.4.3-.5v-.4-.5c.1 0 .1-.1.2 0 0-.1 0 0 0 0zM510.8 140.8c.4.2.7.5.9.9.2.3.4.7.3 1.1l-.1.1-.6-.3c.1.9.1 1.7-.1 2.2-.2.6-.6 1-1.2 1.2-.1 0-.1 0-.1-.1.1-.3.2-.7.2-1v-1s0-.1.1-.1.1 0 .1.1c.1.4.1.7 0 1.1 0 .3-.1.6-.2.9.5-.2.8-.6 1-1.1.2-.6.2-1.3.1-2.3 0-.1 0-.1.1-.1.2.1.4.2.7.3 0-.4-.1-.7-.3-1-.2-.3-.5-.6-.9-.8-.1 0-.2 0 0-.1-.1 0-.1 0 0 0zM517.2 139.6s0 .1-.1.1 0 .1-.1.1c0 0 0 .1-.1 0-.1 0 0-.1 0-.1s0-.1.1-.1v-.1c.1 0 .1 0 .2.1 0-.1 0-.1 0 0zM515.7 139.5c.1.1.2.1.3.2.1.1.1.2.2.3v.1h-.1c0-.1-.1-.2-.2-.2s-.2-.1-.3-.2c0 0 0-.1.1-.2-.1 0-.1 0 0 0zM513.4 140.2c.2.2.3.4.3.6.1.2.1.5 0 .8 0 0 0 .1-.1.1s-.1 0-.1-.1v-.7c.1-.3 0-.5-.1-.7-.1.1-.1 0 0 0 0-.1 0 0 0 0zM505.9 140.9v.6s0 .1-.1.1-.1 0-.1-.1v-.3-.3s0-.1.2 0zM507.3 140.2c0 .1.1.2.1.4v.2h-.1v-.1c0-.1-.1-.2-.1-.4-.1-.1-.1-.2.1-.1-.1-.1-.1-.1 0 0zM510.1 142.1v.4s0 .1-.1.1-.1 0-.1-.1v-.1-.1c.1-.2.1-.2.2-.2 0-.1 0 0 0 0zM511.1 139.9c.1.1.1.1.1.2v.2s0 .1-.1 0c-.1 0 0-.1 0-.1v-.1-.2c-.1.1-.1.1 0 0zM504.3 140.3c0 .2 0 .3.1.4 0 .1.1.3.2.4.2.2.2.3.3.5 0 .2 0 .3.1.5 0 0 0 .1-.1.1s-.1 0-.1-.1v-.5c0-.2-.1-.3-.2-.5-.1-.1-.2-.3-.3-.4-.1-.2-.1-.3-.1-.5-.1 0-.1 0 .1.1 0-.1 0-.1 0 0zM507 142.1c.2.3.2.6.3.9v.9c-.1.3 0 .7.2 1 .2.3.5.6.8.8-.1-.4-.2-.8-.2-1.1 0-.4.1-.8.4-1.2.1-.2.2-.3.3-.5.1-.2.1-.4.1-.5 0 0 0-.1.1-.1s.1 0 .1.1c0 .2-.1.4-.1.6-.1.2-.2.4-.3.5-.3.4-.4.8-.4 1.2 0 .4.1.8.2 1.3 0 .1 0 .1-.1.1-.4-.3-.8-.6-1-1-.2-.3-.3-.7-.2-1.1 0-.3.1-.6 0-.8 0-.3-.1-.5-.3-.8 0-.2 0-.3.1-.3zM505.9 143.8c0 .3-.1.6-.2.9-.1.2-.3.5-.5.7.1 0 .2-.1.3-.1.2-.1.3-.2.5-.3.1-.1.2-.2.4-.3.1-.1.2-.3.4-.4 0 0 0-.1.1 0 .1 0 0 .1 0 .1-.1.2-.3.3-.4.5l-.3.3v.5c-.1 0-.1 0-.1-.1v-.2-.1c-.2.1-.3.2-.5.3-.2.1-.4.1-.5.2-.1 0-.1-.1-.1-.1.2-.3.5-.6.6-.9.1-.3.2-.6.2-.9 0-.1 0-.1.1-.1zM504.6 143.7v.3s0 .1-.1.1-.1 0-.1-.1v-.3h.2z"/><path d="M503.7 142.1c.2.4.2.8.2 1.2-.1.4-.2.7-.5 1.1-.3.2-.5.5-.6.8-.1.2-.2.4-.2.6.1-.1.1-.2.2-.3.2-.2.4-.3.6-.4.3-.2.5-.3.8-.5.2-.2.5-.4.7-.6h.1v.1c-.2.2-.4.5-.7.6-.2.2-.5.4-.8.5l-.6.3c-.2.2-.3.4-.4.6 0 .1-.1 0-.1 0 .1-.4.2-.7.3-1 .1-.3.3-.6.6-.8.3-.3.4-.6.5-1 .1-.4 0-.7-.2-1.1 0-.1 0-.1.1-.1 0-.1 0-.1 0 0zM506.5 146.5c0 .1 0 .2.2.5 0 .1.1.1.1.2.2.3.3.7.3 1 0 .4-.1.7-.1 1.1 0 .1-.1.1-.1 0-.1-.4-.2-.8-.5-1.1-.3-.3-.6-.6-1-.9 0 0-.1 0 0-.1 0-.1.1 0 .1 0 .4.3.8.6 1 .9.2.3.4.5.4.8 0-.3.1-.5.1-.8 0-.3-.1-.7-.3-1 0-.1-.1-.1-.1-.2-.2-.3-.3-.4-.2-.6 0 .1 0 .1.1.2 0-.1 0 0 0 0zM507.7 146.4c0 .1.1.1.1.2s.1.1.1.2v.1h-.1c0-.1-.1-.1-.1-.2s-.1-.1 0-.3c-.2.1-.2.1 0 0-.1 0-.1 0 0 0zM509.1 146.9l-.3.9-.3.9s0 .1-.1 0c-.1 0-.1-.1 0-.1l.3-.9.3-.9.1.1c0-.1 0 0 0 0zM509.9 151.7V152h-.1v-.3s0-.1.1 0zM509.1 150.3c0 .2-.1.3-.1.5s-.1.3-.1.5c0 0 0 .1-.1 0-.1 0-.1 0 0-.1 0-.2.1-.3.1-.5s.1-.3.1-.5c-.1 0-.1 0 .1.1 0-.1 0 0 0 0zM507.8 150.3l.1.1v.1h-.1v-.2c-.1.1-.1.1 0 0zM506.4 149.6c0 .1-.1.2-.1.3 0 .1-.1.2-.1.3 0 0 0 .1-.1 0-.1 0-.1-.1 0-.1 0-.1.1-.2.1-.3 0-.1.1-.2.1-.3l.1.1c0-.1 0 0 0 0zM504.3 151.8c-.1.1-.1.2-.2.3 0 .1-.1.2-.1.3 0 0 0 .1-.1.1s-.1 0-.1-.1 0-.2.1-.3c.1-.2.2-.3.4-.3-.1-.1-.1-.1 0 0zM498.3 157.7c0 .1-.1.1-.1.2l-.2.2h-.1v-.1l.2-.2c0-.1.1-.1.1-.2 0 0 0-.1.1.1 0-.1 0-.1 0 0zM499.3 157.2c0 .1-.1.1-.1.2-.1 0-.1.1-.2.1h-.1v-.1c.1 0 .1-.1.2-.1l.1-.1c-.1-.1 0-.2.1 0 0-.1 0-.1 0 0zM500.5 156.4s0 .1-.1.1-.1.1-.1.1h-.1v-.1l.1-.1s0-.1.1-.1 0 0 .1.1zM502.4 151.6c-.1.2-.1.3-.1.5v.6c-.1 0-.1 0-.1-.1v-.6c0-.2.1-.4.1-.5-.1 0 0-.1.1.1 0-.1 0-.1 0 0zM503.6 138.7c0 .1 0 .3-.1.4-.1.1-.2.3-.3.4h-.1v-.1c.1-.1.2-.3.3-.4.1-.1.1-.3.1-.4l.1.1c0-.1 0-.1 0 0zM502.3 137.5c.1.2.2.4.2.6v.6s0 .1-.1.1-.1 0-.1-.1v-.6c0-.2-.1-.4-.2-.6.1.1.1 0 .2 0zM500.6 139.6c-.2-.2-.4-.3-.5-.5-.1-.2-.1-.4-.1-.5 0 0 0-.1.1-.1s.1 0 .1.1c0 .2 0 .3.1.5s.3.3.5.5h-.2c.1.1 0 .1 0 0zM502.5 142.9v.2s0 .1-.1.1-.1 0-.1-.1v-.2c.1-.1.1-.1.2 0 0-.1 0-.1 0 0zM500.1 140.4c.4.4.6.8.7 1.3.1.3.1.6.1.9.2-.1.3-.2.4-.5.1-.3.1-.6.2-1.1.1-.2.2-.4.3-.7.1-.2.1-.5.1-.7 0-.1.1-.1.1 0 .2.3.4.6.6 1 .2.3.3.7.3 1.1 0 0 0 .1-.1.1s-.1 0-.1-.1c0-.4-.1-.7-.3-1.1-.1-.3-.3-.6-.5-.8 0 .2 0 .3-.1.5s-.1.5-.3.7c0 .5-.1.8-.2 1.1-.1.3-.3.5-.5.5h-.1v.5s0 .1-.1.1-.1 0-.1-.1c0-.5 0-1.1-.1-1.5.2-.3 0-.7-.3-1.2-.1.1-.1.1 0 0-.1 0 0 0 0 0zM501.5 146.5c0 .2-.1.3-.1.5s-.1.3-.1.5c0 0 0 .1-.1.1s-.1 0-.1-.1c0-.2.1-.3.1-.5s.1-.3.1-.5c.1 0 .1-.1.2 0 0-.1 0 0 0 0zM498.8 147.7c0 .1 0 .3.1.4 0 0 0 .1-.1.1s-.1 0-.1-.1 0-.3-.1-.4c0 0 0-.1.2 0 0-.1 0-.1 0 0zM501.1 144.5c0 .3-.1.5-.2.7-.1.2-.2.5-.4.7-.2.3-.3.5-.4.8 0 .3 0 .6.1.9v.1h-.1c-.1-.3-.1-.6-.1-.9 0-.3.2-.6.4-.9.2-.2.3-.4.4-.7.1-.2.2-.5.2-.7h.1zM500.5 143.6c0 .2 0 .5-.1.7-.1.2-.3.5-.5.7-.2.2-.4.4-.5.6-.1.2-.2.4-.3.7 0 0 0 .1-.1 0-.1 0 0-.1 0-.1.1-.2.2-.5.3-.7.1-.2.3-.4.5-.6.2-.2.4-.5.5-.7.1-.2.1-.4.1-.7 0 .1 0 .1.1.1zM497.5 145c.1.5 0 .9-.2 1.3s-.5.7-.8 1h-.1v-.1c.3-.3.6-.6.8-.9s.2-.8.2-1.2c0-.1 0-.1.1-.1zM493.7 147.2c0 .1.1.2.1.2 0 .1.1.2.1.2v.1h-.1c0-.1-.1-.2-.1-.2 0-.1-.1-.2-.1-.2-.1-.1-.1-.1.1-.1-.1-.1 0-.1 0 0zM492.1 147.2c0 .3 0 .6.1.9.1.3.2.5.4.8.1.2.2.4.2.6 0 .1 0 .3.1.4.2-.2.3-.4.4-.6.1-.2.2-.5.2-.8 0 0 0-.1.1-.1s.1 0 .1.1c0 .3-.1.5-.2.8-.1.3-.3.5-.6.7h-.1c0-.2 0-.4-.1-.6 0-.2-.1-.4-.2-.6-.2-.3-.3-.6-.4-.8-.1-.3-.1-.6-.1-.9 0 .1 0 0 .1.1 0-.1 0 0 0 0zM492.3 152.4c0-.2 0-.3.1-.5 0-.2.1-.3.2-.5 0 0 0-.1.1 0 .1 0 0 .1 0 .1-.1.2-.1.3-.1.5s-.1.3-.1.5l-.2-.1c0 .1 0 0 0 0zM492.2 153.9c0-.2.1-.4.1-.6 0 0 0-.1.1-.1s.1 0 .1.1c0 .2-.1.4-.1.6h-.2zM491.2 156.3l.3-.3c.1-.1.2-.3.3-.4 0 0 0-.1.1 0 .1 0 0 .1 0 .1-.1.2-.2.3-.3.4-.1.1-.2.2-.4.2 0 .1 0 .1 0 0-.1 0-.1 0 0 0zM489.7 148.1v.2s0 .1-.1.1-.1 0-.1-.1v-.2h.2zM487.3 153.8v-.4s0-.1.1-.1.1 0 .1.1v.4h-.2zM493.4 143.8c-.1.4-.2.9-.2 1.3s.1.7.4.9c.3.2.4.5.6.8v.1c0-.1.1-.3.1-.5v-.5s0-.1.1-.1.1 0 .1.1v.6c0 .2-.1.4-.1.6 0 .1-.1.1-.1 0s-.1-.1-.1-.2c-.1-.3-.2-.6-.5-.7-.3-.2-.4-.5-.4-1 0-.4.1-.9.2-1.3l-.1-.1c0-.1 0-.1 0 0zM493 142.1v1c-.1.3-.2.6-.3 1-.2.4-.2.8-.2 1.2 0 .4.1.8.3 1.2v.1h-.1c-.2-.4-.3-.9-.3-1.3s.1-.9.2-1.3l.3-.9c.1-.3.1-.6 0-.9 0-.1-.1-.1.1-.1zM490.1 146.2c-.1.2-.1.4-.1.6 0 .2.1.4.2.6v.1h-.1l-.3-.6c0-.2 0-.4.1-.7.1-.1.1-.1.2 0 .1-.1.1-.1 0 0zM488.9 145.7v.4c0 .1 0 .2-.1.3-.1.1-.1.2 0 .3 0 .1.1.2.2.3v.1h-.1c-.1-.1-.2-.3-.2-.4 0-.1 0-.3.1-.4 0-.1.1-.2.1-.3v-.4c-.1.1-.1.1 0 .1zM496.2 135v1l.3.9v.1h-.1c-.2-.3-.3-.6-.4-.9-.1-.3-.1-.7 0-1 0-.2 0-.2.2-.1 0-.1 0-.1 0 0zM495.2 135.9c.2.3.3.6.4 1s.2.7.2 1.2c0 0 0 .1-.1.1s-.1 0-.1-.1c0-.4-.1-.8-.2-1.1-.1-.3-.2-.7-.4-.9.1-.2.1-.2.2-.2 0-.1 0-.1 0 0zM490.7 136c-.4.6-.6 1.1-.7 1.6 0 .4.1.8.3 1.1.1.3.2.7.2 1 0 .3-.1.7-.2 1 0 0 0 .1-.1 0-.1 0-.1-.1 0-.1.1-.3.2-.7.2-1 0-.3 0-.7-.2-1-.2-.4-.3-.7-.3-1.2s.2-1 .7-1.6c0 .1.1.1.1.2.1-.1.1 0 0 0zM494.9 134.2c0 .2 0 .4-.1.6-.1.2-.2.3-.4.5s-.3.4-.4.6c-.1.3 0 .5 0 .9 0 0 0 .1-.1.1s-.1 0-.1-.1c-.1-.3-.1-.7 0-.9.1-.3.2-.5.4-.7.2-.1.3-.3.4-.4.1-.2.1-.3.1-.5.1-.1.1-.1.2-.1zM490.5 134.6c.1.3.1.5 0 .8-.1.3-.2.5-.5.8-.2.2-.4.4-.5.7-.1.3-.1.6-.1.9 0 0 0 .1-.1.1s-.1 0-.1-.1c0-.3.1-.7.1-1 .1-.3.2-.6.5-.8.2-.2.4-.5.5-.7.1-.2.1-.5 0-.7h.2c0-.1 0 0 0 0zM493 134.7v.3c0 .1 0 .2.1.3v.1h-.1c-.1-.1-.1-.2-.1-.3v-.3c0-.1 0-.1.1-.1zM492.9 134.1c-.2.1-.4.3-.5.5-.1.2-.2.5-.2.9l.3.6c.1.2.1.5.1.8 0 0 0 .1-.1.1s-.1 0-.1-.1c0-.3 0-.6-.1-.8 0-.2-.1-.4-.2-.5-.5.5-.7.9-.7 1.5s.2 1.2.6 1.8v.1h-.1c-.4-.7-.7-1.3-.7-1.9 0-.6.3-1.1.8-1.6 0-.4.1-.7.2-1 .1-.3.3-.5.6-.6.1 0 .1 0 .1.2.1-.1 0 0 0 0zM492.2 133.1v.1c0 .3-.1.7-.3.9-.1.1-.2.3-.3.4-.1.2-.1.3-.1.5 0 0 0 .1-.1.1s-.1 0-.1-.1c0-.2.1-.4.1-.5.1-.2.2-.3.3-.4.2-.2.2-.5.3-.8v-.1c.1-.1.1-.2.2-.1zM499.3 140.7c.1.2.1.3.2.5 0 .2.1.3.1.5 0 0 0 .1-.1.1s-.1 0-.1-.1v-.5c0-.2-.1-.3-.2-.5h.1c-.1-.1 0-.1 0 0zM499.3 143c.1.3.1.5 0 .8 0 .3-.1.6-.3.8-.1.2-.2.5-.3.7 0 0 0 .1-.1 0s0-.1 0-.1c.1-.2.2-.5.3-.7.1-.3.2-.5.3-.8v-.8c0 .1-.1.1.1.1 0-.1 0 0 0 0zM497.8 140.8c.4.5.7 1 .8 1.5.1.5.1 1.1 0 1.6 0 0 0 .1-.1 0-.1 0-.1 0 0-.1.2-.6.2-1.1 0-1.6-.1-.3-.4-.8-.7-1.4-.1.1-.1.1 0 0zM497.7 143.4c-.1.3-.3.6-.5.8s-.4.6-.6.8c-.1.2-.3.3-.4.5l-.3.6c0 .1-.1 0-.1 0 0-.2 0-.4-.1-.6-.1-.2-.1-.4-.3-.6-.2-.3-.3-.7-.3-1.1 0-.3.2-.7.4-1 .1-.2.2-.5.3-.7.1-.2.1-.5.1-.7 0 0 0-.1.1-.1s.1 0 .1.1c0 .3 0 .5-.1.8-.1.3-.2.5-.3.8-.2.3-.4.7-.4 1 0 .3.1.6.3 1l.3.6c0 .1 0 .2.1.3.1-.1.1-.2.2-.4s.3-.4.4-.5c.2-.3.4-.5.6-.8.2-.3.3-.5.4-.8 0 0 0-.1.1 0zM493.8 142.2c0 .3 0 .6.1.9.1.3.2.5.3.8v.1h-.1c-.2-.3-.3-.5-.3-.8-.1-.3-.1-.6-.1-.9 0-.1 0-.2.1-.1 0-.1 0 0 0 0zM491.6 143.4v.4s0 .1-.1.1-.1 0-.1-.1v-.4c.1-.1.1-.1.2 0 0-.1 0-.1 0 0zM492.3 141.4c0 .2 0 .4-.1.6l-.3.6s0 .1-.1 0v-.1c.1-.2.3-.4.3-.6.1-.2.1-.4.1-.6l.1.1c0-.1 0-.1 0 0zM490.4 145.3c-.4-.9-.4-1.6-.4-2.2.1-.6.4-1 .7-1.4.2-.2.4-.5.6-.8.1-.3.2-.7.1-1.1 0 0 0-.1.1-.1s.1 0 .1.1c0 .5 0 .9-.2 1.2-.1.3-.4.6-.6.8-.3.3-.6.8-.7 1.3-.1.6 0 1.2.3 2.1.1.1.1.1 0 .1zM489.2 143.8c-.1.1-.1.3-.1.4 0 .1.1.3.2.4v.1h-.1c-.1-.2-.2-.3-.2-.5s0-.3.1-.5l.1.1zM494.8 139.8c.2.3.4.7.4 1 0 .4-.1.7-.3 1.1 0 0 0 .1-.1 0-.1 0 0-.1 0-.1.2-.4.3-.7.2-1 0-.3-.2-.7-.4-1 .1.1.1 0 .2 0zM496.6 138.4c.1.3.2.7.2 1 0 .3 0 .7-.1 1.1 0 .1-.1 0-.1 0 0-.3-.1-.6-.2-.9-.1-.3-.3-.5-.5-.7 0 0-.1 0 0-.1 0-.1.1 0 .1 0 .3.2.4.4.6.7.1.2.1.4.2.5 0-.2.1-.4 0-.6 0-.3-.1-.7-.2-1-.1.1-.1 0 0 0zM497.6 137c.2.2.4.5.5.9.1.4.1.8.1 1.3v.6c0 .2.1.4.2.5v.1h-.1c-.1-.2-.2-.4-.2-.6v-.6c0-.5 0-.9-.1-1.3-.1-.3-.2-.6-.4-.9-.1.1-.1.1 0 0zM494.9 136.7c-.2.2-.2.4-.3.6v.8s0 .1-.1.1-.1 0-.1-.1c0-.3-.1-.6 0-.8 0-.3.2-.5.3-.7.1 0 .1 0 .2.1zM489.5 140.4c0 .5-.2 1-.4 1.3-.3.4-.6.6-1 .9h-.1v-.1c.4-.2.7-.5 1-.8.2-.3.4-.8.4-1.3-.1 0-.1-.1.1 0 0-.1 0 0 0 0zM489.3 138.5v.6c0 .2-.1.4-.2.6 0 0 0 .1-.1 0-.1 0 0-.1 0-.1.1-.2.2-.4.2-.6 0-.2.1-.4 0-.5h.1zM493 138.3v.2c0 .3 0 .6.1 1v.1s0 .1-.1.1h-.1c-.1 0-.1 0-.1-.1v-1.1-.3s0-.1.1-.1.1.1.1.2c0-.1 0-.1 0 0z"/><path d="M493.9 136.6c-.3.3-.4.6-.4.9s.1.6.2.9c.3.5.4 1 .4 1.5s-.2 1-.4 1.5c0 0 0 .1-.1 0-.1 0 0-.1 0-.1.2-.5.4-1 .4-1.4 0-.5-.1-.9-.4-1.4-.1-.3-.2-.6-.2-1 0-.3.1-.7.4-1l.1.1zM488.2 126.5c.4-.3.9-.5 1.3-.6.4 0 .9.1 1.4.3h1s.1 0 .1.1 0 .1-.1.1h-1c-.5.5-1 .7-1.4.8-.4.1-.8 0-1.1-.2 0 0-.1 0 0-.1 0-.1.1 0 .1 0 .3.2.6.3 1 .2.3-.1.7-.3 1.2-.7-.4-.2-.8-.3-1.2-.2-.4 0-.8.2-1.2.5h-.1c-.1-.2-.1-.2 0-.2z"/><path d="M489.4 126.2c.2 0 .3.1.3.3 0 .2-.1.3-.3.3-.2 0-.3-.1-.3-.3s.2-.3.3-.3zM491.7 128.2c.2-.1.4-.3.6-.4l.4-.4s0-.1.1 0 0 .1 0 .1c-.1.1-.2.3-.4.4-.2.1-.3.3-.6.4-.1 0-.1 0-.1-.1-.1 0 0 0 0 0zM496.3 126.3h.4c.1 0 .2.1.3.2 0 0 .1 0 0 .1 0 .1-.1 0-.1 0-.1-.1-.2-.1-.3-.2h-.3v-.1c-.1 0 0 0 0 0zM493.7 126.4c.1-.2.3-.4.5-.5.2-.1.5-.2.8-.1 0 0 .1 0 .1.1s0 .1-.1.1c-.3 0-.6 0-.7.1-.2.1-.3.3-.4.5l-.2-.2c-.1 0 0 0 0 0z"/><path d="M494 126.8c0-.1.1-.2.1-.3.1-.1.2-.1.3-.2h.1v.1c-.1 0-.2.1-.3.1-.1.1-.1.1-.1.2 0 .2 0 .2-.1.1 0 .1 0 0 0 0zM489.6 128.3c-.1.1-.1.2-.2.4 0 .1-.1.3-.1.4 0 0 0 .1-.1.1s-.1 0-.1-.1c0-.2 0-.3.1-.5 0-.1.1-.3.2-.4.1 0 .1 0 .2.1 0-.1 0-.1 0 0zM490.8 128.8v.2s0 .1-.1.1-.1 0-.1-.1v-.2h.2zM490 127.4c.1 0 .3.1.4.1h.5v.1c-.1 0-.3.1-.4.1-.1 0-.3 0-.4-.1-.2-.1-.2-.1-.1-.2-.1 0 0 0 0 0zM490.8 125.1c-.1 0-.2 0-.3.1-.1.1-.1.2-.2.2 0 0 0 .1-.1 0-.1 0-.1-.1 0-.1 0-.1.1-.2.2-.3.1-.1.2-.1.3-.1.2 0 .2 0 .1.2.1 0 .1 0 0 0zM489.5 125.2c-.1 0-.2.1-.2.1-.1 0-.1.1-.1.1s0 .1-.1 0c-.1 0 0-.1 0-.1 0-.1.1-.1.1-.2.1-.1.2-.1.3-.2v.3c.1 0 0 0 0 0zM488.7 125.2l-.2.2c-.1.1-.1.1-.1.2 0 0 0 .1-.1 0-.1 0 0-.1 0-.1 0-.1.1-.2.2-.3l.2-.2v.2c.1 0 0 0 0 0zM487.7 126.1c-.1.1-.2.1-.2.2s-.2.2-.2.3c0 0 0 .1-.1 0-.1 0 0-.1 0-.1.1-.1.2-.2.2-.3s.2-.2.3-.2c-.1-.1-.1-.1 0 .1 0-.1 0-.1 0 0zM487.8 127.2l-.2.2-.2.2h-.1v-.1l.2-.2s.1-.1.3-.1c-.1-.1-.1-.1 0 0zM486.7 127.5v.4s0 .1-.1.1-.1 0-.1-.1v-.4c.1 0 .1-.1.2 0 0-.1 0 0 0 0zM488.1 129.3c0 .2 0 .4-.1.7v.1s0 .1-.1.1-.1 0-.1-.1v-.1c0-.2 0-.4.1-.7 0-.1 0-.1.2 0 0-.1 0-.1 0 0zM487.3 128.7v.4s0 .1-.1.1-.1 0-.1-.1v-.4s0-.1.2 0c0-.1 0 0 0 0zM486.5 123.1c.1.1.3.1.4.2.1.1.2.2.2.4v.1h-.1c0-.1-.1-.2-.2-.3-.1-.1-.2-.1-.3-.2 0-.1-.1-.1 0-.2zM493 131.5c.1.3.2.6.2.8 0 .3 0 .6-.2.8 0 0 0 .1-.1 0-.1 0 0-.1 0-.1.1-.3.2-.5.2-.8 0-.3-.1-.5-.2-.8 0 .1-.1.1.1.1 0-.1 0 0 0 0zM490.9 133.9c.1-.3.2-.6.4-.8.2-.3.3-.5.5-.7.2-.3.3-.5.4-.8.1-.3.1-.6 0-.9 0 0 0-.1.1-.1s.1 0 .1.1c.1.3.1.7 0 1-.1.3-.2.6-.4.9-.2.2-.3.4-.5.7-.1.2-.3.5-.4.8l-.2-.2c0 .1 0 .1 0 0zM488.2 133.2c0-.1.1-.2.2-.3s.2-.2.3-.2h.1v.1c-.1.1-.2.1-.3.2-.1.1-.1.2-.2.3l-.1-.1c0 .1 0 0 0 0zM487.7 133c.1-.1.2-.3.3-.4.1-.1.3-.2.4-.3h.1v.1c-.1.1-.3.1-.4.2l-.3.3c-.1.2-.1.3-.1.1-.1.1-.1 0 0 0zM490.5 130.2c.1.1.2.1.3.1h.4v.1h-.3c-.1 0-.2 0-.4-.1-.1 0-.2 0 0-.1-.1 0-.1 0 0 0zM489.1 130.1l.1-.1h.1v.1h-.2c0 .1 0 .1 0 0-.1 0-.1 0 0 0zM519.2 138.8l.2.2c0 .1.1.2.1.2v.1h-.1c0-.1-.1-.1-.1-.2-.1-.1-.1-.2-.1-.3-.1 0-.1 0 0 0 0-.1 0-.1 0 0zM485.7 154.5c.1.1.3.2.5.3.2.1.3.1.5.1 0 0 .1 0 .1.1s0 .1-.1.1c-.2 0-.4-.1-.6-.1-.1-.2-.3-.3-.4-.5-.1.1-.1 0 0 0 0-.1 0 0 0 0z"/><path fill="#F00" d="M511 124.5c.7 0 1.5 0 2.1-.1-.7.5-1.5.8-2.4.9.2-.1.3-.3.3-.4.1-.1.1-.3 0-.4zM509.2 124.3c.5.1 1 .1 1.5.2.1.1.1.2.1.3 0 .1-.2.2-.3.4 0 0-.1.1 0 .2-.3 0-.7.1-1 .1h-.5.1c.2-.2.3-.4.3-.6-.1-.3-.1-.5-.2-.6zM496.1 120.5c.8-.1 1.7-.1 2.6-.1.3.1.5.3.6.5.1.2.2.6.1 1 0 .1 0 .1.1.1s.1 0 .1-.1c.1-.5 0-.8-.2-1.1-.1-.1-.2-.3-.3-.4h.2c1 .1 1.8.3 2.6.8.2.2.2.4.2.6 0 .2-.2.5-.4.7 0 0-.1.1 0 .2s.1 0 .2 0c.2-.3.4-.5.4-.8v-.4c.7.4 1.5.7 2.2 1.1.1.2 0 .4-.1.5-.1.2-.3.3-.6.4-.1 0-.1 0-.1.2 0 .1.1.1.2.1.3-.1.6-.3.7-.5.1-.2.2-.4.1-.6.5.3 1 .5 1.4.8.1.2.1.3 0 .5s-.2.3-.5.4c-.1 0-.1.1-.1.2.1.1.1.1.2.1.3-.2.5-.3.6-.5.1-.1.1-.3.1-.4.2.1.3.1.5.2.5.2 1 .3 1.6.4.1.2.2.3.1.5 0 .2-.1.3-.3.5 0 0-.1.1 0 .2-1.9-.2-3.5-1.1-5.2-1.7-.2-.1-.4-.2-.6-.2-.6-.2-1.3-.6-1.9-.8h-.1-.1-.1c-.6-.2-1.2-.3-1.8-.4-.7-.1-1.3-.1-2 0h-.1c.1-.4 0-.7-.2-1 .4-.7.2-.8-.1-1z"/><path fill="#F00" d="M493.1 121.3c.9-.4 1.7-.6 2.6-.8.4.2.7.4.8.6.1.2.2.5.1.8h-1.1c-.4 0-.8.1-1.2.3-.2-.4-.5-.7-.8-.8-.1 0-.2 0-.4-.1zM502.4 126.1c-.2-.1-.5-.3-.7-.4-1.2-.6-2.5-1-3.8-1.1.5-.5.6-.9.4-1.4-.1-.3-.4-.6-.8-.9.4 0 .9 0 1.3.1.7.1 1.5.3 2.3.6.2.4.2.8.2 1.1-.1.3-.3.6-.7.8-.1 0-.1.1 0 .2s.1.1.2 0c.5-.3.7-.6.8-1 .1-.3.1-.6-.1-1 .5.2 1 .5 1.3.8.4.3.9.6 1.3.9 0 .5-.2.8-.4 1-.3.2-.7.2-1.1.1-.1 0-.2 0-.2.2z"/><path fill="#F00" d="M505 128c-.8-.6-1.5-1.2-2.3-1.8.4 0 .8 0 1.1-.2.3-.2.5-.5.5-1 .5.4.9.8 1.4 1.2.2.2.4.4.7.6.1.2.1.4.1.5 0 .1-.1.2-.1.3-.1.1-.2.2-.3.2-.2.1-.5.1-.8 0-.3.1-.3.1-.3.2z"/><path fill="#F00" d="M507.6 129.7c-.3-.1-.5-.3-.8-.4-.6-.3-1.1-.7-1.7-1.2.3 0 .6 0 .8-.1.2-.1.3-.1.5-.3.1-.1.2-.3.2-.5v-.3c.5.5 1.1.9 1.7 1.2.3.2.6.4.9.5v.1c0 .2-.1.4-.3.5-.3.1-.7.2-1.2.2 0 .2-.1.2-.1.3zM510.5 130.8c-.9-.2-1.8-.6-2.6-1 .5 0 .9-.1 1.1-.2.3-.1.5-.3.5-.7.5.3 1.1.5 1.6.7.1.2.1.4 0 .5-.1.2-.3.3-.6.5 0 .1-.1.1 0 .2zM516.4 130.2c.1 0 .6-.1.3 0-1.7 1.1-4 1.1-6 .6.3-.1.6-.3.7-.5.1-.2.1-.3.1-.6.7.2 1.3.4 2 .5 0 .1 0 .2-.1.3-.1.1-.3.3-.6.4-.1 0-.1 0-.1.2 0 .1.1.1.2.1.3-.2.6-.3.7-.5.1-.1.2-.3.2-.4.8.1 1.6 0 2.6-.1zM504.3 160.2c-.1.1-.2.3-.3.5-.5.2-1 .4-1.5.4 0 .4.1.5.5.5.7-.3.8-.4.9-.4.1.1-.1.6-.7.9-.1.1-.1.1 0 .2.5.7 1.7.5 2.4.3.5-.1 1.3-.7 1.6-1.2.1-.2-.1-.5-.3-.7-.5.1-.7-.2-.6-.3-.7-.2-1.3-.2-2-.2zM485.4 154.3c-.4.3-.8.6-1.3.7-.2.1-.6.2-.7.4 0 .1.3.3.5.2.6-.5.8-.2.2.3-.1.1 0 .2.1.3.6.5 2 .7 2.7.3.5-.3.7-.6.3-1.1v-.3l-.8-.1-.5-.3-.5-.4zM497.8 158.6h-.1c-.3.3.5.2.8.4.2.1.2.3.2.6-.3.8-2.3.6-2.9.2-.3-.2-.3-.3-.3-.6h.4c.2 0 .5-.1.7-.2.1 0 .1-.1.1-.2-.1-.1-.1-.1-.2-.1-.2.1-.4.2-.6.2h-.6c-.1-.1-.2-.1-.2-.2s.2 0 .3 0l.9-.3.1-.1c.5.1 1.1.2 1.4.3zM488.9 158.1c-.1.1-.2.2-.2.4-.3.3-.7.5-1.1.7-.4.2 0 .3.2.5s.5-.2.7-.5c.2-.3.4-.2.3 0-.1.3-.3.6-.3.8-.1.2.7.4.9.4.5 0 1.1-.5 1.5-.7.3-.3.3-.6.1-1-.2 0-.4 0-.6-.1-.2-.1-.5-.1-.7-.2 0 0-.1 0 0-.1h.1l-.9-.2zM492.4 125.1h.4c.3 0 .5.1.7.2.8-.3 1.5-.5 2.1-.5.7-.2 1.4-.3 2.2-.3-.1-.1 0-.1 0-.2.4-.4.5-.8.4-1.1-.1-.3-.5-.7-1-1-.5.1-1-.1-1.6 0-.3 0-.7.1-1 .2.3.1.5.3.7.5.2.3.4.7.5 1.2 0 .1 0 .1-.1.1s-.1 0-.1-.1c-.1-.5-.2-.8-.5-1.1-.2-.3-.8-.5-.9-.5-.6.1-1.1.1-1.6.2-.4.1-.7.2-.9.4.4-.1.7-.1 1.1.1.3.2.6.4.7.9 0 .1 0 .1-.1.2-.1 0-.1 0-.2-.1-.1-.4-.4-.6-.6-.8-.5-.3-1.6 0-2 .3-.3.2-.5.4-.8.7l-.1.1c1 .3 1.9.3 2.7.6zm-2.9-.5v-.1c.3-.3.5-.6.8-.8.3-.2.6-.3.8-.4.3-.3.7-.5 1.2-.7.5-.1 1.1-.2 1.6-.2-.2-.3-.4-.5-.6-.7-.3-.1-.6-.1-.9-.1-.7.2-1.3.6-1.9 1h.7c.1 0 .1 0 .1.2 0 .1-.4.1-.6 0h-.5-.1c-.6.4-1.1.8-1.6 1.2.5.2.8.4 1 .6z"/><path fill="#0093DD" d="M561.2 195.6l25.9-58.8L568 106l-34.1 12.6-15.8 62.1c14.9 3.8 29.3 8.8 43.1 14.9z"/><path fill="#FFF" d="M528.1 141.2c17.1 4.4 33.6 10.1 49.5 17.1l-10 22.7c-14.6-6.5-29.8-11.8-45.6-15.8l6.1-24z"/><path fill="#F00" d="M569.2 177.4l6.7-15.1c-15.6-6.9-32-12.6-48.8-16.9l-3.9 15.5c16 4.1 31.5 9.5 46.3 16l-.3.5z"/><path d="M531.9 157.2c.4-.3.9-.2 1.4-.1.4-.1.8-.2 1.3-.2.2-.1.4-.2.7-.2.1-.1.2-.2 0-.4-.1-.1-.2-.3-.2-.4-.8-.4-1.1-1.1-1.3-1.8-.4-.1-.6-.3-.7-.4-.2 0-.4 0-.6-.1-1 .1-1.3-.2-1.6-.5-.3-.1-.6-.3-.7-.6-.1-.1-.2-.3-.3-.4-.3-.3-.2-.8.2-.8.3 0 .6 0 .8-.1.3-.1.8-.1 1.1-.1.4 0 .7-.3 1.1-.7v-.5c-.1-.2 0-.3.2-.2.5 0 .9.3 1.1.6.6.1 1.1.4 1.5.9.8 0 1.4.3 1.5.6.1.2-.2.5-.6.8v.2c.2.2.4.4.5.6.5.2.9.4 1.3.8 1.2-.1 3.2.7 6 2.5 1.8.3 3.5.8 5.1 1.5h1c3-.4 5.8-.1 8.5 1.9 1 .1 1.9.4 2.8.8.6.3 1.3.4 2 .4 1.1.1 2.2.4 3.3.9 1.2.3 2.4.7 3.1 1.5.5.6.4 1.2-.3 1.4-.4.8-1.2.8-2.3.4-.8.1-1.7-.5-2.5-1.1-1.1-.4-2.1-1-3.1-1.7-.5-.4-1-.6-1.6-.7-.4-.1-.8-.1-1 0-.1.1-.1.1 0 .2.3.2.5.6.5 1 .1.4 0 .8 0 1.2 0 .5.3.8.8 1.1.3.2.7.4 1.3.5.3.1.3.2.3.4.2.7.3 1.5.6 2.1.1.2.2.3.4.4.7.5.4 1.1-.3 1.2-.6.5-1.1.9-1.7 1-.5.2-.7 0-.8-.3-.3 0-.4-.1-.6-.3-.6-.4-.1-1.2 1.3-.9 0-.2.1-.2.3-.2-.1-.4-.1-.8 0-1.1-.1-.1-.2-.2-.4-.2-.5-.2-1-.4-1.4-.7-.7-.7-1.8-1.2-2.9-1.8-.9 0-1.5-.5-2.2-.8h-.9c-.3-.1-.5 0-.7.2-.3.3-.6.3-1 .2-.4-.1-.9 0-1.3 0-.2.1-.4.1-.7.1-.5 0-1 0-1.3.2-.3.3-.5.3-.8.2-.2-.1-.4-.2-.4-.3-.3-.1-.6-.2-.6-.3-.6-.2-.7-.3-.7-.5-.8-.2-.4-.8.1-.8.6 0 1.1.1 1.7.2.5.1 1.1.1 1.5-.3.3-.2.3-.4.7-.6-1-.1-1.7-.2-2.3-.6-1.5-.9-2.6-1.1-3.5-.4-.2.1-.4.2-.7.1-.2-.1-.5-.1-.7 0-.5.1-1 .1-1.6-.1-.8.2-1.5.2-2.3.1-.6.3-1.1.4-1.4.1-.3-.2-.6-.3-.8-.5-.4-.1-.6-.2-.6-.3-.5-.1-.6-.3-.6-.5-.2-.3-.1-.4.1-.6.4-.2.8-.2 1.2 0 .3.1.5.3.6.4.3 0 .6 0 .8.1.2-.3.6-.3 1.2-.2.3-.2.6-.3 1-.3v-.2c-.5-.1-.8-.5-1-.9-.8 0-1.4-.3-1.9-.7-.5 0-.8-.1-1.2-.3h-.9c-.6.2-1.2.2-1.8 0h-1c-.4.4-.8.5-1.2.3-.2-.3-.6-.5-1-.6-.3-.1-.4-.3-.5-.4-.4-.3-.3-.5.1-.7.3-.1.7-.2 1.2.1-.1.1.1.2.3.2z"/><path fill="#FFF" d="M551.4 163.1c0-.1-.1-.2-.4-.1-.9-.1-2 0-2.7-.5-.8-.5-1.6-1-2.5-.9.3-.3.6-.4 1-.5.5-.1 1.1-.1 1.8 0 .9.2 1.8.3 2.4.6.6.2 1.1.5 1.3.9 0 0 0 .1.1.1.2.2.5.3.6.5l.4.4c-.3 0-.6 0-.9-.1-.5-.1-.8-.2-1.1-.4z"/><path d="M553.5 118.4l.1.3 1.2 6-4.6 4-.2.2.3.1 5.8 2 1.2 6 .1.3.2-.2 4.7-4 5.8 2 .3.1-.1-.3-1.2-6 4.6-4 .2-.2-.3-.1-5.8-2-1.2-6-.1-.3-.2.2-4.7 4-5.8-2-.3-.1z"/><path fill="#F7DB17" d="M550.7 128.7l4.3-3.8 5.5 1.9-9.8 1.9zM561.2 126.6l4.4-3.8 5.4 1.9-9.8 1.9zM571 124.9l-4.3 3.8-5.5-1.9 9.8-1.9zM560.5 127l-4.4 3.8-5.4-1.9 9.8-1.9zM554.2 118.9l5.4 1.9 1.1 5.7-6.5-7.6zM561.2 127l5.5 1.9 1.1 5.6-6.6-7.5zM567.6 134.7l-5.4-1.9-1.1-5.7 6.5 7.6zM560.5 126.6l-5.5-1.9-1.1-5.6 6.6 7.5zM564.3 117l1.1 5.6-4.4 3.8 3.3-9.4zM560.8 127.2l1.1 5.7-4.3 3.8 3.2-9.5zM557.4 136.5l-1.1-5.6 4.4-3.8-3.3 9.4zM560.9 126.4l-1.1-5.7 4.3-3.8-3.2 9.5z"/></svg>