<svg xmlns="http://www.w3.org/2000/svg" width="900" height="600" viewBox="0 0 900 600"><path fill="#FFF" stroke="#A9A9AA" stroke-width="10" stroke-miterlimit="10" d="M0 0h900v600H0z"/><path d="M0 400h900v200H0z"/><path fill="#CE1126" d="M0 0h900v200H0z"/><path fill="#FFF" stroke="#C09300" stroke-width="1.27" stroke-linejoin="round" d="M450.8 302.7l68.5 63.6-4.9-115.5c-.7-17.5-15.9-13.5-27-7.2-11.2 7.2-24 7.2-37.4 2.4-13.5 4.7-26.3 4.7-37.4-2.4-11-6.3-26.3-10.3-27 7.2l-4.9 115.5 70.1-63.6z"/><path fill="#C09300" d="M393.5 246.8l-4.7 112.3-8 7.2 4.9-115.5c2.2-1.6 6.2-4 7.8-4zM403.1 254.8l-4 94-8 8.2 4.9-108.5c1.5 1.6 6.2 5.5 7.1 6.3zM411.8 262l-3.2 78.4-6.5 6.3 4-89.4c1.7 1.5 4.9 3.8 5.7 4.7zM421.3 266l-3.2 66.8-6.3 5.1 3.2-74.3c1.6.7 4.7 2.4 6.3 2.4zM430.1 266l-2.3 55.7-6.5 6.3 2.4-61.3c1.6 0 5.6 0 6.4-.7zM506.5 246.8l4.7 112.3 8 7.2-4.9-115.5c-2.2-1.6-6.2-4-7.8-4zM496.9 254.8l4 94 8 8.2-4.9-108.5c-1.5 1.6-6.2 5.5-7.1 6.3zM488.2 262l3.2 78.4 6.5 6.3-4-89.4c-1.7 1.5-4.9 3.8-5.7 4.7zM478.7 266l3.2 66.8 6.3 5.1-3.2-74.3c-1.6.7-4.7 2.4-6.3 2.4zM469.9 266l2.3 55.7 6.5 6.3-2.4-61.3c-1.6 0-5.6 0-6.4-.7z"/><path fill="#C09300" stroke="#C09300" stroke-width="1.074" d="M453.2 315.4l9.6 43.8-3.2 3.2-3.3-2.4-5.5-39 2.3 39-3.2 4-3.2-4 2.3-39-5.5 39-3.3 2.4-3.2-3.2 9.6-43.8h6.6z"/><path fill="#FFF" stroke="#C09300" stroke-width="1.189" stroke-linejoin="round" d="M428.5 296.1l-19.1 67.7 26.3 4 11.2-50.9-18.4-20.8z"/><path fill="none" stroke="#C09300" stroke-width="1.27" stroke-linejoin="round" d="M422.2 319.2l2.3 5.6 12.4-11.8"/><path fill="none" stroke="#C09300" stroke-width="1.27" stroke-linejoin="round" d="M430.8 305.2l2.6 24.3 7.9-10.3M438.1 323.2l4.3 14.9M444.1 332.7l-8.7 13.2m2.7 13.2l-2.8-13.2-2.4-13.4-5.8 7.9-2.6-9.1-8.2 8.4 4.2 15.2 5.7-9.4 3.2 9.6 5.9-9.2M415 362.3l5.3-7.4 3.5 11.5 4.7-8 3.2 9.6"/><path fill="#FFF" stroke="#C09300" stroke-width="1.189" stroke-linejoin="round" d="M471.5 296.1l19.1 67.7-26.3 4-11.2-50.9 18.4-20.8z"/><path fill="none" stroke="#C09300" stroke-width="1.27" stroke-linejoin="round" d="M477.8 319.2l-2.3 5.6-12.4-11.8"/><path fill="none" stroke="#C09300" stroke-width="1.27" stroke-linejoin="round" d="M469.2 305.2l-2.6 24.3-7.9-10.3M461.9 323.2l-4.3 14.9M455.9 332.7l8.7 13.2m-2.7 13.2l2.8-13.2 2.4-13.4 5.8 7.9 2.6-9.1 8.2 8.4-4.2 15.2-5.7-9.4-3.2 9.6-5.9-9.2M485 362.3l-5.3-7.4-3.5 11.5-4.7-8-3.2 9.6"/><path fill="#FFF" stroke="#C09300" stroke-width="1.27" stroke-linecap="round" stroke-linejoin="round" d="M450 394.1c19.9 0 39-1.6 50.2-4.7 4.7-.9 4.7-3.3 4.7-6.5 4.7-1.6 2.3-7.2 5.6-7.2-3.3.9-4-5.6-8-4.7 0-5.6-5.6-6.3-10.3-4.7-9.5 3.2-26.3 3.9-42.2 3.9-15.9-.7-32.6-.7-42.2-3.9-4.7-1.6-10.3-.9-10.3 4.7-4-.9-4.7 5.6-8 4.7 3.3 0 .9 5.6 5.6 7.2 0 3.2 0 5.6 4.9 6.5 11 3.1 30.1 4.7 50 4.7z"/><path fill="#FFF" stroke="#C09300" stroke-width="1.27" stroke-linecap="round" stroke-linejoin="round" d="M422.9 363.8c6.5.9 13.6 1.6 19.2.9 3.2 0 5.4 5.5-.9 6.3-5.6.7-14.3 0-19.1-.9-4-.7-12.8-2.3-18.4-3.9-5.6-2.4-1.6-7.2 1.6-6.5 5 1.7 11.3 3.3 17.6 4.1zM477.1 363.8c-6.5.9-13.6 1.6-19.1.9-3.3 0-5.6 5.5.7 6.3 5.6.7 14.3 0 19.1-.9 4-.7 12.8-2.3 18.4-3.9 5.6-2.4 1.6-7.2-1.6-6.5-4.9 1.7-11.2 3.3-17.5 4.1z"/><path fill="#FFF" stroke="#C09300" stroke-width="1.27" stroke-linecap="round" stroke-linejoin="round" d="M403.1 360.7c-4.9-.9-7.2 4.7-5.6 7.9.7-1.6 4-1.6 4.7-3.2.9-2.4-.7-2.4.9-4.7zM422.2 375.4c0-3.2 3.2-2.8 3.2-5.9 0-1.6-.9-4-2.4-4s-3.2 1.6-3.2 3.2c-.8 3 2.4 3.5 2.4 6.7zM444.9 366.3c4.7 0 4.3 6.3 2 9.5 0-2.3-4-3.2-4-4.7-.1-2.5 3.6-2.5 2-4.8zM496.9 360.7c4.9-.9 7.2 4.7 5.6 7.9-.7-1.6-4-1.6-4.7-3.2-.9-2.4.7-2.4-.9-4.7zM477.8 375.4c0-3.2-3.2-2.8-3.2-5.9 0-1.6.9-4 2.4-4 1.6 0 3.2 1.6 3.2 3.2.8 3-2.4 3.5-2.4 6.7zM455.1 366.3c-4.7 0-4.3 6.3-2 9.5 0-2.3 4-3.2 4-4.7.1-2.5-3.6-2.5-2-4.8z"/><path fill="#FFF" stroke="#C09300" stroke-width=".891" stroke-linecap="round" stroke-linejoin="round" d="M404.7 362.3c1.6 0 4 .7 4.7 1.6l-4.7-1.6zM412.5 364.7c.9 0 4 .7 5.6 1.6l-5.6-1.6zM441.2 367.9c-1.6 0-4.7 0-5.6.7l5.6-.7zM432.5 367.9c-.9-.9-4-.9-5.6 0h5.6zM495.3 362.3c-1.6 0-3.9.7-4.7 1.6l4.7-1.6zM487.5 364.7c-.9 0-4 .7-5.6 1.6l5.6-1.6zM458.8 367.9c1.6 0 4.7 0 5.6.7l-5.6-.7zM467.5 367.9c.9-.9 4-.9 5.6 0h-5.6z"/><path fill="#C09300" d="M403.3 374.9c-.5-.1-.8-.5-.7-1 .2-.6.7-1 1.1-.8.3.1.8.6.8.8 0 .2-.3.8-.4.8-.1 0-.1 0-.2.1 0 .1-.3.1-.6.1zM458.3 378.8c-.2-.1-.5-.5-.5-.7 0-.4.6-1 .9-1 .2 0 .7.2.8.4.3.3.3.9-.2 1.2-.1.1-.7.2-1 .1zM458.6 381.3c-.4-.1-.6-.3-.6-.8s0-.6.5-.8l.4-.2.3.2c.5.2.7.4.7.8 0 .3-.2.7-.6.9-.3 0-.3 0-.7-.1z"/><path fill="#C09300" d="M407.8 370.4c-.3 0-.8.3-1.1.5-.6.2-1.4.6-2 .1-.6-.2-1.4 0-1.5.7.2.7 1.1 1 1.6.6.4-.5 1.5-.9 1.7.1-.5.7-.4 1.6-.8 2.3-.1.5-.3.9-.5 1.3-.5 0-1 0-1.3.3-.6 0-1.3.3-1.6.9-.4.6-.8 1.2-.9 1.9.1.7.9.9 1.6 1 .7.2 1.3.4 2 .6 1.1.2 2.1.6 3.2.9 1.6.5 3.2.7 4.8 1.1.2.1.3.1.5.1.7.1 1-.6 1.1-1.1.3-1.2.6-2.3.9-3.5.2-.5.5-1.5-.4-1.3-.5.3-1 .8-1.6.8-.9.1-.4.9 0 1.3.1.6-.1 1.3-.5 1.8-.5.3-1.2-.1-1.7-.2-.6 0-1.7-.3-1.2-1.1.2-.6.2-1.2.4-1.8.3-.6.3-1.3.5-1.9-.4-.8-1 .3-1.5.3-.3.2-1.6.3-.9.9.6.4.1 1.2 0 1.8 0 .8-.8 1-1.5.8-.6 0-1.5-.5-1-1.2.1-.6.3-1.1.4-1.7.2-.7.4-1.4.7-2.1.1-.6.3-1.2.6-1.8 0-.7.5-1.3.5-2-.2-.3-.3-.4-.5-.4zm-3.6 7.2h.2c.2.1.3.3 0 .5-.1.1-.2.2-.3.2-.5 0-.6-.1-.6-.3 0-.2 0-.2.3-.3.2 0 .3-.1.4-.1zM403.1 382.7c-.5-.5-.4-.8.3-1.4.3-.2.5-.2.9.1.6.5.6.8.1 1.3-.2.2-.3.3-.6.3-.3-.1-.4-.1-.7-.3zM406.2 383.6a.8.8 0 0 1-.6-1.1c.1-.4.2-.5.8-.5.7 0 .9.1.9.7 0 .4 0 .4-.2.6-.3.2-.7.3-.9.3zM495.3 383.7c-.2-.2-.3-.3-.3-.5 0-.4.2-.7.7-.9.7-.3 1-.3 1.2.2.3.6.3.8-.1 1.3-.2.2-.3.2-.8.2-.4-.1-.5-.1-.7-.3zM410.2 384.8c-.4-.1-.6-.4-.6-.8 0-.3 0-.4.3-.6.2-.1.4-.2.6-.2.3 0 .4 0 .6.1.6.4.7.8.3 1.1-.3.5-.6.5-1.2.4zM432.1 385.8c-.1-.1-.3-.2-.3-.3 0-.6.1-1.1.2-1.6s0-1.1.2-1.6c.2-.9.2-1.9.4-2.8 0-.5.1-.9.2-1.4.2-.7 0-1.5.2-2.2 0-.3.3-1 .6-.6.4.6.9 1 1.4 1.5.4.3 0 .6-.3.8-.4.2-.5.6-.5 1-.1.4-.2.8-.2 1.2-.1.6-.1 1.3-.2 1.9-.2.6-.1 1.3-.2 1.9 0 .4-.2.8-.2 1.2 0 .4-.1.9-.4 1.2-.1.1-.6.1-.9-.2zM461.8 376c-.5.4-.9.8-1.3 1.2-.6.4.5.7.6 1.1.2.6.1 1.2.2 1.8.2.6.3 1.1.2 1.7-.1.6-.9.5-1.2.8-.5.2-.7.7-1.1 1-.2.5-.3 1.1-.3 1.6 0 .4-.3 1 0 1.3 0 .1.1.1.1.2.1.1.3 0 .5.1.5 0 1 0 1.5-.2 1.2-.2 2.4-.2 3.7-.3.7 0 1.5-.2 2.2-.2.6.1.9-.5.8-1-.3-.7 0-1.4-.3-2.1-.2-.7-.1-1.4-.2-2.1 0-.5-.7-.8-1.1-.3-.3.3-.9.4-1.2.8-.3.6.6.6.8 1.1.2.5.1 1 .2 1.5.1.6-.5.6-.9.7-.5.2-1.3.3-1.6-.3-.2-.5-.2-1-.2-1.5 0-.9-.2-1.8-.3-2.7l-.3-3.3c-.1-.3-.1-1.1-.8-.9zm-.6 8.2h.3v.8l-.4.1c-.2.1-.4.1-.4.1s-.1-.1-.2-.1c-.2-.2-.2-.4.1-.7.3-.2.4-.2.6-.2zM431.2 375c-.4.1-.9.7-1.2.7-.9.1-.8.9-.1 1.2.1.3 0 .6 0 .9.1.8-.4 1.4-.3 2.2 0 .9-.3 1.7-.3 2.6-.2.9-.2 1.8-.4 2.8-.1.8-.7.5-1.2.3v-1.1c.2-.8-.4-1.1-1.1-1.2-.7.1-1-.5-.9-1.1.3-.4 1-.3 1.5-.3 1 .2.9-1.1.4-1.6-.3-.6-1.2-.9-1.4-1.6.1-.9-.5-1.7-1.2-2.2-1.1-.1-1.9.9-2.3 1.8-.5.1-.9.3-1.3.4-.7.2-1.7 1.4-.8 1.9.5.2 2.2.5 1.5 1.3-.4.7-1.2.7-1.9.5-.7 0-1.5-.4-1.5-1.2-.1-.8-.1-1.6-.5-2.2-.1-.8-1.1-.6-1.2.1-.7.5-.6 1.4-.1 2 .3.7 0 1.6-.3 2.2-.2.9-1.2.9-1.8 1.2-.3.1-1.6-.1-1.2.7.8.3 1.7.5 2.4.3.8-.1 1.5-.7 1.9-1.4.6-.6 1.5-.3 2.2-.3.8 0 1.6.5 2.3.2.2-.6 1.2-1.5 1.5-.5-.1.9.7 1.3 1.5 1.2.9 0 .5.6.5 1.1.1.9.7 1.4 1.4 1.8.3.1.5 0 .8 0 .7-.2 1.6-.6 1.8-1.4.3-.7.3-1.5.5-2.2.2-1.1.4-2.3.4-3.4.3-1 .2-2.1.4-3.2.1-.8.2-1.6.3-2.3.2-.3 0-.3-.3-.2zm-6.7 4.1c.2 0 .2.2.2.5 0 .4.2.7.4.7s.2.2 0 .4c-.1.1-.3.1-.7.1-.6 0-.9-.2-1.2-.5l-.2-.2.3-.2c.1-.1.4-.3.6-.5.2-.2.4-.3.6-.3zM490.5 371.2c-.6 0-1.1.1-1.7.2-1-.1-1.6 1-.6 1.6.6 1.5 1.5-.3 2.5-.2 1.4.3 1.6 1.8 1.8 3 .1 1.2.4 2.3.8 3.4 1 1.1-.7 1.7-1.4.9-.6-.7-1.9-1.5-2.7-.6-.9.4-.9 1.6-1.7 1.9-1.2.4-1.4-1.1-2-1.8-.6-.8-1.7-.9-2.6-1.2-.4-.9-.2-2.3-1.1-2.9-.7.3-2.1 1.7-1 2.3 1.1 1-.5 1.4-1 2.1-.7.8-.8 1.9-1 3-1.3.7-1.5-.8-1.7-1.7-.1-1.1-1-.8-1.7-.4-1 .4-1.4 1.3-2.1 2-.1.6 0 1.4 0 2 .2.8 1.2.4 1.8.4 1-.4 1.4.6.6 1.2-.5.7-2.2.3-2.1 1.4.5.1 1.1 0 1.7 0 1.1-.3 2.3-1.1 2.4-2.3.1-1.1 1.7-.9 2.5-1.1 1-.3 2.3-.4 2.5.9.7.7 2.2 1.6 3 .6.8-.5 1.2-1.3 1.1-2.2-.2-.8 1.3-.8 1.6-.4.5.9 2.2.6 2.9.1.8-.6 1-1.7 2.2-1.7 1.8-.5 3.6-.8 5.4-1.5 1.4-.3-.2-1.2-.6-1.7-1.1-.5-2 1.6-3.2.6-.9-.7-.9-2.1-1.2-3.1-.2-1.4-.2-2.9-1.2-4-.3-.6-1.3-.8-2.2-.8zm-6.8 9.5c.1 0 .3.1.5.2.4.2.8.6.8 1 0 .2-.1.2-.4.4-.2.1-.4.2-.5.2-.2 0-.6-.4-.6-.5 0-.1-.1-.3-.1-.5-.1-.3-.1-.3.1-.5 0-.2.1-.3.2-.3zm6.5.3c.4 0 .6.1.8.4.2.3.1.6-.4.8l-.4.2-.4-.2c-.3-.2-.3-.3-.3-.5-.1-.3.3-.6.7-.7zm-8.9.1c.1 0 .2 0 .3.2.2.2.2.3.3.6v.6c0 .2-.1.2-.6.2-.6 0-.7-.1-.7-.7 0-.4 0-.5.2-.7.2-.1.4-.1.5-.2zm-5.5 1.5c.2 0 .4.2.4.4.1.3 0 .5-.2.6-.2.1-.7.2-.9.1l-.2-.2c-.1-.1-.1-.2 0-.2s.1-.1.1-.2c0 0 .1-.2.2-.3.2-.2.4-.3.6-.2zm9.2 1.2c.2 0 .3.1.4.2.2.2.2.4 0 .6-.1.1-.9.1-1.1 0-.1 0-.2-.1-.2-.2s0-.2.3-.3c.2-.3.5-.3.6-.3zM467.9 388.6c-.1-.1-.2-.1-.1-.2.2-.3.5-.4.8-.5.5-.2 1-.6 1.4-1.1.1-.3.4-.5.4-.9 0-.5 0-1-.1-1.4-.1-.4-.5-.8-.8-1-.3-.2-.7-.3-.8-.6-.1-.3.3-.6.4-.9.2-.4.4-.9.7-1.3.3-.3.7 0 .8.3.2.3.4.6.5.9.3.3.6.7.7 1.2.1.3.4.6.4 1s.2.8.2 1.2c0 .6 0 1.1-.2 1.7-.1.3-.4.5-.6.7-.3.3-.7.6-1.1.7-.3.1-.5.4-.8.3-.5 0-1 .1-1.5 0-.2 0-.4-.2-.3-.1zM461 389c-.2-.2-.3-.4-.3-.6 0-.2 0-.3.3-.6.4-.4.7-.5 1.4-.1s1 .4 1 .1c.1-.2.5-.5.9-.5.3 0 .4 0 .6.2.3.2.3.2.3.7 0 .5 0 .5-.3.7-.3.2-.3.3-.7.2-.4 0-.7-.2-.8-.6-.1-.2-.1-.3-.2-.1 0 .1-.1.1-.2.2-.2.1-.5.3-.8.5-.1.1-.3.1-.5.1-.4.1-.4.1-.7-.2zM441.2 380.1c-.7 0-1.4.6-1.5 1.2.2.8.8 1.5.4 2.3.3 1-.8 1.4-1.5.8-.4-1-.6-2-1.3-2.9-.8-.2-1.2 1.1-1.7 1.5.3.8 1.1 1.4 1.2 2.4.2.9-.4 1.9-1.2 2.4-.7.7-1.6.4-2.5.6-1 .6.8.8 1.2.8 1 .1 2.1 0 2.9-.8.8-.4.7-1.7 1.6-1.8 1.6-.1 3.2.2 4.8.3.8.2 2.2-.1 2.8.5 0 1.1.9 1.8 1.8 2.2.5.1 1-.5 1.5-.6 1-.3.7-1.5 1.2-2 1.7-.1 3.3-.1 5-.1.3 0 .4-.4.6-.6 0-.6-.1-1.3-.2-1.9-.3-.8.1-1.8-.5-2.5-.8-.2-1.5.5-2.4.6-.9.4-1.7 1.3-1.8 2.3-.5.9-1.4-.2-1.1-.9 0-.3.1-.7 0-1-.5-.6-1.4-.4-2.1-.5-1 0-2-.2-3-.2-.9-.1-1.8.1-2.7-.2-1 0-.9-1-1.1-1.8 0 0-.2-.1-.4-.1zm2 3.7c.3 0 .7.1 1 .1.4.1.9-.1 1.3 0 1 .2 2 .1 2.9.2.3 0 .4.2.6.3v2.1c0 .3.1.6-.2.8-.1.1-.2.1-.2.1-.3-.1-.6-.2-.7-.5v-1.1-.3c-.2-.2-.5-.2-.7-.2-.8 0-1.7-.1-2.5-.1-.7 0-1.4.1-2.1-.1-.3-.1-.6-.1-.8-.3-.2-.3.1-.6.3-.7.4-.2.7-.3 1.1-.3zm11.3.3c.2 0 .2.1.3.3 0 .2.1.4.1.5 0 .1 0 .2-.2.2-.5.2-1 .2-1.2-.1-.1-.1 0-.4.2-.6.3-.2.6-.3.8-.3z"/><path fill="#FFF" stroke="#C09300" stroke-width="1.15" d="M450 327.5c32.6-25.1 29.8-61.9 29.8-61.9-.9.2-1.7.3-2.5.3-6.8 0-23.2-3.9-27-8.9-4.1 4.5-20.8 8.9-27.6 8.9-.9 0-1.7-.1-2.5-.3 0 0-2.9 36.8 29.8 61.9z"/><path fill="#FFF" stroke="#C09300" stroke-width=".916" d="M477.2 268.3h-.8c-6.2 0-20.6-3.2-26.2-8-5.8 4.4-20.5 8-26.6 8-.3 0-.6 0-.8-.1 0 1.4.1 2.8.1 4.1.3 4.9 1.2 9.8 2.5 14.6 4.1 14.9 12.5 27.6 24.6 37.2 12.1-9.6 20.5-22.3 24.6-37.2 1.3-4.7 2.2-9.7 2.5-14.5.1-1.3.1-2.7.1-4.1z"/><path fill="#C09300" d="M439.4 265.3c-5.9 1.8-12.2 3-15.8 3-.3 0-.6 0-.8-.1 0 1.4.1 2.8.2 4.2.3 4.9 1.2 9.8 2.5 14.5 2.8 10 7.5 19 14 26.8v-48.4h-.1zM460 265.2v49.2c6.8-7.9 11.7-17.2 14.6-27.6 1.3-4.7 2.1-9.6 2.5-14.5.1-1.3.2-2.7.2-4.1h-.8c-3.9.2-10.5-1-16.5-3z"/><path fill="#FFF" stroke="#C09300" stroke-width="1.218" d="M462.3 253.4c.7 0-.9-3.6-.9-3.6 1.8 1.8 8.4 2.2 8.4 2.2-4-1.8-8-15.1-7.5-25.7.4-10.7-1.5-14.9-3.1-16.4-2-2-8.4-3.8-12.7-4-2.4-.1-2 1.8-2 1.8-4.4-1.1-8.9-1.6-10.9-.2-1.9 1.3-2.3 7.5-.9 6.4 3.3-2.7 6.2-.2 8.2 2.7 1.8 2.5 1.6 9.8-.9 18.2-2.7 8.9-10 17.7-10 17.7 4 0 9.5-3.5 9.5-3.5l-1.3 5.5c4.2-2 7.5-5.1 7.5-5.1l4 4.2c1.3-1.8 4-4.2 4-4.2s3.5 3.5 8.6 4z"/><path fill="none" stroke="#C09300" stroke-width="1.27" d="M446.1 227.9s-2.2 16.4-6.4 21.1M449.7 227.4s-.9 16.6-3.8 22M452.8 228.1s0 18.2 1.1 21.3M456.7 229s.9 15.3 4.7 20.8"/><path fill="#C09300" stroke="#C09300" stroke-width=".354" d="M442.1 219.9c-.2-1.5-.5-2.6-1.1-3.3-2-2.9-4.9-5.3-8.2-2.7 0 0 1.1-3.5 3.6-3.6 1.9-.1 6.2 1.4 9.9 7.8 0 0-2.8-.6-3.5 0-1.2 1.1-.7 1.8-.7 1.8z"/><path fill="#C09300" stroke="#C09300" stroke-width=".354" d="M432.4 209.6c.3-.9.7-1.7 1.3-2.1 2-1.3 6.4-.9 10.9.2 0 0-.4-1.9 2-1.8 4.2.2 10.7 2 12.7 4 .5.5 1 1.3 1.5 2.4h-.1c-1-1.4-3.8-1.3-4.4-1.2-1.1.1-1.7.1-3.1.4-.7.2-1.7.4-2.2.8-.4.4-.8 1.6-1.5 1.6-1.1 0-1-.3-1.3-.6-.4-.4-.5-1.1-.9-1-1.1.2-2.9-.7-5.1-2.4-2.2-1.8-3.1-2.2-6-2-2.9.2-3.8 1.8-3.8 1.8v-.1z"/><circle fill="#FFF" cx="448.8" cy="211" r="1.2"/></svg>