<svg xmlns="http://www.w3.org/2000/svg" width="900" height="600" viewBox="0 0 900 600"><path fill="#C60B1E" d="M0 0h900v600H0z"/><path fill="#FFC400" d="M0 150h900v300H0z"/><path fill="#AD1519" stroke="#000" stroke-width=".26" stroke-linejoin="round" d="M201.6 266.8s-.6 0-.9-.2c-.3-.2-1.4-1.2-1.4-1.2l-.8-.6-.7-1s-.9-1.4-.5-2.5 1.1-1.5 1.7-1.8c.6-.3 1.9-.7 1.9-.7s1-.4 1.4-.5c.3-.1 1.6-.4 1.6-.4s.3-.2.7-.3c.3-.1.8-.1 1.1-.2.3-.1.9-.3 1.4-.3.6 0 1.6.1 2 .1.3 0 1.5.1 2 .1s2.2-.1 2.6-.1c.5 0 .8-.1 1.4 0 .5.1 1.5.4 1.8.5.3.1 1.9.7 2.5.9.6.2 2.1.4 2.8.8.7.3 1.1.9 1.4 1.3.3.4.4.9.5 1.3.1.3.1 1 0 1.3-.1.3-.6 1-.6 1l-.7 1.2-.9.8s-.7.6-1.2.6-6-1-9.6-1-9.5.9-9.5.9z"/><ellipse fill="#C8B100" stroke="#000" stroke-width=".26" cx="210.8" cy="258.9" rx="1.7" ry="3"/><ellipse fill="#C8B100" stroke="#000" stroke-width=".26" cx="210.8" cy="258.9" rx=".8" ry="2.8"/><ellipse fill="#C8B100" cx="210.8" cy="255.7" rx="1.1" ry="1"/><path fill="#C8B100" stroke="#000" stroke-width=".3" d="M212.4 255.4v.7h-3v-.7h1.1v-1.6h-.7v-.7h.7v-.7h.7v.7h.7v.7h-.7v1.6h1.2"/><path fill="none" stroke="#000" stroke-width=".26" d="M211.1 254.7c.6.2.9.7.8 1.3-.2.6-.8.9-1.4.7-.6-.2-.9-.7-.8-1.3.1-.4.4-.6.8-.7"/><path fill="#C8B100" stroke="#000" stroke-width=".26" d="M210.8 266.6H205l-.1-1.4-.3-1.5-.3-1.8c-1.6-2.1-3.1-3.5-3.6-3.2.1-.4.3-.7.6-.9 1.4-.8 4.3 1.2 6.5 4.5l.6.9h4.8l.6-.9c2.2-3.3 5.1-5.3 6.5-4.5.3.2.4.5.6.9-.5-.3-1.9 1.1-3.6 3.2l-.3 1.8-.3 1.5-.1 1.4h-5.8z"/><path fill="none" stroke="#000" stroke-width=".26" d="M201.1 258.6c1.1-.6 3.6 1.4 5.7 4.5m13.8-4.5c-1.1-.6-3.6 1.4-5.7 4.5"/><path fill="#C8B100" stroke="#000" stroke-width=".26" d="M202.3 269.2c-.2-.7-.7-1.3-.7-1.3 2.3-.7 5.6-1.1 9.2-1.1 3.6 0 6.9.4 9.2 1.1 0 0-.3.5-.6 1.1l-.5 1c-2.1-.6-4.8-1-8.2-1-3.3 0-6.6.4-8.2 1 .1 0-.1-.4-.2-.8"/><path fill="#C8B100" stroke="#000" stroke-width=".26" d="M210.8 272.2c2.9 0 6.1-.5 7.3-.8.8-.2 1.3-.6 1.2-1 0-.2-.2-.4-.4-.5-1.8-.6-4.9-1-8.1-1-3.2 0-6.3.4-8.1 1-.2.1-.4.3-.4.5-.1.4.4.8 1.2 1 1.2.3 4.4.7 7.3.8zM220.2 266.6l-.7-.6s-.7.4-1.5.3c-.8-.1-1.1-1.2-1.1-1.2s-.9.8-1.7.7c-.8-.1-1.3-.7-1.3-.7s-.9.6-1.6.6c-.7-.1-1.5-1-1.5-1s-.8 1-1.5 1c-.7.1-1.4-.6-1.4-.6s-.3.7-1.3.9c-.9.2-1.8-.7-1.8-.7s-.5.9-1.2 1.1c-.6.2-1.5-.3-1.5-.3s-.1.3-.2.5-.4.2-.4.2l.2.6c2.3-.7 5.5-1.1 9-1.1 3.6 0 6.8.4 9.1 1.1l.4-.8z"/><path fill="#C8B100" stroke="#000" stroke-width=".26" d="M210.8 263.5l.3.1c-.1.1-.1.3-.1.5 0 .7.6 1.3 1.3 1.3.6 0 1.1-.4 1.3-.9 0 0 .1-.5.2-.5 0 0 0 .5.1.5.1.6.7 1.1 1.3 1.1.7 0 1.3-.6 1.3-1.3v-.1l.4-.4.2.5c-.1.2-.1.3-.1.6 0 .7.6 1.2 1.3 1.2.4 0 .8-.2 1.1-.5l.3-.3v.4c0 .4.2.8.6.9 0 0 .5 0 1.1-.5.6-.5 1-.9 1-.9v.5s-.6 1-1.2 1.3c-.3.2-.8.4-1.1.3-.4-.1-.7-.4-.8-.7-.3.2-.6.3-1 .3-.8 0-1.4-.4-1.7-1-.3.4-.8.6-1.4.6-.6 0-1.2-.3-1.5-.7-.3.3-.8.5-1.3.5-.7 0-1.3-.3-1.6-.8-.3.5-.9.8-1.6.8-.5 0-1-.2-1.3-.5-.3.4-.9.7-1.5.7s-1.1-.2-1.4-.6c-.3.6-.9 1-1.7 1-.3 0-.7-.1-.9-.3-.1.4-.4.7-.8.7-.4.1-.8-.1-1.1-.3-.6-.3-1.2-1.3-1.2-1.3l.1-.5s.3.4 1 .9c.6.5 1.1.5 1.1.5.4-.1.6-.4.6-.9v-.7l.3.3c.2.3.6.5 1.1.5.7 0 1.3-.5 1.3-1.2 0-.2 0-.4-.1-.6l.2-.5.4.4v.1c0 .7.6 1.3 1.3 1.3.7 0 1.2-.4 1.3-1.1v-.5c.1 0 .2.5.2.5.2.5.7.9 1.3.9.7 0 1.3-.6 1.3-1.3 0-.2 0-.3-.1-.5l.2.2z"/><path fill="#C8B100" stroke="#000" stroke-width=".26" stroke-linejoin="round" d="M210.8 266.8c-3.6 0-6.9.4-9.2 1.1-.2 0-.3-.1-.4-.2 0-.2.1-.3.2-.4 2.3-.7 5.7-1.2 9.4-1.2s7.1.5 9.4 1.2c.2 0 .3.2.2.4 0 .1-.2.3-.4.2-2.3-.7-5.6-1.1-9.2-1.1z"/><path fill="#C8B100" stroke="#000" stroke-width=".26" d="M198.5 265.3s-.5-.6-.8-.9c-.2-.2-.8-.4-.8-.4 0-.1.3-.3.7-.3.2 0 .4.1.5.2v-.2s.3.1.4.4c.1.3.1.9.1.9s0 .2-.1.3zM200.8 264.3l-.1.8-1.7.2-.3-.1v-.3l1.3-1 .8.4"/><path fill="#C8B100" stroke="#000" stroke-width=".26" d="M198.5 265c.1-.1.4-.1.6.1.2.2.3.5.1.6-.1.2-.4.1-.6-.1-.1-.2-.2-.5-.1-.6zM201.6 265.1c-.1-.2 0-.4.2-.5.2 0 .4.1.4.3.1.2 0 .5-.2.5-.1.1-.3 0-.4-.3zM202.4 264.1l.6.6 1.5-.8.1-.3-.2-.2-1.7-.1-.3.8"/><path fill="#C8B100" stroke="#000" stroke-width=".26" d="M204.1 261.4l-.8.8 1 1.4.3.1.2-.2.4-1.6-1.1-.5"/><path fill="#C8B100" stroke="#000" stroke-width=".26" d="M206.8 263.2l-.3.8-1.7-.2-.2-.2.1-.3 1.5-.8.6.7"/><ellipse fill="#C8B100" stroke="#000" stroke-width=".26" cx="204.6" cy="263.7" rx=".6" ry=".6"/><path fill="#C8B100" stroke="#000" stroke-width=".26" d="M207.4 264c0-.2.1-.4.3-.5.2 0 .3.2.4.4 0 .2-.1.4-.3.5-.2 0-.3-.2-.4-.4zM208.5 263.2l.5.7 1.6-.5.2-.2-.2-.2-1.6-.5-.5.7M210.8 260.7l-1 .6.8 1.7.3.2.3-.2.8-1.7-1.2-.6"/><path fill="#C8B100" stroke="#000" stroke-width=".26" d="M213.1 263.2l-.5.7-1.6-.5-.2-.2.2-.2 1.6-.5.5.7"/><ellipse fill="#C8B100" stroke="#000" stroke-width=".26" cx="210.8" cy="263.1" rx=".6" ry=".6"/><path fill="#C8B100" stroke="#000" stroke-width=".26" d="M214.2 264c0-.2-.1-.4-.3-.5-.2 0-.3.2-.4.4 0 .2.1.4.3.5.2 0 .4-.2.4-.4zM214.8 263.2l.3.8 1.7-.2.2-.2-.1-.3-1.5-.8-.6.7"/><path fill="#C8B100" stroke="#000" stroke-width=".26" d="M217.5 261.4l.8.8-1 1.4-.3.1-.2-.2-.4-1.6 1.1-.5"/><path fill="#C8B100" stroke="#000" stroke-width=".26" d="M219.2 264.1l-.6.6-1.5-.8-.1-.3.2-.2 1.7-.1.3.8"/><ellipse fill="#C8B100" stroke="#000" stroke-width=".26" cx="217" cy="263.7" rx=".6" ry=".6"/><path fill="#C8B100" stroke="#000" stroke-width=".26" d="M220 265.1c.1-.2 0-.4-.2-.5-.2 0-.4.1-.4.3-.1.2 0 .5.2.5.1.1.3 0 .4-.3zM222.9 265.3s.5-.6.8-.9c.2-.2.8-.4.8-.4 0-.1-.3-.3-.7-.3-.2 0-.4.1-.5.2v-.2s-.3.1-.4.4c-.1.3 0 .9 0 .9s-.1.2 0 .3zM220.6 264.3l.1.8 1.7.2.3-.1-.1-.3-1.3-1-.7.4"/><path fill="#C8B100" stroke="#000" stroke-width=".26" d="M222.9 265c-.1-.1-.4-.1-.6.1-.2.2-.3.5-.1.6.1.2.4.1.6-.1.2-.2.2-.5.1-.6z"/><path fill="#AD1519" stroke="#000" stroke-width=".26" d="M201.7 269.2l.4-.6.8.2-.5.7-.7-.3"/><path fill="#058E6E" stroke="#000" stroke-width=".26" d="M205 268.7l-.8.1c-.2 0-.4-.1-.5-.3 0-.2.1-.4.3-.4l.8-.1.9-.1c.2 0 .4.1.4.3 0 .2-.1.4-.3.4l-.8.1"/><ellipse fill="#FFF" stroke="#000" stroke-width=".26" cx="207.8" cy="268" rx=".5" ry=".5"/><path fill="#AD1519" stroke="#000" stroke-width=".26" d="M210.8 268.3h-1.2c-.2 0-.4-.2-.4-.4s.2-.4.4-.4h2.4c.2 0 .4.2.4.4s-.2.4-.4.4h-1.2"/><ellipse fill="#FFF" stroke="#000" stroke-width=".26" cx="213.8" cy="268" rx=".5" ry=".5"/><path fill="#058E6E" stroke="#000" stroke-width=".26" d="M216.6 268.7l.8.1c.2 0 .4-.1.5-.3 0-.2-.1-.4-.3-.4l-.8-.1-.9-.1c-.2 0-.4.1-.4.3 0 .2.1.4.3.4l.8.1"/><path fill="#AD1519" stroke="#000" stroke-width=".26" d="M219.9 269.3l-.3-.6-.8.1.4.7.7-.2"/><path fill="#AD1519" stroke="#000" stroke-width=".26" stroke-linejoin="round" d="M210.8 271.5c-2.9 0-5.6-.3-7.6-.8 2-.5 4.6-.8 7.6-.8 2.9 0 5.6.3 7.6.8-2 .5-4.7.8-7.6.8z"/><path fill="none" stroke="#000" stroke-width=".01" d="M212.2 271.4V270m-.7 1.4v-1.5m-.5 1.5v-1.5"/><path fill="none" stroke="#000" stroke-width=".02" d="M210.5 271.5V270"/><path fill="none" stroke="#000" stroke-width=".03" d="M210.1 271.5V270"/><path fill="none" stroke="#000" stroke-width=".04" d="M209.7 271.5V270M209.3 271.5V270"/><path fill="none" stroke="#000" stroke-width=".05" d="M209 271.5V270"/><path fill="none" stroke="#000" stroke-width=".06" d="M208.3 271.4V270m.3 1.4v-1.5"/><path fill="none" stroke="#000" stroke-width=".07" d="M207.7 271.3V270m.3 1.3v-1.4"/><path fill="none" stroke="#000" stroke-width=".08" d="M206.9 271.2v-1.1m.3 1.2v-1.2m.3 1.2v-1.2"/><path fill="none" stroke="#000" stroke-width=".09" d="M206.6 271.2v-1.1"/><path fill="none" stroke="#000" stroke-width=".1" d="M206.4 271.2v-1"/><path fill="none" stroke="#000" stroke-width=".11" d="M206.1 271.1v-.9"/><path fill="none" stroke="#000" stroke-width=".12" d="M205.5 271.1v-.7m.3.7v-.8M205.2 271v-.7"/><path fill="none" stroke="#000" stroke-width=".13" d="M204.9 271v-.6"/><path fill="none" stroke="#000" stroke-width=".14" d="M204.6 270.9v-.4"/><path fill="none" stroke="#000" stroke-width=".15" d="M204.3 270.8v-.3"/><path fill="none" stroke="#000" stroke-width=".18" d="M204 270.8v-.2"/><path fill="#005BBF" stroke="#000" stroke-width=".39" d="M229.5 396.9c-1.8 0-3.5-.4-4.7-1-1.2-.6-2.8-1-4.6-1-1.8 0-3.5.4-4.7 1-1.2.6-2.9 1-4.7 1-1.8 0-3.5-.4-4.7-1.1-1.2-.6-2.8-.9-4.5-.9-1.8 0-3.4.3-4.6 1-1.2.6-2.9 1.1-4.7 1.1v2.9c1.8 0 3.5-.4 4.7-1.1 1.2-.6 2.8-1 4.6-1 1.7 0 3.3.4 4.5 1 1.2.6 2.9 1.1 4.7 1.1 1.8 0 3.5-.4 4.7-1 1.2-.6 2.9-1 4.7-1 1.8 0 3.4.4 4.6 1 1.2.6 2.8 1 4.7 1v-3z"/><path fill="#CCC" stroke="#000" stroke-width=".39" d="M229.5 399.8c-1.8 0-3.5-.4-4.7-1-1.2-.6-2.8-1-4.6-1-1.8 0-3.5.4-4.7 1-1.2.6-2.9 1-4.7 1-1.8 0-3.5-.4-4.7-1.1-1.2-.6-2.8-1-4.5-1-1.8 0-3.4.4-4.6 1-1.2.6-2.9 1.1-4.7 1.1v2.9c1.8 0 3.5-.4 4.7-1.1 1.2-.6 2.8-1 4.6-1 1.7 0 3.3.4 4.5 1 1.2.6 2.9 1.1 4.7 1.1 1.8 0 3.5-.4 4.7-1 1.2-.6 2.9-1 4.7-1 1.8 0 3.4.4 4.6 1 1.2.6 2.8 1 4.7 1v-2.9"/><path fill="#005BBF" stroke="#000" stroke-width=".39" d="M229.5 402.7c-1.8 0-3.5-.4-4.7-1-1.2-.6-2.8-1-4.6-1-1.8 0-3.5.4-4.7 1-1.2.6-2.9 1-4.7 1-1.8 0-3.5-.4-4.7-1.1-1.2-.6-2.8-1-4.5-1-1.8 0-3.4.4-4.6 1-1.2.6-2.9 1.1-4.7 1.1v2.9c1.8 0 3.5-.4 4.7-1.1 1.2-.6 2.8-1 4.6-1 1.7 0 3.3.4 4.5.9 1.2.6 2.9 1.1 4.7 1.1 1.8 0 3.5-.4 4.7-1 1.2-.6 2.9-1 4.7-1 1.8 0 3.4.4 4.6 1 1.2.7 2.8 1 4.7 1v-2.8"/><path fill="#CCC" stroke="#000" stroke-width=".39" d="M229.5 408.5c-1.8 0-3.5-.4-4.7-1-1.2-.6-2.8-1-4.6-1-1.8 0-3.5.4-4.7 1-1.2.6-2.9 1-4.7 1-1.8 0-3.5-.4-4.7-1.1-1.2-.6-2.8-.9-4.5-.9-1.8 0-3.4.3-4.6 1-1.2.6-2.9 1.1-4.7 1.1v-2.9c1.8 0 3.5-.4 4.7-1.1 1.2-.6 2.8-1 4.6-1 1.7 0 3.3.4 4.5.9 1.2.6 2.9 1.1 4.7 1.1 1.8 0 3.5-.4 4.7-1 1.2-.6 2.9-1 4.7-1 1.8 0 3.4.4 4.6 1 1.2.7 2.9 1 4.7 1v2.9"/><path fill="#005BBF" stroke="#000" stroke-width=".39" d="M229.5 411.4c-1.8 0-3.5-.4-4.7-1-1.2-.6-2.8-1-4.6-1-1.8 0-3.5.4-4.7 1-1.2.6-2.9 1-4.7 1-1.8 0-3.5-.4-4.7-1.1-1.2-.6-2.8-1-4.5-1-1.8 0-3.4.4-4.6 1-1.2.6-2.9 1.1-4.7 1.1v-2.9c1.8 0 3.5-.4 4.7-1.1 1.2-.6 2.8-1 4.6-1 1.7 0 3.3.4 4.5.9 1.2.6 2.9 1.1 4.7 1.1 1.8 0 3.5-.4 4.7-1 1.2-.6 2.9-1 4.7-1 1.8 0 3.4.4 4.6 1 1.2.6 2.9 1 4.7 1v3z"/><path fill="#C8B100" stroke="#000" stroke-width=".39" stroke-linejoin="round" d="M200.3 385c.1.3.2.5.2.7 0 1.8-1.5 3.2-3.4 3.2h27.5c-1.9 0-3.4-1.4-3.4-3.2 0-.3 0-.5.1-.7-.2.1-.3.1-.5.1h-20c-.2 0-.4 0-.5-.1z"/><path fill="#C8B100" stroke="#000" stroke-width=".39" d="M200.8 383.2h20c.7 0 1.2.4 1.2.9s-.5.9-1.2.9h-20c-.7 0-1.2-.4-1.2-.9s.5-.9 1.2-.9zM197.1 395.9h27.4v-7h-27.4v7z"/><path fill="#CCC" stroke="#000" stroke-width=".39" d="M201.1 382.1h19.5v-95.6h-19.5v95.6z"/><path fill="none" stroke="#000" stroke-width=".39" d="M215 286.6V382m2.2-95.4V382"/><path fill="#C8B100" stroke="#000" stroke-width=".39" d="M197.5 278.9h26.7v-7h-26.7v7z"/><path fill="#C8B100" stroke="#000" stroke-width=".39" stroke-linejoin="round" d="M200.3 283.6c.2-.1.3-.1.5-.1h20c.2 0 .4 0 .6.1-.7-.2-1.2-.9-1.2-1.6 0-.7.5-1.4 1.2-1.6-.2 0-.4.1-.6.1h-20c-.2 0-.4 0-.6-.1h.1c.7.2 1.1.9 1.1 1.5.1.8-.4 1.5-1.1 1.7z"/><path fill="#C8B100" stroke="#000" stroke-width=".39" d="M200.8 283.5h20c.7 0 1.2.4 1.2.9s-.5.9-1.2.9h-20c-.7 0-1.2-.4-1.2-.9s.5-.9 1.2-.9zM200.8 278.9h20c.7 0 1.2.4 1.2.8s-.6.8-1.2.8h-20c-.7 0-1.2-.4-1.2-.8s.5-.8 1.2-.8z"/><path fill="#AD1519" stroke="#000" stroke-width=".39" d="M195 358.4c-2.7 1.6-4.6 3.2-4.3 4 .1.7 1 1.3 2.2 2.1 1.9 1.4 3.1 3.8 2.2 4.9 1.6-1.3 2.6-3.2 2.6-5.4.1-2.3-1-4.3-2.7-5.6z"/><path fill="#AD1519" stroke="#000" stroke-width=".39" stroke-linejoin="round" d="M240.5 322.2c-4.2-1.8-11.5-3.1-19.8-3.3-2.9 0-6 .3-9.3.8-11.7 2-20.6 6.6-19.8 10.4 0 .1 0 .2.1.3 0 0-4.4-9.9-4.4-10.2-.8-4.2 9.1-9.4 22-11.5 4.1-.7 8-.9 11.5-.9 8.3 0 15.5 1.1 19.8 2.7l-.1 11.7"/><path fill="#AD1519" stroke="#000" stroke-width=".39" d="M201 334.2c-5.4-.4-9.1-1.8-9.5-4.1-.3-1.8 1.5-3.8 4.8-5.6 1.5.2 3.1.4 4.8.4l-.1 9.3M220.6 326.9c3.4.5 5.9 1.4 7.2 2.4l.1.2c.6 1.2-2.4 3.9-7.3 6.8v-9.4"/><path fill="#AD1519" stroke="#000" stroke-width=".39" stroke-linejoin="round" d="M188.9 352.7c-.5-1.5 4.8-4.6 12.2-7.4 3.4-1.2 6.2-2.5 9.7-4 10.4-4.6 18-9.8 17.1-11.7l-.1-.2c.6.5 1.4 9.9 1.4 9.9.9 1.8-6.1 6.9-15.6 11.5-3 1.5-9.5 3.8-12.5 4.9-5.4 1.9-10.8 5.4-10.4 6.8l-1.8-9.8z"/><path fill="#AD1519" stroke="#000" stroke-width=".27" d="M389.8 264.6s-.9.9-1.5 1.1c-.6.1-1.5-.6-1.5-.6s-.6.6-1.3.8c-.7.2-1.7-.8-1.7-.8s-.7 1-1.3 1.2c-.6.2-1.4-.3-1.4-.3s-.3.5-.8.7c-.2.1-.6-.1-.6-.1l-.7-.5-.8-.9-.7-.3s-.3-1.1-.4-1.3c0-.2-.1-.7-.1-.7-.2-.8 1-1.7 2.8-2.1 1-.2 1.8-.2 2.5 0 .7-.6 2.1-1 3.8-1 1.5 0 2.9.3 3.6.8.7-.5 2.1-.8 3.6-.8 1.7 0 3.1.4 3.8 1 .6-.2 1.5-.2 2.5 0 1.7.4 2.9 1.3 2.8 2.1 0 0-.1.5-.1.7 0 .2-.4 1.3-.4 1.3l-.7.3-.8.9-.7.5s-.4.2-.6.1c-.5-.3-.8-.7-.8-.7s-.7.5-1.4.3c-.6-.2-1.3-1.2-1.3-1.2s-1 1-1.7.8c-.7-.2-1.3-.8-1.3-.8s-.8.7-1.5.6c-.4-.2-1.3-1.1-1.3-1.1z"/><ellipse fill="#C8B100" stroke="#000" stroke-width=".26" cx="389.8" cy="259.5" rx="1.7" ry="2.4"/><ellipse fill="#C8B100" stroke="#000" stroke-width=".26" cx="389.8" cy="259.5" rx=".8" ry="2.2"/><ellipse fill="#C8B100" cx="389.8" cy="256.8" rx="1.1" ry="1.1"/><path fill="#C8B100" stroke="#000" stroke-width=".3" d="M391.4 256.4v.7h-3v-.7h1.1v-1.6h-.7v-.7h.7v-.7h.7v.7h.7v.7h-.7v1.6h1.2"/><path fill="none" stroke="#000" stroke-width=".26" d="M390.1 255.8c.6.2.9.8.7 1.3-.2.6-.8.9-1.4.7-.6-.2-.9-.8-.7-1.3.1-.3.4-.6.8-.7"/><path fill="none" stroke="#000" stroke-width=".26" stroke-linecap="round" d="M377.3 264.1c-.2-.4-.3-.8-.3-1.3 0-1.9 1.5-3.5 3.4-3.5.6 0 1.2.2 1.6.4"/><path fill="none" stroke="#000" stroke-width=".26" d="M383.4 261.6c-.2-.3-.3-.6-.3-1 0-1.4 1.4-2.5 3.2-2.5.7 0 1.4.2 2 .5M396.2 261.6c.2-.3.3-.7.3-1 0-1.4-1.4-2.5-3.2-2.5-.7 0-1.4.2-2 .5"/><path fill="none" stroke="#000" stroke-width=".26" stroke-linecap="round" d="M402.3 264.1c.2-.4.3-.8.3-1.3 0-1.9-1.5-3.5-3.4-3.5-.6 0-1.2.2-1.7.4"/><ellipse fill="none" stroke="#000" stroke-width=".21" cx="376.3" cy="262.5" rx=".5" ry=".5"/><ellipse fill="none" stroke="#000" stroke-width=".21" cx="376.5" cy="260.6" rx=".5" ry=".5"/><ellipse fill="none" stroke="#000" stroke-width=".21" cx="377.7" cy="259.2" rx=".5" ry=".5"/><ellipse fill="none" stroke="#000" stroke-width=".21" cx="379.3" cy="258.4" rx=".5" ry=".5"/><ellipse fill="none" stroke="#000" stroke-width=".21" cx="381.1" cy="258.4" rx=".5" ry=".5"/><ellipse fill="#FFF" stroke="#000" stroke-width=".21" cx="382.1" cy="260.6" rx=".5" ry=".5"/><ellipse fill="none" stroke="#000" stroke-width=".21" cx="382.4" cy="258.8" rx=".5" ry=".5"/><ellipse fill="none" stroke="#000" stroke-width=".21" cx="383.8" cy="257.6" rx=".5" ry=".5"/><ellipse fill="none" stroke="#000" stroke-width=".21" cx="385.5" cy="257.1" rx=".5" ry=".5"/><ellipse fill="none" stroke="#000" stroke-width=".21" cx="387.2" cy="257.2" rx=".5" ry=".5"/><ellipse fill="none" stroke="#000" stroke-width=".21" cx="392.3" cy="257.2" rx=".5" ry=".5"/><ellipse fill="none" stroke="#000" stroke-width=".21" cx="394.1" cy="257.1" rx=".5" ry=".5"/><ellipse fill="none" stroke="#000" stroke-width=".21" cx="395.8" cy="257.6" rx=".5" ry=".5"/><ellipse fill="none" stroke="#000" stroke-width=".21" cx="397.1" cy="258.8" rx=".5" ry=".5"/><ellipse fill="#FFF" stroke="#000" stroke-width=".21" cx="397.4" cy="260.6" rx=".5" ry=".5"/><ellipse fill="none" stroke="#000" stroke-width=".21" cx="398.5" cy="258.4" rx=".5" ry=".5"/><ellipse fill="none" stroke="#000" stroke-width=".21" cx="400.2" cy="258.4" rx=".5" ry=".5"/><ellipse fill="none" stroke="#000" stroke-width=".21" cx="401.8" cy="259.2" rx=".5" ry=".5"/><ellipse fill="none" stroke="#000" stroke-width=".21" cx="403.1" cy="260.6" rx=".5" ry=".5"/><ellipse fill="none" stroke="#000" stroke-width=".21" cx="403.3" cy="262.5" rx=".5" ry=".5"/><path fill="#C8B100" stroke="#000" stroke-width=".26" d="M381.3 269.2c-.2-.7-.7-1.3-.7-1.3 2.3-.7 5.6-1.1 9.2-1.1 3.6 0 6.9.4 9.2 1.1 0 0-.3.5-.6 1.1l-.5 1c-2.1-.6-4.8-1-8.2-1-3.3 0-6.6.4-8.2 1 .1 0-.1-.4-.2-.8"/><path fill="#C8B100" stroke="#000" stroke-width=".26" d="M389.8 272.2c2.9 0 6.1-.5 7.3-.8.8-.2 1.3-.6 1.2-1 0-.2-.2-.4-.4-.5-1.8-.6-4.9-1-8.1-1-3.2 0-6.3.4-8.1 1-.2.1-.4.3-.4.5-.1.4.4.8 1.2 1 1.2.3 4.4.7 7.3.8zM399.2 266.6l-.7-.6s-.7.4-1.5.3c-.8-.1-1.1-1.2-1.1-1.2s-.9.8-1.7.7c-.8-.1-1.3-.7-1.3-.7s-.9.6-1.6.6c-.7-.1-1.5-1-1.5-1s-.8 1-1.5 1c-.7.1-1.4-.6-1.4-.6s-.3.7-1.3.9c-.9.2-1.8-.7-1.8-.7s-.5.9-1.2 1.1c-.6.2-1.5-.3-1.5-.3s-.1.3-.2.5-.4.2-.4.2l.2.6c2.3-.7 5.5-1.1 9-1.1 3.6 0 6.8.4 9.1 1.1l.4-.8z"/><path fill="#C8B100" stroke="#000" stroke-width=".26" d="M389.8 263.5l.3.1c-.1.1-.1.3-.1.5 0 .7.6 1.3 1.3 1.3.6 0 1.1-.4 1.3-.9 0 0 .1-.5.2-.5 0 0 0 .5.1.5.1.6.7 1.1 1.3 1.1.7 0 1.3-.6 1.3-1.3v-.1l.4-.4.2.5c-.1.2-.1.3-.1.6 0 .7.6 1.2 1.3 1.2.4 0 .8-.2 1.1-.5l.3-.3v.4c0 .4.2.8.6.9 0 0 .5 0 1.1-.5.6-.5 1-.9 1-.9v.5s-.6 1-1.2 1.3c-.3.2-.8.4-1.1.3-.4-.1-.7-.4-.8-.7-.3.2-.6.3-1 .3-.8 0-1.4-.4-1.7-1-.3.4-.8.6-1.4.6-.6 0-1.2-.3-1.5-.7-.3.3-.8.5-1.3.5-.7 0-1.3-.3-1.6-.8-.3.5-.9.8-1.6.8-.5 0-1-.2-1.3-.5-.3.4-.9.7-1.5.7s-1.1-.2-1.4-.6c-.3.6-.9 1-1.7 1-.3 0-.7-.1-.9-.3-.1.4-.4.7-.8.7-.4.1-.8-.1-1.1-.3-.6-.3-1.2-1.3-1.2-1.3l.1-.5s.3.4 1 .9c.6.5 1.1.5 1.1.5.4-.1.6-.4.6-.9v-.7l.3.3c.2.3.6.5 1.1.5.7 0 1.3-.5 1.3-1.2 0-.2 0-.4-.1-.6l.2-.5.4.4v.1c0 .7.6 1.3 1.3 1.3.7 0 1.2-.4 1.3-1.1v-.5c.1 0 .2.5.2.5.2.5.7.9 1.3.9.7 0 1.3-.6 1.3-1.3 0-.2 0-.3-.1-.5l.2.2z"/><path fill="#C8B100" stroke="#000" stroke-width=".26" stroke-linejoin="round" d="M389.8 266.8c-3.6 0-6.9.4-9.2 1.1-.2 0-.3-.1-.4-.2 0-.2.1-.3.2-.4 2.3-.7 5.7-1.2 9.4-1.2s7.1.5 9.4 1.2c.2 0 .3.2.2.4 0 .1-.2.3-.4.2-2.3-.7-5.6-1.1-9.2-1.1z"/><path fill="#C8B100" stroke="#000" stroke-width=".26" d="M377.5 265.3s-.5-.6-.8-.9c-.2-.2-.8-.4-.8-.4 0-.1.3-.3.7-.3.2 0 .4.1.5.2v-.2s.3.1.4.4c.1.3.1.9.1.9s0 .2-.1.3zM379.8 264.3l-.1.8-1.7.2-.3-.1v-.3l1.3-1 .8.4"/><path fill="#C8B100" stroke="#000" stroke-width=".26" d="M377.5 265c.1-.1.4-.1.6.1.2.2.3.5.1.6-.1.2-.4.1-.6-.1-.1-.2-.2-.5-.1-.6zM380.6 265.1c-.1-.2 0-.4.2-.5.2 0 .4.1.4.3.1.2 0 .5-.2.5-.1.1-.3 0-.4-.3zM381.4 264.1l.6.6 1.5-.8.1-.3-.2-.2-1.7-.1-.3.8"/><path fill="#C8B100" stroke="#000" stroke-width=".26" d="M383.1 261.4l-.8.8 1 1.4.3.1.2-.2.4-1.6-1.1-.5"/><path fill="#C8B100" stroke="#000" stroke-width=".26" d="M385.8 263.2l-.3.8-1.7-.2-.2-.2.1-.3 1.5-.8.6.7"/><ellipse fill="#C8B100" stroke="#000" stroke-width=".26" cx="383.6" cy="263.7" rx=".6" ry=".6"/><path fill="#C8B100" stroke="#000" stroke-width=".26" d="M386.4 264c0-.2.1-.4.3-.5.2 0 .3.2.4.4 0 .2-.1.4-.3.5-.2 0-.3-.2-.4-.4zM387.5 263.2l.5.7 1.6-.5.2-.2-.2-.2-1.6-.5-.5.7M389.8 260.7l-1 .6.8 1.7.3.2.3-.2.8-1.7-1.2-.6"/><path fill="#C8B100" stroke="#000" stroke-width=".26" d="M392.1 263.2l-.5.7-1.6-.5-.2-.2.2-.2 1.6-.5.5.7"/><ellipse fill="#C8B100" stroke="#000" stroke-width=".26" cx="389.8" cy="263.1" rx=".6" ry=".6"/><path fill="#C8B100" stroke="#000" stroke-width=".26" d="M393.2 264c0-.2-.1-.4-.3-.5-.2 0-.3.2-.4.4 0 .2.1.4.3.5.2 0 .4-.2.4-.4zM393.8 263.2l.3.8 1.7-.2.2-.2-.1-.3-1.5-.8-.6.7"/><path fill="#C8B100" stroke="#000" stroke-width=".26" d="M396.5 261.4l.8.8-1 1.4-.3.1-.2-.2-.4-1.6 1.1-.5"/><path fill="#C8B100" stroke="#000" stroke-width=".26" d="M398.2 264.1l-.6.6-1.5-.8-.1-.3.2-.2 1.7-.1.3.8"/><ellipse fill="#C8B100" stroke="#000" stroke-width=".26" cx="396" cy="263.7" rx=".6" ry=".6"/><path fill="#C8B100" stroke="#000" stroke-width=".26" d="M399 265.1c.1-.2 0-.4-.2-.5-.2 0-.4.1-.4.3-.1.2 0 .5.2.5.1.1.3 0 .4-.3zM401.9 265.3s.5-.6.8-.9c.2-.2.8-.4.8-.4 0-.1-.3-.3-.7-.3-.2 0-.4.1-.5.2v-.2s-.3.1-.4.4c-.1.3 0 .9 0 .9s-.1.2 0 .3zM399.6 264.3l.1.8 1.7.2.3-.1-.1-.3-1.3-1-.7.4"/><path fill="#C8B100" stroke="#000" stroke-width=".26" d="M401.9 265c-.1-.1-.4-.1-.6.1s-.3.5-.1.6c.1.2.4.1.6-.1.2-.2.2-.5.1-.6z"/><path fill="#AD1519" stroke="#000" stroke-width=".26" d="M380.7 269.2l.4-.6.8.2-.5.7-.7-.3"/><path fill="#058E6E" stroke="#000" stroke-width=".26" d="M384 268.7l-.8.1c-.2 0-.4-.1-.5-.3 0-.2.1-.4.3-.4l.8-.1.9-.1c.2 0 .4.1.4.3 0 .2-.1.4-.3.4l-.8.1"/><ellipse fill="#FFF" stroke="#000" stroke-width=".26" cx="386.8" cy="268" rx=".5" ry=".5"/><path fill="#AD1519" stroke="#000" stroke-width=".26" d="M389.8 268.3h-1.2c-.2 0-.4-.2-.4-.4s.2-.4.4-.4h2.4c.2 0 .4.2.4.4s-.2.4-.4.4h-1.2"/><ellipse fill="#FFF" stroke="#000" stroke-width=".26" cx="392.8" cy="268" rx=".5" ry=".5"/><path fill="#058E6E" stroke="#000" stroke-width=".26" d="M395.6 268.7l.8.1c.2 0 .4-.1.5-.3 0-.2-.1-.4-.3-.4l-.8-.1-.9-.1c-.2 0-.4.1-.4.3 0 .2.1.4.3.4l.8.1"/><path fill="#AD1519" stroke="#000" stroke-width=".26" d="M398.9 269.3l-.3-.6-.8.1.4.7.7-.2"/><path fill="#AD1519" stroke="#000" stroke-width=".26" stroke-linejoin="round" d="M389.8 271.5c-2.9 0-5.6-.3-7.6-.8 2-.5 4.6-.8 7.6-.8 2.9 0 5.6.3 7.6.8-2 .5-4.7.8-7.6.8z"/><path fill="none" stroke="#000" stroke-width=".01" d="M391.2 271.4V270m-.7 1.4v-1.5m-.5 1.5v-1.5"/><path fill="none" stroke="#000" stroke-width=".02" d="M389.5 271.5V270"/><path fill="none" stroke="#000" stroke-width=".03" d="M389.1 271.5V270"/><path fill="none" stroke="#000" stroke-width=".04" d="M388.7 271.5V270M388.3 271.5V270"/><path fill="none" stroke="#000" stroke-width=".05" d="M388 271.5V270"/><path fill="none" stroke="#000" stroke-width=".06" d="M387.3 271.4V270m.3 1.4v-1.5"/><path fill="none" stroke="#000" stroke-width=".07" d="M386.7 271.3V270m.3 1.3v-1.4"/><path fill="none" stroke="#000" stroke-width=".08" d="M385.9 271.2v-1.1m.3 1.2v-1.2m.3 1.2v-1.2"/><path fill="none" stroke="#000" stroke-width=".09" d="M385.6 271.2v-1.1"/><path fill="none" stroke="#000" stroke-width=".1" d="M385.4 271.2v-1"/><path fill="none" stroke="#000" stroke-width=".11" d="M385.1 271.1v-.9"/><path fill="none" stroke="#000" stroke-width=".12" d="M384.5 271.1v-.7m.3.7v-.8M384.2 271v-.7"/><path fill="none" stroke="#000" stroke-width=".13" d="M383.9 271v-.6"/><path fill="none" stroke="#000" stroke-width=".14" d="M383.6 270.9v-.4"/><path fill="none" stroke="#000" stroke-width=".15" d="M383.3 270.8v-.3"/><path fill="none" stroke="#000" stroke-width=".18" d="M383 270.8v-.2"/><path fill="#005BBF" stroke="#000" stroke-width=".39" d="M408.5 396.9c-1.8 0-3.5-.4-4.7-1-1.2-.6-2.8-1-4.6-1-1.8 0-3.5.4-4.7 1-1.2.6-2.9 1-4.7 1-1.8 0-3.5-.4-4.7-1.1-1.2-.6-2.8-.9-4.5-.9-1.8 0-3.4.3-4.6 1-1.2.6-2.9 1.1-4.7 1.1v2.9c1.8 0 3.5-.4 4.7-1.1 1.2-.6 2.8-1 4.6-1 1.7 0 3.3.4 4.5 1 1.2.6 2.9 1.1 4.7 1.1 1.8 0 3.5-.4 4.7-1 1.2-.6 2.9-1 4.7-1 1.8 0 3.4.4 4.6 1 1.2.6 2.8 1 4.7 1v-3z"/><path fill="#CCC" stroke="#000" stroke-width=".39" d="M408.5 399.8c-1.8 0-3.5-.4-4.7-1-1.2-.6-2.8-1-4.6-1-1.8 0-3.5.4-4.7 1-1.2.6-2.9 1-4.7 1-1.8 0-3.5-.4-4.7-1.1-1.2-.6-2.8-1-4.5-1-1.8 0-3.4.4-4.6 1-1.2.6-2.9 1.1-4.7 1.1v2.9c1.8 0 3.5-.4 4.7-1.1 1.2-.6 2.8-1 4.6-1 1.7 0 3.3.4 4.5 1 1.2.6 2.9 1.1 4.7 1.1 1.8 0 3.5-.4 4.7-1s2.9-1 4.7-1c1.8 0 3.4.4 4.6 1 1.2.6 2.8 1 4.7 1v-2.9"/><path fill="#005BBF" stroke="#000" stroke-width=".39" d="M408.5 402.7c-1.8 0-3.5-.4-4.7-1-1.2-.6-2.8-1-4.6-1-1.8 0-3.5.4-4.7 1s-2.9 1-4.7 1c-1.8 0-3.5-.4-4.7-1.1-1.2-.6-2.8-1-4.5-1-1.8 0-3.4.4-4.6 1-1.2.6-2.9 1.1-4.7 1.1v2.9c1.8 0 3.5-.4 4.7-1.1 1.2-.6 2.8-1 4.6-1 1.7 0 3.3.4 4.5.9 1.2.6 2.9 1.1 4.7 1.1 1.8 0 3.5-.4 4.7-1 1.2-.6 2.9-1 4.7-1 1.8 0 3.4.4 4.6 1 1.2.7 2.8 1 4.7 1v-2.8"/><path fill="#CCC" stroke="#000" stroke-width=".39" d="M408.5 408.5c-1.8 0-3.5-.4-4.7-1-1.2-.6-2.8-1-4.6-1-1.8 0-3.5.4-4.7 1-1.2.6-2.9 1-4.7 1-1.8 0-3.5-.4-4.7-1.1-1.2-.6-2.8-.9-4.5-.9-1.8 0-3.4.3-4.6 1-1.2.6-2.9 1.1-4.7 1.1v-2.9c1.8 0 3.5-.4 4.7-1.1 1.2-.6 2.8-1 4.6-1 1.7 0 3.3.4 4.5.9 1.2.6 2.9 1.1 4.7 1.1 1.8 0 3.5-.4 4.7-1 1.2-.6 2.9-1 4.7-1 1.8 0 3.4.4 4.6 1 1.2.7 2.9 1 4.7 1v2.9"/><path fill="#005BBF" stroke="#000" stroke-width=".39" d="M408.5 411.4c-1.8 0-3.5-.4-4.7-1-1.2-.6-2.8-1-4.6-1-1.8 0-3.5.4-4.7 1s-2.9 1-4.7 1c-1.8 0-3.5-.4-4.7-1.1-1.2-.6-2.8-1-4.5-1-1.8 0-3.4.4-4.6 1-1.2.6-2.9 1.1-4.7 1.1v-2.9c1.8 0 3.5-.4 4.7-1.1 1.2-.6 2.8-1 4.6-1 1.7 0 3.3.4 4.5.9 1.2.6 2.9 1.1 4.7 1.1 1.8 0 3.5-.4 4.7-1 1.2-.6 2.9-1 4.7-1 1.8 0 3.4.4 4.6 1 1.2.6 2.9 1 4.7 1v3z"/><path fill="#C8B100" stroke="#000" stroke-width=".39" stroke-linejoin="round" d="M379.3 385c.1.3.2.5.2.7 0 1.8-1.5 3.2-3.4 3.2h27.5c-1.9 0-3.4-1.4-3.4-3.2 0-.3 0-.5.1-.7-.2.1-.3.1-.5.1h-20c-.2 0-.3 0-.5-.1z"/><path fill="#C8B100" stroke="#000" stroke-width=".39" d="M379.8 383.2h20c.7 0 1.2.4 1.2.9s-.5.9-1.2.9h-20c-.7 0-1.2-.4-1.2-.9s.5-.9 1.2-.9zM376.1 395.9h27.4v-7h-27.4v7z"/><path fill="#CCC" stroke="#000" stroke-width=".39" d="M380.1 382.1h19.5v-95.6h-19.5v95.6z"/><path fill="none" stroke="#000" stroke-width=".39" d="M394 286.6V382m2.2-95.4V382"/><path fill="#C8B100" stroke="#000" stroke-width=".39" d="M376.5 278.9h26.7v-7h-26.7v7z"/><path fill="#C8B100" stroke="#000" stroke-width=".39" stroke-linejoin="round" d="M379.3 283.6c.2-.1.3-.1.5-.1h20c.2 0 .4 0 .6.1-.7-.2-1.2-.9-1.2-1.6 0-.7.5-1.4 1.2-1.6-.2 0-.4.1-.6.1h-20c-.2 0-.4 0-.6-.1h.1c.7.2 1.1.9 1.1 1.5.1.8-.4 1.5-1.1 1.7z"/><path fill="#C8B100" stroke="#000" stroke-width=".39" d="M379.8 283.5h20c.7 0 1.2.4 1.2.9s-.5.9-1.2.9h-20c-.7 0-1.2-.4-1.2-.9s.5-.9 1.2-.9zM379.8 278.9h20c.7 0 1.2.4 1.2.8s-.6.8-1.2.8h-20c-.7 0-1.2-.4-1.2-.8s.5-.8 1.2-.8z"/><path fill="#AD1519" stroke="#000" stroke-width=".39" d="M405.7 358.4c2.7 1.6 4.6 3.2 4.3 4-.1.7-1 1.3-2.2 2.1-1.9 1.4-3.1 3.8-2.2 4.9-1.6-1.3-2.6-3.2-2.6-5.4-.1-2.3 1-4.3 2.7-5.6z"/><path fill="#AD1519" stroke="#000" stroke-width=".39" stroke-linejoin="round" d="M360.2 322.2c4.2-1.8 11.5-3.1 19.8-3.3 2.9 0 6 .3 9.3.8 11.7 2 20.6 6.6 19.8 10.4 0 .1 0 .2-.1.3 0 0 4.4-9.9 4.4-10.2.8-4.2-9.1-9.4-22-11.5-4.1-.7-8-.9-11.5-.9-8.3 0-15.5 1.1-19.8 2.7l.1 11.7"/><path fill="#AD1519" stroke="#000" stroke-width=".39" d="M399.7 334.2c5.4-.4 9.1-1.8 9.5-4.1.3-1.8-1.5-3.8-4.8-5.6-1.5.2-3.1.4-4.8.4l.1 9.3M380.1 326.9c-3.4.5-5.9 1.4-7.2 2.4l-.1.2c-.6 1.2 2.4 3.9 7.3 6.8v-9.4"/><path fill="#AD1519" stroke="#000" stroke-width=".39" stroke-linejoin="round" d="M411.8 352.7c.5-1.5-4.8-4.6-12.2-7.4-3.4-1.2-6.2-2.5-9.7-4-10.4-4.6-18-9.8-17.1-11.7l.1-.2c-.6.5-1.4 9.9-1.4 9.9-.9 1.8 6.1 6.9 15.6 11.5 3 1.5 9.5 3.8 12.5 4.9 5.4 1.9 10.8 5.4 10.4 6.8l1.8-9.8z"/><path fill="#C8B100" d="M199.7 317.7c2.4-.9 3.9-1.9 3.2-3.8-.5-1.2-1.7-1.4-3.6-.8l-3.3 1.2 2.9 7.2c.3-.1.6-.3 1-.4.3-.1.7-.2 1-.3l-1.2-3.1zm-1.4-3.5l.8-.3c.7-.3 1.5.1 1.8 1 .3.6.2 1.4-.6 1.9-.3.2-.6.3-.8.4l-1.2-3M207.3 311.1c-.3.1-.7.2-1 .3-.3.1-.7.1-1.1.1l1.7 7.5 5.3-1.1c-.1-.1-.1-.3-.2-.5v-.5c-.9.3-1.9.6-3.1.8l-1.6-6.6M217.9 317.6c1-2.7 2.2-5.4 3.4-8-.2 0-.4.1-.6.1h-.6c-.6 1.9-1.4 3.9-2.2 5.8-1-1.8-2.1-3.6-2.9-5.4-.4 0-.8.1-1.2.1h-1.2c1.5 2.5 3 4.9 4.4 7.5.2 0 .4-.1.6-.1h.3M228.9 311.8c.2-.4.4-.7.6-1.1-.3-.3-1.2-.7-2.2-.8-2.1-.2-3.4.7-3.5 2-.3 2.7 4 2.5 3.8 4.3-.1.8-.9 1.1-1.8 1-1-.1-1.7-.6-1.8-1.4h-.3c-.1.5-.3.9-.6 1.4.6.4 1.5.6 2.2.7 2.2.2 3.9-.6 4-2.1.3-2.6-4-2.7-3.9-4.2.1-.6.6-1.1 1.7-.9.8.1 1.3.5 1.5 1.1h.3M372.4 318.1c.7-2.8 1.7-5.5 2.6-8.2-.2.1-.4.1-.6.1-.2 0-.4 0-.6.1-.4 2-1.1 3.9-1.7 5.9-1.2-1.7-2.4-3.4-3.4-5.2-.4.1-.8.2-1.2.2-.4.1-.8.1-1.2.1 1.7 2.3 3.4 4.7 5 7.1.2 0 .4-.1.6-.1h.5M379.8 309.9h-1.1c-.4 0-.7 0-1.1-.1l-.1 7.7 5.4.1c0-.2-.1-.3-.1-.5s0-.3.1-.5c-1 .1-2 .1-3.3.1l.2-6.8M388.2 311.1c.9.1 1.7.2 2.5.4v-.5c0-.2.1-.3.1-.5l-7.3-.6v.5c0 .2-.1.3-.1.5.7 0 1.6 0 2.7.1l-.6 6.9h1.1c.4 0 .7.1 1.1.1l.5-6.9M391.2 318.7c.3.1.7.1 1.1.2.3.1.7.2 1 .3l.9-3.5h.1c.2.5.5 1.1.6 1.4l1.1 2.7c.4.1.9.1 1.3.2l1.2.3-.4-.8c-.6-1.2-1.2-2.4-1.7-3.6 1.3 0 2.4-.4 2.6-1.5.2-.7-.1-1.3-.8-1.8-.5-.4-1.5-.6-2.2-.7l-2.9-.6-1.9 7.4m3.8-6.5c.9.2 1.9.3 1.9 1.3 0 .3 0 .4-.1.6-.3 1.1-1.1 1.5-2.6 1.1l.8-3M405.1 321c-.1.8-.2 1.6-.4 2.5.4.2.7.3 1.1.5.4.2.7.4 1 .6l.7-8.7c-.2-.1-.3-.1-.5-.2s-.3-.2-.4-.3l-7.7 4.9.6.3.6.3c.6-.5 1.3-1 2.1-1.6l2.9 1.7zm-2.2-2l2.6-1.6-.3 2.9-2.3-1.3"/><path fill="#AD1519" stroke="#000" stroke-width=".26" d="M299.6 219.3c8 0 15.1 1.2 19.7 3 2.6 1.2 6.2 2.1 10.1 2.6 3 .4 5.8.5 8.2.3 3.3-.1 8 .9 12.7 3 3.9 1.7 7.2 3.9 9.4 5.9l-1.9 1.7-.5 4.8-5.2 5.9-2.6 2.2-6.1 4.9-3.1.3-.9 2.7-39.5-4.6-39.6 4.6-.9-2.7-3.1-.3-6.1-4.9-2.6-2.2-5.2-5.9-.5-4.8-1.9-1.7c2.2-2 5.4-4.2 9.4-5.9 4.7-2.1 9.5-3 12.7-3 2.4.2 5.3.1 8.2-.3 3.9-.5 7.4-1.4 10.1-2.6 4.5-1.8 11.2-3 19.2-3z"/><path fill="#C8B100" stroke="#000" stroke-width=".39" d="M270.4 229.8l1.7 1.3 2.5-4.1c-2.7-1.7-4.6-4.5-4.6-7.8 0-.4 0-.7.1-1.1.3-5.2 6.6-9.5 14.6-9.5 4.2 0 8 1.1 10.6 3 .1-.8.1-1.5.3-2.2-2.9-1.7-6.7-2.7-10.9-2.7-9.3 0-16.5 5.3-16.8 11.5 0 .4-.1.7-.1 1.1 0 3.3 1.5 6.3 3.9 8.4l-1.3 2.1"/><path fill="#C8B100" stroke="#000" stroke-width=".39" d="M270.5 229.8c-3.2-2.4-5.1-5.6-5.1-9.1 0-4.1 2.7-7.7 6.7-10.1-2.5 2-4 4.6-4.2 7.5 0 .4-.1.7-.1 1.1 0 3.3 1.5 6.3 3.9 8.4l-1.2 2.2"/><path fill="#C8B100" stroke="#000" stroke-width=".39" d="M242.7 233.9c-1.8-2-2.9-4.5-2.9-7.3 0-1.7.4-3.3 1.1-4.7 2.6-5.3 10.6-9.1 20.1-9.1 2.6 0 5.1.3 7.4.8-.5.6-.9 1.2-1.3 1.8-1.9-.4-3.9-.6-6.1-.6-8.7 0-16 3.4-18.1 8-.6 1.2-.9 2.5-.9 3.8 0 2.8 1.3 5.3 3.3 7l-3.2 5.2-1.7-1.3 2.3-3.6z"/><path fill="#C8B100" stroke="#000" stroke-width=".39" d="M245.9 216.7c-2.3 1.5-4 3.2-5 5.2-.7 1.4-1.1 3-1.1 4.7 0 2.8 1.1 5.4 2.9 7.3l-1.9 3.1c-1.8-2.4-2.9-5.1-2.9-8-.1-5 3.1-9.4 8-12.3zM300 205.6c2.1 0 3.9 1.4 4.4 3.3.3 1.7.5 3.5.5 5.5v.6c0 .2 0 .5.1.7.1 4.2.7 7.9 1.5 10.2l-6.4 6.2-6.5-6.2c.9-2.3 1.5-6 1.5-10.2v-.7-.6c0-2 .2-3.9.5-5.5.4-1.9 2.3-3.3 4.4-3.3z"/><path fill="#C8B100" stroke="#000" stroke-width=".39" d="M300 207.6c1.1 0 2 .7 2.2 1.7.3 1.6.4 3.4.5 5.3V215.9c.1 4 .6 7.5 1.5 9.7l-4.2 4-4.2-4c.8-2.2 1.4-5.7 1.5-9.7v-.7-.6c0-1.9.2-3.7.5-5.3.1-1 1.2-1.7 2.2-1.7zM329.6 229.8l-1.7 1.3-2.5-4.1c2.7-1.7 4.6-4.5 4.6-7.8 0-.4 0-.7-.1-1.1-.3-5.2-6.6-9.5-14.6-9.5-4.2 0-8 1.1-10.6 3-.1-.8-.1-1.5-.3-2.2 2.9-1.7 6.7-2.7 10.9-2.7 9.3 0 16.5 5.3 16.8 11.5 0 .4.1.7.1 1.1 0 3.3-1.5 6.3-3.9 8.4l1.3 2.1"/><path fill="#C8B100" stroke="#000" stroke-width=".39" d="M329.5 229.8c3.2-2.4 5.1-5.6 5.1-9.1 0-4.1-2.7-7.7-6.7-10.1 2.5 2 4 4.6 4.2 7.5 0 .4.1.7.1 1.1 0 3.3-1.5 6.3-3.9 8.4l1.2 2.2"/><path fill="#C8B100" stroke="#000" stroke-width=".39" d="M357.4 233.9c1.8-2 2.9-4.5 2.9-7.3 0-1.7-.4-3.3-1.1-4.7-2.6-5.3-10.6-9.1-20.1-9.1-2.6 0-5.1.3-7.4.8.5.6.9 1.2 1.3 1.8 1.9-.4 3.9-.6 6.1-.6 8.7 0 16 3.4 18.1 8 .6 1.2.9 2.5.9 3.8 0 2.8-1.3 5.3-3.3 7l3.2 5.2 1.7-1.3-2.3-3.6z"/><path fill="#C8B100" stroke="#000" stroke-width=".39" d="M354.2 216.7c2.3 1.5 4 3.2 5 5.2.7 1.4 1.1 3 1.1 4.7 0 2.8-1.1 5.4-2.9 7.3l1.9 3.1c1.8-2.4 2.9-5.1 2.9-8 0-5-3.2-9.4-8-12.3z"/><ellipse fill="#005BBF" stroke="#000" stroke-width=".26" cx="300.1" cy="200.8" rx="5.3" ry="5"/><path fill="#C8B100" stroke="#000" stroke-width=".26" d="M298.7 186.7v2.7h-2.9v2.8h2.9v8H295c0 .3-.3.4-.3.7 0 .7.1 1.4.4 2h9.7c.3-.6.4-1.3.4-2 0-.3-.2-.5-.3-.7h-3.6v-8h2.9v-2.8h-2.9v-2.7h-2.6z"/><ellipse fill="#FFF" stroke="#000" stroke-width=".39" cx="300" cy="226.8" rx="2.3" ry="2.2"/><ellipse fill="#FFF" stroke="#000" stroke-width=".39" cx="300" cy="222.6" rx="2.3" ry="2.2"/><ellipse fill="#FFF" stroke="#000" stroke-width=".39" cx="300" cy="218" rx="1.8" ry="1.7"/><ellipse fill="#FFF" stroke="#000" stroke-width=".39" cx="300" cy="213.9" rx="1.3" ry="1.2"/><ellipse fill="#FFF" stroke="#000" stroke-width=".39" cx="300" cy="210.3" rx="1.1" ry="1"/><ellipse fill="#FFF" stroke="#000" stroke-width=".39" cx="238.7" cy="238.5" rx="1.3" ry="1.2"/><ellipse fill="#FFF" stroke="#000" stroke-width=".39" cx="236.9" cy="235.3" rx="1.3" ry="1.2"/><ellipse fill="#FFF" stroke="#000" stroke-width=".39" cx="235.7" cy="231.6" rx="1.3" ry="1.2"/><ellipse fill="#FFF" stroke="#000" stroke-width=".39" cx="235.6" cy="227.6" rx="1.3" ry="1.2"/><ellipse fill="#FFF" stroke="#000" stroke-width=".39" cx="236.5" cy="223.8" rx="1.3" ry="1.2"/><ellipse fill="#FFF" stroke="#000" stroke-width=".39" cx="238.6" cy="220.2" rx="1.3" ry="1.2"/><ellipse fill="#FFF" stroke="#000" stroke-width=".39" cx="241.3" cy="217.3" rx="1.3" ry="1.2"/><ellipse fill="#FFF" stroke="#000" stroke-width=".39" cx="244.4" cy="214.9" rx="1.3" ry="1.2"/><ellipse fill="#FFF" stroke="#000" stroke-width=".39" cx="248.2" cy="212.9" rx="1.3" ry="1.2"/><ellipse fill="#FFF" stroke="#000" stroke-width=".39" cx="252" cy="211.5" rx="1.3" ry="1.2"/><ellipse fill="#FFF" stroke="#000" stroke-width=".39" cx="256.4" cy="210.7" rx="1.3" ry="1.2"/><ellipse fill="#FFF" stroke="#000" stroke-width=".39" cx="260.5" cy="210.5" rx="1.3" ry="1.2"/><ellipse fill="#FFF" stroke="#000" stroke-width=".39" cx="264.6" cy="210.7" rx="1.3" ry="1.2"/><ellipse fill="#FFF" stroke="#000" stroke-width=".39" cx="269.1" cy="228.5" rx="1.3" ry="1.2"/><ellipse fill="#FFF" stroke="#000" stroke-width=".39" cx="266.8" cy="225.3" rx="1.3" ry="1.2"/><ellipse fill="#FFF" stroke="#000" stroke-width=".39" cx="265.6" cy="221.8" rx="1.3" ry="1.2"/><ellipse fill="#FFF" stroke="#000" stroke-width=".39" cx="265.8" cy="218" rx="1.3" ry="1.2"/><ellipse fill="#FFF" stroke="#000" stroke-width=".39" cx="266.6" cy="214.1" rx="1.3" ry="1.2"/><ellipse fill="#FFF" stroke="#000" stroke-width=".39" cx="268.6" cy="210.7" rx="1.3" ry="1.2"/><ellipse fill="#FFF" stroke="#000" stroke-width=".39" cx="271.7" cy="208.2" rx="1.3" ry="1.2"/><ellipse fill="#FFF" stroke="#000" stroke-width=".39" cx="275.3" cy="206.2" rx="1.3" ry="1.2"/><ellipse fill="#FFF" stroke="#000" stroke-width=".39" cx="279.2" cy="205.1" rx="1.3" ry="1.2"/><ellipse fill="#FFF" stroke="#000" stroke-width=".39" cx="283.4" cy="204.4" rx="1.3" ry="1.2"/><ellipse fill="#FFF" stroke="#000" stroke-width=".39" cx="287.4" cy="204.4" rx="1.3" ry="1.2"/><ellipse fill="#FFF" stroke="#000" stroke-width=".39" cx="291.6" cy="205.1" rx="1.3" ry="1.2"/><ellipse fill="#FFF" stroke="#000" stroke-width=".39" cx="295.5" cy="206.5" rx="1.3" ry="1.2"/><ellipse fill="#FFF" stroke="#000" stroke-width=".39" cx="304.6" cy="206.5" rx="1.3" ry="1.2"/><ellipse fill="#FFF" stroke="#000" stroke-width=".39" cx="308.4" cy="205.1" rx="1.3" ry="1.2"/><ellipse fill="#FFF" stroke="#000" stroke-width=".39" cx="312.6" cy="204.4" rx="1.3" ry="1.2"/><ellipse fill="#FFF" stroke="#000" stroke-width=".39" cx="316.7" cy="204.4" rx="1.3" ry="1.2"/><ellipse fill="#FFF" stroke="#000" stroke-width=".39" cx="320.8" cy="205.1" rx="1.3" ry="1.2"/><ellipse fill="#FFF" stroke="#000" stroke-width=".39" cx="324.8" cy="206.2" rx="1.3" ry="1.2"/><ellipse fill="#FFF" stroke="#000" stroke-width=".39" cx="328.4" cy="208.2" rx="1.3" ry="1.2"/><ellipse fill="#FFF" stroke="#000" stroke-width=".39" cx="331.4" cy="210.7" rx="1.3" ry="1.2"/><ellipse fill="#FFF" stroke="#000" stroke-width=".39" cx="333.5" cy="214.1" rx="1.3" ry="1.2"/><ellipse fill="#FFF" stroke="#000" stroke-width=".39" cx="334.3" cy="218" rx="1.3" ry="1.2"/><ellipse fill="#FFF" stroke="#000" stroke-width=".39" cx="334.4" cy="221.8" rx="1.3" ry="1.2"/><ellipse fill="#FFF" stroke="#000" stroke-width=".39" cx="333.2" cy="225.3" rx="1.3" ry="1.2"/><ellipse fill="#FFF" stroke="#000" stroke-width=".39" cx="331" cy="228.5" rx="1.3" ry="1.2"/><ellipse fill="#FFF" stroke="#000" stroke-width=".39" cx="335.5" cy="210.7" rx="1.3" ry="1.2"/><ellipse fill="#FFF" stroke="#000" stroke-width=".39" cx="339.5" cy="210.5" rx="1.3" ry="1.2"/><ellipse fill="#FFF" stroke="#000" stroke-width=".39" cx="343.7" cy="210.7" rx="1.3" ry="1.2"/><ellipse fill="#FFF" stroke="#000" stroke-width=".39" cx="348" cy="211.5" rx="1.3" ry="1.2"/><ellipse fill="#FFF" stroke="#000" stroke-width=".39" cx="351.9" cy="212.9" rx="1.3" ry="1.2"/><ellipse fill="#FFF" stroke="#000" stroke-width=".39" cx="355.6" cy="214.9" rx="1.3" ry="1.2"/><ellipse fill="#FFF" stroke="#000" stroke-width=".39" cx="358.8" cy="217.3" rx="1.3" ry="1.2"/><ellipse fill="#FFF" stroke="#000" stroke-width=".39" cx="361.5" cy="220.2" rx="1.3" ry="1.2"/><ellipse fill="#FFF" stroke="#000" stroke-width=".39" cx="363.5" cy="223.8" rx="1.3" ry="1.2"/><ellipse fill="#FFF" stroke="#000" stroke-width=".39" cx="364.5" cy="227.6" rx="1.3" ry="1.2"/><ellipse fill="#FFF" stroke="#000" stroke-width=".39" cx="364.3" cy="231.6" rx="1.3" ry="1.2"/><ellipse fill="#FFF" stroke="#000" stroke-width=".39" cx="363.1" cy="235.3" rx="1.3" ry="1.2"/><ellipse fill="#FFF" stroke="#000" stroke-width=".39" cx="361.3" cy="238.5" rx="1.3" ry="1.2"/><path fill="#C8B100" stroke="#000" stroke-width=".39" d="M300.2 271.5c-14.7 0-27.9-1.8-37.3-4.6-.7-.2-1-.8-1-1.5 0-.6.3-1.2 1-1.4 9.4-2.8 22.6-4.6 37.3-4.6 14.7 0 27.9 1.8 37.3 4.6.7.2 1 .8 1 1.4 0 .7-.3 1.3-1 1.5-9.4 2.8-22.6 4.6-37.3 4.6"/><path fill="#C8B100" stroke="#000" stroke-width=".39" d="M300.1 259.4c-14.9 0-28.3 1.9-37.7 4.8.8-.4.7-1.3-.3-3.8-1.2-3-3-2.9-3-2.9 10.4-3.1 24.9-5 41-5s30.7 1.9 41.1 5c0 0-1.8-.1-3 2.9-1 2.5-1 3.5-.3 3.8-9.3-2.9-22.9-4.8-37.8-4.8"/><path fill="#C8B100" stroke="#000" stroke-width=".39" d="M300.1 252.4c-16.1 0-30.6 1.9-41 5-.7.2-1.4-.1-1.7-.7-.2-.7.1-1.4.8-1.6 10.5-3.2 25.3-5.2 41.8-5.3 16.5 0 31.4 2.1 41.9 5.3.7.2 1.1 1 .8 1.6-.2.7-1 .9-1.7.7-10.2-3-24.7-4.9-40.9-5"/><path fill="#C8B100" stroke="#000" stroke-width=".39" d="M300.2 239.8l1.5.3c-.2.6-.3 1.3-.3 2 0 3.1 2.7 5.6 5.9 5.6 2.6 0 4.8-1.6 5.6-3.9.1.1.6-2 .8-2 .2 0 .2 2.2.3 2.1.4 2.8 3 4.7 5.8 4.7 3.3 0 5.9-2.5 5.9-5.6v-.7l1.8-1.8 1 2.3c-.4.7-.6 1.6-.6 2.4 0 3 2.5 5.3 5.6 5.3 2 0 3.7-.9 4.7-2.4l1.2-1.5v1.8c0 1.9.8 3.5 2.6 3.8 0 0 2.1.1 4.8-2 2.7-2.2 4.3-3.9 4.3-3.9l.2 2.2s-2.3 3.5-4.8 5c-1.4.8-3.4 1.6-5.1 1.4-1.7-.3-3-1.7-3.6-3.3-1.2.7-2.7 1.2-4.3 1.2-3.4 0-6.4-1.8-7.6-4.6-1.5 1.7-3.7 2.7-6.2 2.7-2.7 0-5.1-1.2-6.7-3.1-1.5 1.4-3.6 2.2-5.9 2.2-3 0-5.6-1.5-7.1-3.7-1.5 2.2-4.2 3.7-7.1 3.7-2.3 0-4.3-.9-5.8-2.2-1.5 1.9-4 3.1-6.7 3.1-2.5 0-4.7-1-6.2-2.7-1.2 2.8-4.2 4.6-7.6 4.6-1.6 0-3-.4-4.3-1.2-.6 1.6-1.9 3-3.6 3.3-1.6.3-3.7-.6-5.1-1.4-2.5-1.4-4.8-5-4.8-5l.2-2.2s1.5 1.8 4.3 3.9c2.7 2.2 4.8 2 4.8 2 1.8-.3 2.6-2 2.6-3.8v-1.8l1.2 1.5c1 1.4 2.7 2.4 4.7 2.4 3.1 0 5.6-2.4 5.6-5.3 0-.9-.2-1.7-.6-2.4l1-2.3 1.8 1.8v.7c0 3.1 2.6 5.6 5.9 5.6 2.9 0 5.5-1.9 5.9-4.7.1 0 .1-2.1.3-2.1.2 0 .7 2.1.8 2 .8 2.2 3 3.9 5.6 3.9 3.3 0 5.9-2.5 5.9-5.6 0-.7 0-1.4-.3-2l1.7-.3"/><path fill="#C8B100" stroke="#000" stroke-width=".39" d="M250 247.7c-.1-.4-.4-.9-.9-1.3-.9-.8-2.2-.9-2.8-.3-.1.1-.2.2-.2.3 0 0-1.3-2.5-2.9-3.3-1.5-.8-4.2-.6-4.2-.6 0-1.9 1.6-3.5 3.6-3.5 1.2 0 2.3.5 3 1.3l.3-1.3s1.6.3 2.4 2.2c.7 1.9-.1 4.6-.1 4.6s.4-1.2 1-1.9c.6-.8 2.2-1.6 3-2 .8-.4 1.6-.9 1.6-.9s0 .2.1.7v1c1.5-.2 3.2 0 4.6.6-.6 1.1-1.7 2.2-3.1 2.8 0 0 .5.4 1 .9.4.4.5.6.5.6s-1 .2-1.5.2c-.5.1-2.2.3-3.2.3-.8-.2-1.7-.3-2.2-.4"/><path fill="#AD1519" stroke="#000" stroke-width=".39" d="M246.3 246.1c.6-.6 1.9-.5 2.8.3 1 .8 1.2 2 .6 2.6-.6.6-1.9.5-2.8-.3-.9-.8-1.2-2-.6-2.6"/><path fill="#FFF" stroke="#000" stroke-width=".39" d="M259.7 247.2c-.3-1 0-2 .7-2.2.7-.2 1.6.4 1.9 1.4.3 1 0 2-.7 2.2-.7.2-1.6-.4-1.9-1.4"/><path fill="#C8B100" stroke="#000" stroke-width=".39" d="M271.3 242.3c-.4-.3-.7-.8-.8-1.3-.1-.5 0-1 .3-1.5 0 0-1.1-.5-2.2-.8-.9-.2-2.4-.2-2.8-.2h-1.4s.1.2.3.7c.3.6.6.9.6.9-1.5.3-2.8 1.3-3.6 2.5 1.2.8 2.8 1.3 4.3 1.2 0 0-.1.4-.2 1-.1.5-.1.7-.1.7s.9-.3 1.3-.5 1.8-.7 2.6-1.2c.9-.6 1.7-1.5 1.7-1.5"/><path fill="#C8B100" stroke="#000" stroke-width=".39" d="M270.8 230.1c1.3.8 2.4 2.1 2.8 3.6 0 0 .2-.3.9-.7.7-.4 1.3-.4 1.3-.4s-.2 1.2-.3 1.6c-.1.4-.1 1.7-.4 2.8-.3 1.1-.8 2-.8 2-.5-.4-1.2-.6-1.9-.5-.7.1-1.3.5-1.6 1.1 0 0-.8-.7-1.5-1.7s-1.1-2.1-1.4-2.5c-.3-.4-.9-1.4-.9-1.4s.6-.2 1.4-.1c.8.1 1.1.4 1.1.4-.1-1.5.4-3.1 1.3-4.2"/><path fill="#C8B100" stroke="#000" stroke-width=".39" d="M274.8 241.7c.3-.4.4-.9.3-1.5-.1-.5-.4-1-.8-1.3 0 0 .8-.9 1.8-1.5.7-.5 2.2-1 2.6-1.1.4-.2 1.3-.5 1.3-.5s0 .2-.1.7c-.1.6-.2 1-.2 1 1.6-.2 3.1.3 4.3 1.2-.8 1.2-2.1 2.1-3.6 2.5 0 0 .3.3.6.9.3.5.3.7.3.7h-1.4c-.5 0-2 0-2.8-.2-1.3-.3-2.3-.9-2.3-.9"/><ellipse fill="#AD1519" stroke="#000" stroke-width=".39" cx="272.8" cy="240.6" rx="2.6" ry="2.5"/><path fill="#FFF" stroke="#000" stroke-width=".39" d="M285.3 242.2c-.1-1 .4-2 1.1-2 .8-.1 1.5.7 1.6 1.7.1 1-.4 2-1.1 2-.7.1-1.4-.7-1.6-1.7"/><path fill="#C8B100" stroke="#000" stroke-width=".39" d="M298.2 239.9c-.4-.4-.6-1-.6-1.6 0-.6.2-1.2.6-1.6 0 0-1.1-.8-2.3-1.3-.9-.4-2.6-.7-3.1-.8l-1.5-.3s0 .2.2.8c.2.7.5 1.1.5 1.1-1.8.1-3.4 1-4.6 2.1 1.2 1.1 2.8 2 4.6 2.1 0 0-.2.4-.5 1.1-.2.6-.2.8-.2.8l1.5-.3c.5-.1 2.2-.4 3.1-.8 1.2-.5 2.3-1.3 2.3-1.3"/><path fill="#C8B100" stroke="#000" stroke-width=".39" d="M300.1 226.1c1.3 1.1 2.2 2.8 2.3 4.6 0 0 .2-.3 1.1-.6.9-.3 1.5-.2 1.5-.2s-.5 1.3-.7 1.7c-.2.4-.5 1.8-1 3s-1.3 2.1-1.3 2.1c-.5-.5-1.2-.9-2-.9s-1.5.4-2 .9c0 0-.7-.9-1.3-2.1-.5-1.2-.8-2.6-1-3-.2-.4-.7-1.7-.7-1.7s.7-.1 1.5.2c.9.3 1.1.6 1.1.6.4-1.8 1.3-3.5 2.5-4.6M302.1 239.9c.4-.4.6-1 .6-1.6 0-.6-.2-1.2-.6-1.6 0 0 1.1-.8 2.3-1.3.9-.4 2.6-.7 3.1-.8l1.5-.3s0 .2-.2.8c-.2.7-.5 1.1-.5 1.1 1.8.1 3.4 1 4.6 2.1-1.1 1.1-2.8 2-4.6 2.1 0 0 .2.4.5 1.1.2.6.2.8.2.8l-1.5-.3c-.5-.1-2.2-.4-3.1-.8-1.2-.5-2.3-1.3-2.3-1.3"/><ellipse fill="#AD1519" stroke="#000" stroke-width=".39" cx="300.2" cy="238.3" rx="2.6" ry="2.5"/><path fill="#FFF" stroke="#000" stroke-width=".39" d="M315.1 242.2c.1-1-.4-2-1.1-2s-1.5.7-1.6 1.7c-.1 1 .4 2 1.1 2 .7.1 1.5-.7 1.6-1.7"/><path fill="#C8B100" stroke="#000" stroke-width=".39" d="M325.7 241.7c-.3-.4-.4-.9-.3-1.5.1-.5.4-1 .8-1.3 0 0-.8-.9-1.8-1.5-.7-.5-2.2-1-2.6-1.1-.4-.2-1.3-.5-1.3-.5s0 .2.1.7c.1.6.2 1 .2 1-1.5-.2-3.1.3-4.3 1.2.8 1.2 2.1 2.1 3.6 2.5 0 0-.3.3-.6.9-.3.5-.3.7-.3.7h1.4c.5 0 2 0 2.8-.2 1.2-.3 2.2-.9 2.3-.9"/><path fill="#C8B100" stroke="#000" stroke-width=".39" d="M329.6 230.1c-1.3.8-2.4 2.1-2.8 3.6 0 0-.1-.3-.9-.7-.7-.4-1.3-.4-1.3-.4s.2 1.2.3 1.6c.1.4.1 1.7.4 2.8.3 1.1.8 2 .8 2 .5-.4 1.2-.6 1.9-.5.7.1 1.3.5 1.6 1.1 0 0 .8-.7 1.5-1.7.6-1 1.1-2.1 1.3-2.5.3-.4.9-1.4.9-1.4s-.6-.2-1.4-.1c-.8.1-1.1.4-1.1.4.2-1.5-.3-3.1-1.2-4.2"/><path fill="#C8B100" stroke="#000" stroke-width=".39" d="M329.1 242.3c.4-.3.7-.8.8-1.3.1-.5 0-1-.3-1.5 0 0 1.1-.5 2.2-.8.9-.2 2.4-.2 2.8-.2h1.4s-.1.2-.3.7c-.3.6-.6.9-.6.9 1.5.3 2.8 1.3 3.6 2.5-1.2.8-2.8 1.3-4.3 1.2 0 0 .1.4.2 1 .1.5.1.7.1.7s-.9-.3-1.3-.5-1.9-.7-2.6-1.2c-.9-.6-1.7-1.5-1.7-1.5"/><ellipse fill="#AD1519" stroke="#000" stroke-width=".39" cx="327.6" cy="240.6" rx="2.6" ry="2.5"/><path fill="#FFF" stroke="#000" stroke-width=".39" d="M340.8 247.2c.3-1 0-2-.7-2.2-.7-.2-1.6.4-1.9 1.4-.3 1 0 2 .7 2.2.6.2 1.5-.4 1.9-1.4"/><path fill="#C8B100" stroke="#000" stroke-width=".39" d="M350.4 247.7c.1-.4.4-.9.9-1.3.9-.8 2.2-.9 2.8-.3.1.1.2.2.2.3 0 0 1.3-2.5 2.9-3.3 1.6-.8 4.2-.6 4.2-.6 0-1.9-1.6-3.5-3.6-3.5-1.2 0-2.3.5-3 1.3l-.3-1.3s-1.6.3-2.4 2.2c-.7 1.9.1 4.6.1 4.6s-.4-1.2-1-1.9c-.6-.8-2.2-1.6-3-2-.8-.4-1.6-.9-1.6-.9s0 .2-.1.7v1c-1.5-.2-3.2 0-4.6.6.6 1.1 1.7 2.2 3.1 2.8 0 0-.5.4-1 .9-.4.4-.5.6-.5.6s1 .2 1.5.2c.5.1 2.2.3 3.2.3.8-.2 1.7-.3 2.2-.4"/><path fill="#AD1519" stroke="#000" stroke-width=".39" d="M354.1 246.1c-.6-.6-1.9-.5-2.8.3-.9.8-1.2 2-.6 2.6.6.6 1.9.5 2.8-.3.9-.8 1.2-2 .6-2.6"/><path fill="#AD1519" stroke="#000" stroke-width=".39" stroke-linejoin="round" d="M300.1 269.6c-13.3 0-25.3-1.5-34.4-3.9 9.1-2.4 21.1-3.8 34.4-3.8 13.3 0 25.4 1.5 34.5 3.8-9.1 2.3-21.2 3.8-34.5 3.9z"/><path fill="none" stroke="#000" stroke-width=".05" d="M309.6 269.2V262m-3.6 7.5v-7.6m-2.6 7.6v-7.8"/><path fill="none" stroke="#000" stroke-width=".09" d="M301.1 269.6v-7.9"/><path fill="none" stroke="#000" stroke-width=".14" d="M299 269.6v-7.9"/><path fill="none" stroke="#000" stroke-width=".18" d="M297 269.6v-7.9"/><path fill="none" stroke="#000" stroke-width=".23" d="M295 269.6v-7.9"/><path fill="none" stroke="#000" stroke-width=".28" d="M293.2 269.6v-7.9"/><path fill="none" stroke="#000" stroke-width=".33" d="M289.8 269.2V262m1.6 7.3v-7.5"/><path fill="none" stroke="#000" stroke-width=".37" d="M286.6 268.9v-6.6m1.6 6.8v-7"/><path fill="none" stroke="#000" stroke-width=".42" d="M282.4 268.5v-5.8m1.4 5.9v-6.1m1.4 6.3v-6.3"/><path fill="none" stroke="#000" stroke-width=".46" d="M280.9 268.5v-5.6"/><path fill="none" stroke="#000" stroke-width=".51" d="M279.6 268.2V263"/><path fill="none" stroke="#000" stroke-width=".56" d="M278.1 268v-4.9"/><path fill="none" stroke="#000" stroke-width=".6" d="M275.1 267.6v-3.9m1.5 4.1v-4.3"/><path fill="none" stroke="#000" stroke-width=".63" d="M273.5 267.3v-3.4"/><path fill="none" stroke="#000" stroke-width=".68" d="M272.1 267v-2.8"/><path fill="none" stroke="#000" stroke-width=".73" d="M270.5 266.6v-2.2"/><path fill="none" stroke="#000" stroke-width=".77" d="M268.9 266.5v-1.7"/><path fill="none" stroke="#000" stroke-width=".91" d="M267.3 266.1v-.8"/><path fill="none" stroke="#000" stroke-width=".39" d="M264.1 266.1c9.3-2.6 21.9-4.2 36-4.2 14.1 0 26.8 1.6 36.1 4.2"/><path fill="#AD1519" stroke="#000" stroke-width=".39" d="M260.1 260.7l1.5-1.9 4 .5-3.2 2.4-2.3-1"/><path fill="#FFF" stroke="#000" stroke-width=".39" d="M268.8 258.4c0-.7.6-1.2 1.3-1.2.7 0 1.3.6 1.3 1.2 0 .7-.6 1.2-1.3 1.2-.7.1-1.3-.5-1.3-1.2"/><path fill="#058E6E" stroke="#000" stroke-width=".39" d="M280.4 258.2l-2.8.3c-.7.1-1.4-.4-1.5-1.1-.1-.7.4-1.3 1.2-1.4l2.8-.3 2.9-.3c.7-.1 1.4.4 1.5 1.1.1.7-.4 1.3-1.2 1.4l-2.9.3"/><path fill="#FFF" stroke="#000" stroke-width=".39" d="M288.6 256.1c0-.7.6-1.2 1.3-1.2.7 0 1.3.6 1.3 1.2 0 .7-.6 1.2-1.3 1.2-.7 0-1.3-.5-1.3-1.2"/><path fill="#AD1519" stroke="#000" stroke-width=".39" d="M300.2 257.1h-3.9c-.7 0-1.3-.6-1.3-1.2 0-.7.6-1.2 1.3-1.2h8c.7 0 1.3.6 1.3 1.2 0 .7-.6 1.2-1.3 1.2h-4.1"/><path fill="#FFF" stroke="#000" stroke-width=".39" d="M309.1 256.1c0-.7.6-1.2 1.3-1.2.7 0 1.3.6 1.3 1.2 0 .7-.6 1.2-1.3 1.2-.7 0-1.3-.5-1.3-1.2"/><path fill="#058E6E" stroke="#000" stroke-width=".39" d="M320 258.2l2.8.3c.7.1 1.4-.4 1.5-1.1.1-.7-.4-1.3-1.2-1.4l-2.8-.3-2.9-.3c-.7-.1-1.4.4-1.5 1.1-.1.7.4 1.3 1.2 1.4l2.9.3"/><path fill="#FFF" stroke="#000" stroke-width=".39" d="M328.9 258.4c0-.7.6-1.2 1.3-1.2.7 0 1.3.6 1.3 1.2 0 .7-.6 1.2-1.3 1.2-.7.1-1.3-.5-1.3-1.2"/><path fill="#AD1519" stroke="#000" stroke-width=".39" d="M340.3 260.7l-1.5-1.9-4 .5 3.2 2.4 2.3-1"/><path fill="#CCC" stroke="#000" stroke-width=".52" d="M300.6 413.3c-15.7 0-31.3-3.8-44.3-10.2-9.6-4.8-16-14.4-16-25.4v-40h120.5v40c0 11-6.4 20.7-16 25.4-13.2 6.3-28.5 10.2-44.2 10.2z"/><path fill="#FFD691" stroke="#000" stroke-width=".52" d="M303.5 395.5c2.5.8 3.8 2.6 3.8 4.8 0 2.9-2.8 5-6.4 5-3.6 0-6.5-2.2-6.5-5 0-2.1 1.2-4.6 3.7-4.7l-.3-.6-.8-.8s.9-.2 1.5 0 .9.6.9.6.3-.5.6-.9c.4-.4.8-.6.8-.6s.6.5.7.8c.2.3.3.7.3.7s.5-.4.9-.6c.4-.2 1-.3 1-.3s-.2.6-.3.8c.2.3.1.8.1.8"/><path fill="#058E6E" stroke="#000" stroke-width=".52" d="M300.4 408.5s-4.8-3.2-6.8-3.6c-2.7-.6-5.6-.1-6.9-.2 0 0 1.5 1.1 2.2 1.8.7.7 2.9 2 4.1 2.3 3.8.9 7.4-.3 7.4-.3M301.8 408.8s3-3.2 6.3-3.6c3.8-.5 6.3.3 7.7.7 0 0-1.2.6-1.9 1s-2.4 1.9-5 1.9-5.5-.3-6-.2c-.5 0-1.1.2-1.1.2"/><path fill="#AD1519" stroke="#000" stroke-width=".52" d="M300.8 404.8c-1.2-1.1-1.9-2.7-1.9-4.5 0-1.8.7-3.3 2-4.5 1.2 1.1 1.9 2.7 1.9 4.5 0 1.8-.8 3.4-2 4.5"/><path fill="#058E6E" stroke="#000" stroke-width=".52" d="M299.6 411.3s.7-1.8.8-3.4c.1-1.3-.2-2.6-.2-2.6H301.1s.5 1.4.5 2.6c0 1.2-.2 2.8-.2 2.8s-.7.1-.9.2c-.2.2-.9.4-.9.4"/><path fill="#AD1519" stroke="#000" stroke-width=".52" d="M300.4 377.6c0 15.8-13.4 28.6-30.1 28.6-16.7 0-30.2-12.8-30.2-28.6v-40h60.2v40"/><path fill="#C8B100" stroke="#000" stroke-width=".52" d="M240 377c.2 8.4 3.5 14.7 6.9 18.8v-59.4h-6.8L240 377zM253.3 401.2c1.9 1 4.5 2.7 7.2 3.3l-.2-68.4h-7.1v65.1zM266.7 406c2.8.3 4.8.2 7 0v-69.9h-7V406zM280 404.5c2.8-.6 5.9-2.3 7.2-3.2v-65.2h-7.1l-.1 68.4zM293.8 395.2c2.9-2.6 5.7-8.5 6.7-15.3l.2-43.7h-7l.1 59z"/><path fill="#AD1519" stroke="#000" stroke-width=".52" d="M360.8 337.5v40c0 15.8-13.5 28.6-30.2 28.6s-30.2-12.8-30.2-28.6v-40h60.4"/><path fill="#C8B100" stroke="#C8B100" stroke-width=".26" d="M327.3 367.4c.1-.2.1-.3.2-.5l-5.1-5.7-2 .9-3.7-4.1 1.2-1.8-6.4-7.2h-.3v4.8l2.1.6v5.4l-2.1.6v4.9c1 .3 1.8 1.1 2.1 2h3.9l.6-2h5.7l.6 2h3.2zm-8.4-22.2v1.9h3.3v-1.9h-3.3zm-8.8 24.5c.8 0 1.4-.6 1.4-1.3 0-.7-.6-1.3-1.4-1.3-.8 0-1.4.6-1.4 1.3 0 .7.6 1.3 1.4 1.3zm19.2-11.7l-2.1-.6V352l2.1-.6v-2.3c-1-.3-1.8-1-2.1-2H324l-.6 2h-5.7l-.6-2h-3.7c-.1.3-.2.5-.3.7l6.5 7.2 2-.9 3.7 4.1-1.2 1.7 5 5.6c.1 0 .2-.1.3-.1l-.1-7.4zm-8.7-1.7l-1.5 1.2 2.1 2.4 1.5-1.3-2.1-2.3zm9.6 43.5c-1.5-.1-2.7-1.1-3-2.4-2-.3-3.9-.8-5.7-1.6l1-1.7c1.5.7 3.2 1.1 4.9 1.3.4-.8 1-1.4 1.9-1.7V387l-2.1-.6V381l2.1-.6v-9.2c-.1 0-.2-.1-.2-.1l-4.8 5.3 1.2 1.7-3.7 4.1-2-.9-4 4.4c.7 1 .7 2.4-.1 3.4 1.1 1.3 2.4 2.4 3.9 3.3l-1 1.7c-1.7-1.1-3.2-2.4-4.5-3.9-1 .3-2.2.1-3.1-.6-1.4-1.1-1.5-3.1-.4-4.4l.2-.2c-.8-1.9-1.4-3.9-1.6-6h2.1c.2 1.8.6 3.5 1.3 5.1.6-.1 1.2 0 1.8.2l4-4.4-1.2-1.7 3.7-4.1 2 .9 4.8-5.3c-.1-.2-.2-.3-.3-.6h-3.3l-.6 2h-5.7l-.6-2h-3.9c-.3.9-1.1 1.6-2 1.9v4.8h-2.1V371c-1.3-.4-2.3-1.6-2.3-3s1-2.6 2.3-3v-4.9l-2.2-.1v-5.4l2.1-.6v-4.9c-1.3-.4-2.2-1.6-2.2-2.9 0-1.7 1.5-3.1 3.3-3.1 1.5 0 2.7.9 3.1 2.1h3.7l.6-2h5.7l.6 2h3.2c.4-1.2 1.6-2.1 3.1-2.1l.1 10h-1v3.1h1v25.9h-.9v3.1h.9l-.1 14.6zm-7.1-22l-1.5-1.2-2.1 2.4 1.5 1.2 2.1-2.4zm-11.9-22.1h-2v3.1h2v-3.1zm11 13.7v-1.9h-3.4v1.9h3.4zM309.4 381l-2.1-.5-.3-5.3 2.1-.7v3.1c0 1.2.1 2.3.3 3.4zm1.8-6.6l2.1.5s.1 3.4.1 2.7c0-.9.2 2.7.2 2.7l-2.1.7c-.2-1.1-.3-2.2-.3-3.3v-3.3zm13 20.3l.5-2c-1.8-.6-3.5-1.4-5-2.5l-1.5 1.3c1.7 1.4 3.7 2.5 6 3.2zm-1.1 1.7l-1.6 1.5c-1.8-.6-3.4-1.5-4.9-2.5l.5-2.1c1.8 1.3 3.8 2.4 6 3.1z"/><path fill="#C8B100" stroke="#C8B100" stroke-width=".26" d="M333.3 367.4c-.1-.2-.1-.3-.2-.5l5.1-5.7 2 .9 3.7-4.1-1.2-1.8 6.4-7.2h.3v4.8l-2.1.6v5.4l2.1.6v4.9c-1 .3-1.8 1.1-2.1 2h-3.9l-.6-2h-5.7l-.6 2h-3.2zm8.3-22.2v1.9h-3.3v-1.9h3.3zm8.8 24.5c-.8 0-1.4-.6-1.4-1.3 0-.7.6-1.3 1.4-1.3.8 0 1.4.6 1.4 1.3 0 .7-.6 1.3-1.4 1.3zM331.2 358l2.1-.6V352l-2.1-.6v-2.3c1-.3 1.8-1 2.1-2h3.2l.6 2h5.7l.6-2h3.7c.1.3.2.5.3.7l-6.5 7.2-2-.9-3.7 4.1 1.2 1.7-5 5.6c-.1 0-.2-.1-.3-.1l.1-7.4zm8.7-1.7l1.5 1.2-2.1 2.4-1.5-1.3 2.1-2.3zm-9.6 43.5c1.5-.1 2.7-1.1 3-2.4 2-.3 3.9-.8 5.7-1.6l-1-1.7c-1.5.7-3.2 1.1-4.9 1.3-.4-.8-1-1.4-1.9-1.7V387l2.1-.6V381l-2.1-.6v-9.2c.1 0 .2-.1.2-.1l4.8 5.3-1.2 1.7 3.7 4.1 2-.9 4 4.4c-.7 1-.7 2.4.1 3.4-1.1 1.3-2.4 2.4-3.9 3.3l1 1.7c1.7-1.1 3.2-2.4 4.5-3.9 1 .3 2.2.1 3.1-.6 1.4-1.1 1.5-3.1.4-4.4l-.2-.2c.8-1.9 1.4-3.9 1.6-6h-2.1c-.2 1.8-.6 3.5-1.3 5.1-.6-.1-1.2 0-1.8.2l-4-4.4 1.2-1.7-3.7-4.1-2 .9-4.8-5.3c.1-.2.2-.3.3-.6h3.3l.6 2h5.7l.6-2h3.9c.3.9 1.1 1.6 2 1.9v4.8h2.1V371c1.3-.4 2.3-1.6 2.3-3s-1-2.6-2.3-3v-4.9l2.1-.6v-5.4l-2.1-.6v-4.9c1.3-.4 2.2-1.6 2.2-2.9 0-1.7-1.5-3.1-3.3-3.1-1.5 0-2.7.9-3.1 2.1h-3.7l-.6-2h-5.7l-.6 2h-3.2c-.4-1.2-1.6-2.1-3.1-2.1l-.1 10h1v3.1h-1v25.9h.9v3.1h-.9l.2 15.1zm7.1-22l1.5-1.2 2.1 2.4-1.5 1.2-2.1-2.4zm12-22.1h2v3.1h-2v-3.1zm-11 13.7v-1.9h3.4v1.9h-3.4zm12.7 11.6l2.1-.5.3-5.3-2.1-.7v3.1c0 1.2-.1 2.3-.3 3.4zm-1.8-6.6l-2.1.5s-.1 3.4-.1 2.7c0-.9-.2 2.7-.2 2.7l2.1.7c.2-1.1.3-2.2.3-3.3v-3.3zm-12.9 20.3l-.5-2c1.8-.6 3.5-1.4 5-2.5l1.5 1.3c-1.8 1.4-3.8 2.5-6 3.2zm1 1.7l1.6 1.5c1.8-.6 3.4-1.5 4.9-2.5l-.5-2.1c-1.8 1.3-3.8 2.4-6 3.1z"/><path fill="#058E6E" d="M327.1 368.4c0-1.7 1.5-3.1 3.3-3.1s3.3 1.4 3.3 3.1c0 1.7-1.5 3.1-3.3 3.1s-3.3-1.4-3.3-3.1"/><path fill="#AD1519" stroke="#000" stroke-width=".52" d="M240.1 337.6h60.2v-66.9h-60.2v66.9z"/><path fill="#C8B100" stroke="#000" stroke-width=".46" d="M260.8 286.2h-1.1v-1.1h-1.9v4.4h1.9v3.1h-4.2v8.9h2.2v17.7h-4.4v9.2h34.1v-9.2H283v-17.7h2.2v-8.9H281v-3.1h1.9v-4.4H281v1.1h-1.1v-1.1H278v1.1h-1.4v-1.1h-1.9v4.4h1.9v3.1h-4.2v-9.7h2.2v-4.4h-2.2v1.1h-1.1v-1.1h-1.9v1.1h-1.1v-1.1h-2.2v4.4h2.2v9.7h-4.2v-3.1h1.9v-4.4h-1.9v1.1H263v-1.1h-2.2v1.1zm-7.5 42.1h34.1m-34.1-2.2h34.1m-34.1-2.2h34.1m-34.1-2.2h34.1m-34.1-2.5h34.1m-29.6-2H283m-25.2-2.2H283m-25.2-2.5H283m-25.2-2.2H283m-25.2-2.2H283m-25.2-2.2H283m-25.2-2.3H283m-27.5-2.2h29.7m-29.7-2.2h29.7m-29.7-2.2h29.7m-29.7-2.2h29.7m-25.5-2.2H281m-12.7-2.3h4.2m-4.2-2.2h4.2m-4.2-2.2h4.2m-4.2-2.2h4.2m-6.4-2.8h8.6m-15 9.4h4.4m-6.3-2.7h8.3m-8.3 40.7v-2.2m0-2.2v-2.2m-2.3 2.2v2.2m4.2 0v-2.2m2.2 4.4v-2.2m0-2.2v-2.2m0-2.5v-1.9m0-2.3v-2.5m-2.2 9.2v-2.5m-4.2 2.5v-2.5m8.6 0v2.5m2-2.5v-1.9m-6.4-2.3v2.2m4.4-2.2v2.2m4.2-2.2v2.2m-2.2-2.2v-2.5m2.2-2.2v2.2m0-6.6v2.2m-2.2-4.5v2.2m2.2-4.4v2.2m-4.2-2.2v2.2m-4.4-2.2v2.2m-1.9-4.4v2.2m4.1-2.2v2.2m4.2-2.2v2.2m2.2-4.4v2.2m-4.2-2.2v2.2m-4.4-2.2v2.2m-1.9-4.4v2.2m8.3-2.2v2.2m-4.2-6.7v2.2m19.2-2.2h-4.4m6.3-2.7h-8.3m8.3 40.7v-2.2m0-2.2v-2.2m2.2 2.2v2.2m-4.1 0v-2.2m-2.3 4.4v-2.2m0-2.2v-2.2m0-2.5v-1.9m0-2.3v-2.5m2.3 9.2v-2.5m4.1 2.5v-2.5m-8.6 0v2.5m-1.9-2.5v-1.9m6.4-2.3v2.2m-4.5-2.2v2.2m-4.1-2.2v2.2m2.2-2.2v-2.5m-2.2-2.2v2.2m0-6.6v2.2m2.2-4.5v2.2m-2.2-4.4v2.2m4.1-2.2v2.2m4.5-2.2v2.2m1.9-4.4v2.2m-4.2-2.2v2.2m-4.1-2.2v2.2m-2.2-4.4v2.2m4.1-2.2v2.2m4.5-2.2v2.2m1.9-4.4v2.2m-8.3-2.2v2.2m4.1-6.7v2.2m-8.6 22.5v-2.5m0-6.6v-2.2m0 6.6v-2.2m0-6.7v-2.2m0-2.2v-2.2m0-4.5v-2.2m0-2.2v-2.2m-10.5 5.8h4.4m4.2-6.7h4.2m4.1 6.7h4.4"/><path fill="#C8B100" stroke="#000" stroke-width=".46" d="M276.1 328.3v-5.8c0-1.1-.6-4.4-5.8-4.4-5 0-5.5 3.3-5.5 4.4v5.8h11.3z"/><path fill="#C8B100" stroke="#000" stroke-width=".46" d="M266.6 322.8l-2.8-.3c0-1.1.3-2.8 1.1-3.3l2.5 1.9c-.2.3-.8 1.1-.8 1.7zM271.3 320l1.4-2.5c-.6-.3-1.7-.6-2.5-.6-.6 0-1.7.3-2.2.6l1.4 2.5h1.9zM274.1 322.8l2.8-.3c0-1.1-.3-2.8-1.1-3.3l-2.5 1.9c.3.3.8 1.1.8 1.7zM266.1 313.1V307c0-1.7-1.1-3-3-3s-3 1.4-3 3v6.1h6zM274.7 313.1V307c0-1.7 1.1-3 3.1-3 1.9 0 3 1.4 3 3v6.1h-6.1zM264.1 298.1l.3-5.5h-5.3l.6 5.5h4.4zM272.5 298.1l.6-5.5h-5.3l.3 5.5h4.4zM276.6 298.1l-.6-5.5h5.5l-.6 5.5h-4.3z"/><path fill="#0039F0" d="M274.1 328.3v-5c0-.8-.6-3.3-3.9-3.3-3 0-3.6 2.5-3.6 3.3v5h7.5zM265.5 312.5v-5.3c0-1.4-.8-2.8-2.5-2.8s-2.5 1.4-2.5 2.8v5.3h5zM275.2 312.5v-5.3c0-1.4.8-2.8 2.5-2.8s2.5 1.4 2.5 2.8v5.3h-5z"/><path fill="#CCC" stroke="#000" stroke-width=".52" d="M300.3 337.6h60.4v-66.9h-60.4v66.9z"/><path fill="#DB4446" stroke="#000" stroke-width=".39" d="M331.1 287.2l.1-.7.1-.4s-1.9.2-3-.1c-1-.3-1.9-.7-2.9-1.5-.9-.8-1.3-1.3-2-1.4-1.6-.3-2.9.5-2.9.5s1.2.4 2.1 1.6 1.9 1.7 2.3 1.8c.7.2 3.2.1 3.9.1.8-.1 2.3.1 2.3.1z"/><path fill="#ED72AA" stroke="#000" stroke-width=".39" d="M340.2 284.5s0 .9.1 1.7c.1.8-.3 1.5-.1 1.9.1.4.2.8.4 1.1.2.3.3 1.1.3 1.1s-.5-.3-.9-.6-.7-.5-.7-.5.1.9.1 1.2c0 .4.3 1.1.6 1.5.3.4 1 1.1 1.3 1.6.2.5.2 1.7.2 1.7s-.6-.9-1-1.1c-.5-.2-1.5-.7-1.5-.7s.9.9.9 1.9c0 .9-.4 1.9-.4 1.9s-.4-.8-1-1.3-1.4-1.1-1.4-1.1.6 1.4.6 2.3c0 .9-.2 3-.2 3s-.5-.8-.9-1.2c-.5-.4-1-.7-1.2-.9-.2-.3.6.8.6 1.4.1.6.4 2.8 2.3 5.6 1.1 1.6 2.9 4.5 6.6 3.6 3.7-.9 2.4-6 1.6-8.3-.8-2.3-1.2-4.9-1.1-5.8 0-.9.7-3.6.6-4.1-.1-.5-.3-2.4.2-3.9.5-1.6.9-2.2 1.1-2.9.3-.7.5-1 .6-1.6s.1-1.6.1-1.6.7 1.3.9 1.7c.2.5.2 1.8.2 1.8s.1-1.3 1.2-2c1-.7 2.3-1.4 2.6-1.7.3-.4.4-.6.4-.6s-.1 2.3-.7 3.2c-.4.6-2.1 2.5-2.1 2.5s.9-.3 1.5-.4h1s-.7.6-1.7 2-.6 1.5-1.3 2.7c-.7 1.2-1.3 1.2-2.1 1.9-1.3 1-.6 5.2-.4 5.8.2.6 2.4 5.7 2.5 6.9 0 1.2.3 4-1.9 5.8-1.4 1.1-3.7 1.2-4.2 1.5-.5.3-1.5 1.4-1.5 3.5s.8 2.5 1.4 3c.6.5 1.4.2 1.6.7.2.4.3.6.5.9.3.2.4.5.3 1-.1.5-1.1 1.5-1.4 2.2-.3.7-1 2.7-1 3s-.1 1.2.2 1.6c0 0 1.1 1.3.3 1.5-.5.2-.9-.3-1.2-.2-.6.2-1 .6-1.2.5-.4-.1-.4-.3-.5-.9 0-.6 0-.9-.2-.9-.3 0-.4.2-.4.5s0 1.1-.3 1.1-.7-.5-1-.7c-.3-.1-1-.2-1-.6 0-.3.4-1 .9-1.2.5-.1.9-.4.6-.6-.3-.2-.6-.2-.9 0-.3.3-.9 0-.9-.3 0-.4.1-.8.1-1 0-.2-.6-.6.1-1s1 .3 1.7.2c.7-.1 1-.4 1.3-.8.3-.4.2-1.3-.3-1.8s-.9-.6-1.1-1c-.2-.3-.4-1.1-.4-1.1s.1 1.4 0 1.6c-.1.2 0 1.1 0 1.1l-.9-.9c-.4-.4-.8-1.6-.8-1.6v1.6c0 .4.5.9.3 1-.2.2-1-.9-1.2-1-.2-.2-.9-.7-1.2-1.3-.3-.6-.5-1.4-.6-1.7-.1-.3-.2-1.6-.1-1.9.2-.5.6-1.4.6-1.4H334c-.9 0-1.6-.3-1.9.3-.3.6-.2 1.8.3 3.5.4 1.6.7 2.4.6 2.7-.1.3-.7.9-.9 1.1-.2.1-.8.1-1.1 0-.3-.1-.7-.3-1.5-.3h-1.6c-.3-.1-1.1-.5-1.4-.4-.3.1-.9.4-.8.9.3.7-.3.9-.6.9s-.6-.2-1.1-.3c-.4-.1-1.1 0-1-.5.1-.5.3-.5.5-.9s.3-.6 0-.6-.6-.1-.8.1c-.2.2-.6.6-.9.5-.3-.2-.6-.5-.6-1.3s-.8-1.4-.1-1.4c.7 0 1.7.6 1.9.2.2-.4.1-.6-.3-.9-.4-.3-.9-.5-.4-.9s.7-.4.9-.6c.2-.2.5-.9.9-.8.7.4 0 .9.8 1.7.7.8 1.2 1.1 2.5 1 1.2-.1 1.6-.3 1.6-.6s-.1-1-.1-1.2c0-.3.2-1.2.2-1.2s-.6.4-.8.7c-.2.3-.5 1-.5 1s-.1-.7-.1-1.3c0-.3.1-.9.1-1.1 0-.3-.3-1.1-.3-1.1s-.2.9-.3 1.1c-.1.2-.2 1.3-.2 1.3s-.8-.7-.6-1.9c.2-.9-.1-2.1.1-2.5.3-.4.9-2 2.5-2 1.6-.1 2.8.1 3.3 0 .5 0 2.5-.4 2.5-.4s-3.6-1.8-4.4-2.4c-.8-.5-2.1-2-2.5-2.6-.4-.6-.8-1.9-.8-1.9s-.6 0-1.2.3-1.2.8-1.5 1.2c-.3.4-.9 1.3-.9 1.3s.1-1.1.1-1.5c0-.3-.1-1-.1-1s-.4 1.5-1.2 2.1c-.8.6-1.8 1.4-1.8 1.4s.1-.9.1-1.1c0-.2.2-1.2.2-1.2s-.6.9-1.5 1c-.9.2-2.2.1-2.3.7-.1.5.2 1.3 0 1.7-.2.4-.6.6-.6.6s-.5-.4-.9-.5c-.4 0-.9.2-.9.2s-.4-.5-.2-.8c.1-.3.8-.8.6-1-.2-.2-.7.1-1.1.2-.3.2-1.1.3-1-.2.1-.5.2-.9.1-1.2-.2-.4-.1-.6.2-.7.3-.1 1.3 0 1.5-.2.1-.3-.3-.6-1-.7-.7-.2-1.1-.6-.7-.9.4-.4.5-.5.6-.8.2-.3.2-.9.9-.6.6.3.5 1 1.2 1.2.7.2 2.3-.1 2.6-.3.3-.2 1.4-1 1.8-1.2.4-.2 1.9-1.3 1.9-1.3s-.9-.6-1.3-1c-.3-.3-.9-1.1-1.2-1.3-.3-.2-1.8-.7-2.3-.8-.5 0-2.1-.6-2.1-.6s.7-.2.9-.4c.2-.2.8-.7 1-.6h.3s-1.5-.1-1.8-.2c-.3-.1-1.2-.6-1.5-.6-.3 0-1 .1-1 .1s.9-.6 1.7-.7c.7-.1 1.3-.1 1.3-.1s-1.2-.3-1.4-.7c-.3-.4-.5-1-.7-1.2-.2-.3-.3-.7-.7-.7-.4 0-1 .5-1.4.4s-.6-.3-.7-.8c0-.6 0-.4-.1-.6-.1-.3-.7-1-.2-1.1.5-.2 1.6.1 1.7-.1.1-.2-.6-.8-1-1-.4-.2-1.2-.6-.8-.9.4-.3.7-.4.9-.7.2-.3.4-1.1.9-.8.4.3 1 1.5 1.4 1.4.3-.1.4-1 .3-1.4-.1-.4 0-1.1.3-1 .3.1.6.5 1.2.6.5 0 1.4-.1 1.3.3-.1.4-.4.9-.7 1.3-.4.4-.5 1.3-.3 1.8.2.6.9 1.4 1.4 1.8.5.3 1.6.6 2.2 1 .6.4 2.1 1.6 2.6 1.7.5.1 1 .4 1 .4s.6-.3 1.4-.3 2.6.1 3.3-.2 1.6-.8 1.3-1.4c-.3-.6-1.8-1.2-1.6-1.6.1-.5.7-.5 1.6-.6.9 0 2.2.2 2.4-1.1.2-1.3.3-2-1-2.3-1.3-.3-2.2-.3-2.5-1.2-.2-.9-.5-1.2-.2-1.4.3-.3.7-.4 1.7-.4 1-.1 2-.1 2.4-.3.3-.2.4-.8.7-1.1.4-.3 1.8-.5 1.8-.5s1.8.9 3.4 2.1c.9.5 2.3 2.1 2.3 2.1"/><path fill="none" stroke="#000" stroke-width=".39" d="M322.8 292.1s-1 .3-1.3.8c-.4.6-.4 1.3-.4 1.3s.8-.7 1.9-.4c1 .3 1.2.4 1.6.4.4 0 1.5-.4 1.5-.4s-.9 1-.8 1.7c.1.7.2 1 .2 1.4-.1.9-.7 1.9-.7 1.9s.4-.2 1.3-.4 1.6-.6 2.1-1c.5-.3 1.1-1.2 1.1-1.2s-.2 1.2 0 1.7.3 2 .3 2 .6-.5 1-.7c.2-.1.8-.5 1.1-.8.2-.3.4-1.3.4-1.3s.1 1.1.5 1.6c.3.5.8 2.1.8 2.1s.3-1 .7-1.5.8-1 .8-1.3c0-.3-.1-1-.1-1l.5 1m-13.8.8s.6-1 1.1-1.3c.6-.3 1.3-.9 1.5-1 .2-.1 1.1-.6 1.1-.6m1.2 6.2s1.3-.7 1.7-.9c.8-.5 1.4-1.3 1.4-1.3"/><path fill="none" stroke="#000" stroke-width=".26" d="M339.1 289.2s-.4-.6-.5-.8l-.3-.6"/><path fill="none" stroke="#000" stroke-width=".39" d="M334 309s2.4 1.5 2.4 2.8c-.1 1.2-1.4 2.9-1.4 2.9"/><path stroke="#000" stroke-width=".26" d="M327.7 283.6s-.2-.6-.2-.7c0-.2-.1-.3-.1-.3s1.1 0 1 .3c0 .3-.3.3-.4.4-.2.1-.3.3-.3.3z"/><path stroke="#000" stroke-width=".05" d="M332.5 281.9l-.1-.5s.9 0 1.4.3c.7.5 1.1 1.2 1.1 1.3-.1.1-.6-.3-1-.4 0 0-.3.1-.5.1-.3 0-.4-.1-.4-.3v-.4l-.5-.1z"/><path stroke="#000" stroke-width=".26" d="M327.7 288.2l.4-.6.4.6h-.8M328.7 288.2l.5-.6.5.6h-1M328.2 284.3l1 .3-.9.5-.1-.8M329.4 284.6l.9.2-.7.6-.2-.8"/><path fill="#DB4446" stroke="#000" stroke-width=".39" d="M314.3 283.4s.6.4 1 .5c.4.1.9.1 1 .1.1 0 .2-.6.1-1.1-.2-1.4-1.6-1.8-1.6-1.8s.4.9.2 1.3c-.2.5-.7 1-.7 1zM311.5 284.6s-.5-.9-1.6-.8c-1.1.1-1.8 1-1.8 1s1.2 0 1.5.2c.4.3.6 1 .6 1l.9-.6c.1-.3.4-.8.4-.8zM310.2 288.4s-.9.1-1.4.7c-.5.6-.4 1.7-.4 1.7s.6-.6 1.1-.6c.6 0 1.4.2 1.4.2s-.3-.7-.3-1-.4-1-.4-1zM313.3 300.5s-.5-.5-1.4-.4c-.9.2-1.5 1.2-1.5 1.2s.8-.2 1.2-.1c.4.1.7.5.7.5s.4-.3.5-.5c.2-.2.5-.7.5-.7zM312.3 304.1s-.7-.1-1.4.4c-.6.5-.7 1.5-.7 1.5s.6-.5 1.1-.4c.5.1 1 .3 1 .3s.1-.6.1-.8c.2-.5-.1-1-.1-1zM314 307.4s-.1.9.4 1.5 1.4.7 1.4.7-.3-.6-.3-1c-.1-.5.4-.9.4-.9s-.4-.5-.9-.5l-1 .2zM322.8 315.8s-.6-.8-1.5-.7c-.9 0-1.7.8-1.7.8s1.1-.1 1.3.3c.3.4.5.8.5.8s.5-.3.7-.4c.3-.2.7-.8.7-.8zM320.2 319.2s-1.1-.2-1.7.4c-.5.6-.5 1.6-.5 1.6s.7-.7 1.3-.7c.6.1 1.3.4 1.3.4s-.1-.6-.2-.9c0-.3-.2-.8-.2-.8zM322.6 322.8s-.6.8-.1 1.4c.4.6 1.3.9 1.3.9s-.3-.4-.2-1c.1-.4.8-1 .8-1l-1.8-.3zM337.5 324.2s-1-.2-1.5.1c-.5.3-1 1.7-1 1.7s.9-.7 1.5-.6c.6.1 1.1.4 1.1.4s.1-.6 0-.9c0-.4-.1-.7-.1-.7zM338 327.8s-.7.8-.5 1.4c.3.6.7 1.3.7 1.3s0-1 .3-1.2c.4-.4 1.3-.4 1.3-.4s-.6-.6-.9-.6c-.2-.1-.9-.5-.9-.5zM341.7 328.9s-.4.9.3 1.5 1.3.7 1.3.7-.6-1-.4-1.5c.2-.5.6-.9.6-.9s-.9-.3-1-.3c0 .2-.8.5-.8.5z"/><path fill="#C8B100" stroke="#000" stroke-width=".26" d="M339.5 279.3h-.3s-.2.3-.3.4c-.3.3-.8.3-1 .1-.1-.1-.2-.3-.2-.5-.2.1-.4.1-.6 0-.3-.2-.4-.6-.2-.9 0-.1.1-.2.1-.2v-.4l-.4.1-.1.2c-.3.3-.6.4-.8.2-.1-.1-.2-.3-.2-.3s-.1.1-.2.1c-.6.2-.9-1.3-.9-1.6l-.2.3s.2.8.1 1.6c-.1.7-.3 1.4-.3 1.4.9.2 2.2 1 3.6 2 1.3 1 2.4 2.1 2.8 2.9 0 0 .7-.4 1.4-.6.7-.2 1.6-.2 1.6-.2l.3-.3c-.4.1-1.9.1-1.9-.5 0-.1.1-.2.1-.2s-.3 0-.4-.1c-.2-.2-.2-.5 0-.8l.2-.2v-.4l-.4.1-.2.2c-.3.3-.8.3-1 0-.2-.1-.2-.3-.1-.6-.2 0-.4 0-.5-.1-.3-.2-.4-.6-.1-1 .1-.2.3-.4.4-.4l-.3-.3z"/><path stroke="#000" stroke-width=".05" d="M336.8 280.2c.1-.1.2-.1.3 0 .1.1.1.2.1.3-.1.1-.2.1-.3 0-.2-.2-.2-.3-.1-.3zM337.9 281.1l-.4-.3c-.1 0-.1-.1 0-.2h.2l.4.3.4.3c.1 0 .1.1 0 .2s-.1 0-.2 0l-.4-.3M335.8 279.7l-.3-.2c-.1 0-.1-.1-.1-.2s.1-.1.2 0l.3.2.3.2c.1 0 .1.1.1.2s-.1.1-.2 0l-.3-.2M334.6 278.8c.1-.1.2-.1.3 0 .1.1.1.2.1.3-.1.1-.2.1-.3 0s-.2-.2-.1-.3zM339.2 282c.1-.1 0-.2-.1-.3-.1-.1-.2-.1-.3 0 0 .1 0 .2.1.3.1.1.2.1.3 0zM339.8 282.8l.3.3c.1.1.2.1.2 0v-.2l-.3-.3-.3-.3c-.1-.1-.2-.1-.2 0-.1 0 0 .1 0 .2l.3.3M341 283.7c.1-.1 0-.2-.1-.3-.1-.1-.2-.1-.3 0-.1.1 0 .2.1.3.1.1.2.1.3 0z"/><path fill="#C8B100" stroke="#000" stroke-width=".26" d="M337.7 276.5h-.7l-.1 1 .1.2h.2l.9-.6-.4-.6"/><path fill="#C8B100" stroke="#000" stroke-width=".26" d="M337.7 276.5h-.7l-.1 1 .1.2h.2l.9-.6-.4-.6"/><path fill="#C8B100" stroke="#000" stroke-width=".26" d="M335.8 277.1v.6l1.1.1.2-.1v-.2l-.6-.9-.7.5"/><path fill="#C8B100" stroke="#000" stroke-width=".26" d="M338 278.4l-.6.3-.6-.9v-.2l.2-.1 1.1.1-.1.8"/><path fill="#C8B100" stroke="#000" stroke-width=".26" d="M336.6 277.6c.1-.2.3-.2.5-.1s.2.3.1.4c-.1.2-.3.2-.5.1-.1-.1-.2-.3-.1-.4zM334 276.5l-.3-.9c-.1-.2-.5-.5-.5-.5 0-.1.5-.2 1 .1.5.4 0 1 0 1s0 .3-.2.3z"/><path fill="#C8B100" stroke="#000" stroke-width=".26" d="M335.3 276.9l-.5.4-.8-.7.1-.1v-.2l1.1-.1.1.7"/><path fill="#C8B100" stroke="#000" stroke-width=".26" d="M333.9 276.4c.1-.2.2-.3.3-.2.1 0 .2.2.1.4s-.2.3-.3.2c-.1 0-.2-.2-.1-.4zM340.4 278.2l-.7-.1-.3 1 .1.2h.2l1-.5-.3-.6"/><path fill="#C8B100" stroke="#000" stroke-width=".26" d="M338.4 278.5l-.1.6 1.1.3h.2v-.2l-.5-.9-.7.2"/><path fill="#C8B100" stroke="#000" stroke-width=".26" d="M340.5 280.1l-.6.2-.5-.9v-.2h.2l1.1.3-.2.6"/><path fill="#C8B100" stroke="#000" stroke-width=".26" d="M339.2 279.1c.1-.1.3-.2.5 0 .2.1.2.3.1.5-.1.1-.3.2-.5 0-.2-.1-.2-.3-.1-.5zM342.8 280.4l.1.7-1 .4h-.2v-.2l.4-1 .7.1"/><path fill="#C8B100" stroke="#000" stroke-width=".26" d="M342.6 282.3l-.7.2-.4-1v-.2h.2l1 .4-.1.6"/><path fill="#C8B100" stroke="#000" stroke-width=".26" d="M340.8 280.5l-.2.6 1 .4h.2v-.2l-.4-1-.6.2"/><path fill="#C8B100" stroke="#000" stroke-width=".26" d="M341.9 281.6c.1-.1.1-.3 0-.5-.1-.1-.3-.1-.5 0-.1.1-.1.3 0 .5.1.1.4.2.5 0zM343.5 283.8s.6 0 .9.1c.2 0 .6.3.6.3.1 0 .1-.5-.3-.9-.5-.3-1.1.3-1.1.3s0 .1-.1.2z"/><path fill="#C8B100" stroke="#000" stroke-width=".26" d="M342.9 282.7l-.3.6.9.6.1-.1h.2l-.1-1.1h-.8"/><path fill="#C8B100" stroke="#000" stroke-width=".26" d="M343.6 283.9c.2-.1.3-.3.2-.4-.1-.1-.3-.1-.4 0-.2.1-.2.3-.2.4.1.1.3.1.4 0z"/><ellipse fill="#AD1519" stroke="#000" stroke-width=".61" cx="300.5" cy="337.3" rx="19.5" ry="22"/><ellipse fill="#005BBF" stroke="#000" stroke-width=".61" cx="300.5" cy="337.2" rx="13.7" ry="16.1"/><path fill="#C8B100" stroke="#000" stroke-width=".34" stroke-linejoin="round" d="M294 326.2s-1.6 1.8-1.6 3.4c0 1.7.7 3 .7 3-.3-.7-.9-1.1-1.7-1.1-1 0-1.8.8-1.8 1.7 0 .3.2.7.3.9l.6 1.2c.2-.4.6-.7 1.2-.7.7 0 1.3.5 1.3 1.2v.3h-1.5v1.2h1.3l-1 1.9 1.3-.5 1 1.1 1-1.1 1.3.5-1-1.9h1.3v-1.2h-1.5v-.3c0-.7.6-1.2 1.3-1.2.5 0 1 .2 1.2.7l.6-1.2c.1-.2.3-.7.3-.9 0-.9-.8-1.7-1.8-1.7-.8 0-1.5.5-1.7 1.1 0 0 .7-1.4.7-3-.1-1.7-1.8-3.4-1.8-3.4z"/><path fill="#C8B100" stroke="#000" stroke-width=".34" d="M291.4 337.4h5.2v-1.2h-5.2v1.2z"/><path fill="#C8B100" stroke="#000" stroke-width=".34" stroke-linejoin="round" d="M306.8 326.2s-1.6 1.8-1.6 3.4c0 1.7.7 3 .7 3-.3-.7-.9-1.1-1.7-1.1-1 0-1.8.8-1.8 1.7 0 .3.2.7.3.9l.6 1.2c.2-.4.6-.7 1.2-.7.7 0 1.3.5 1.3 1.2v.3h-1.5v1.2h1.3l-1 1.9 1.3-.5 1 1.1 1-1.1 1.3.5-1-1.9h1.3v-1.2H308v-.3c0-.7.6-1.2 1.3-1.2.5 0 1 .2 1.2.7l.6-1.2c.1-.2.3-.7.3-.9 0-.9-.8-1.7-1.8-1.7-.8 0-1.5.5-1.7 1.1 0 0 .7-1.4.7-3-.1-1.7-1.8-3.4-1.8-3.4z"/><path fill="#C8B100" stroke="#000" stroke-width=".34" d="M304.2 337.4h5.2v-1.2h-5.2v1.2z"/><path fill="#C8B100" stroke="#000" stroke-width=".34" stroke-linejoin="round" d="M300.4 337.1s-1.6 1.8-1.6 3.4c0 1.7.7 3 .7 3-.3-.7-.9-1.1-1.7-1.1-1 0-1.8.8-1.8 1.7 0 .3.2.7.3.9l.6 1.2c.2-.4.6-.7 1.2-.7.7 0 1.3.5 1.3 1.2v.3h-1.5v1.2h1.3l-1 1.9 1.3-.5 1 1.1 1-1.1 1.3.5-1-1.9h1.3V347h-1.5v-.3c0-.7.6-1.2 1.3-1.2.5 0 1 .2 1.2.7l.6-1.2c.1-.2.3-.7.3-.9 0-.9-.8-1.7-1.8-1.7-.8 0-1.5.5-1.7 1.1 0 0 .7-1.4.7-3-.1-1.6-1.8-3.4-1.8-3.4z"/><path fill="#C8B100" stroke="#000" stroke-width=".34" d="M297.8 348.4h5.2v-1.2h-5.2v1.2z"/></svg>