<svg xmlns="http://www.w3.org/2000/svg" width="900" height="600" viewBox="0 0 900 600"><path fill="#FFF" stroke="#A9A9AA" stroke-width="10" stroke-miterlimit="10" d="M0 0h900v600H0z"/><path fill="#079939" d="M0 199.1h4.7v-4.6h36v4.6h4.7v-4.6h36v4.6h4.7v-4.6h36v4.6h4.7v-4.6h36v4.6h4.7v-4.6h36v4.6h4.7v-4.6h36v4.6h4.7v-4.6h36v4.6h4.7v-4.6h36v4.6h4.7v-4.6h36v4.6h4.7v-4.6h36v4.6h4.7v-4.6h36v4.6h4.7v-4.6h36v4.6h4.7v-4.6h36v4.6h4.7v-4.6h36v4.6h4.7v-4.6h36v4.6h4.7v-4.6h36v4.6h4.7v-4.6h36v4.6h4.7v-4.6h36v4.6h4.7v-4.6h36v4.6h4.7v-4.6h36v4.6h4.7v-4.6h36v4.6h4.7v-4.6h36v4.6h4.6V0H0z"/><path fill="#E52620" d="M489.3 342.6c37.5-19.7 30.9-81-12.6-90.6 22.8 18.8 38.1 52.9 12.6 90.6zm-78.6 0c-37.5-19.7-30.9-81 12.6-90.6-22.8 18.8-38.1 52.9-12.6 90.6zm33 13.2l6.3 8.4 6.3-8.4v-.3c8.5 1.2 17.9.6 28.2-2.4-8.1.1-15.8-1.1-22.7-3.4 33.7-18.2 41.5-70.7 8.3-96.8 20.9 31.4 11.9 68.1-13.6 87.2l1.3-84.2c-2.4-1.2-5.7-3.3-7.8-6.2-2.1 2.9-5.4 5-7.8 6.2l1.3 84.2c-25.5-19.1-34.6-55.8-13.6-87.2-33.3 26.1-25.5 78.6 8.3 96.8-6.9 2.3-14.6 3.5-22.7 3.4 10.3 3 19.7 3.6 28.2 2.4v.3zM450 240c-6.9 8.4-13.3 3.6-15.6-2.4-5.9 9 8.2 18.1 15.6 10.5 7.3 7.7 21.4-1.5 15.6-10.5-2.3 6-8.7 10.8-15.6 2.4z"/><path fill="#FFF" d="M81.4 189.9v-19.7h-3.5v16.2h-4.7v-16.2h-3.5v16.2h-4.5v-16.2h-3.5v8.2H45.4V190h11.7v-3.5h-8.2v-4.6h12.8v8.1h19.7zm-24.3-16.3v-3.5H4.5v3.5h52.6zm-16.4 16.3v-11.6H29.6v3.5h7.7v4.6H24.5v-8.1h-20v11.6H8v-8.1h13v8.1h19.7zm122.1 0v-19.7h-3.5v16.2h-4.7v-16.2h-3.5v16.2h-4.5v-16.2h-3.5v8.2h-16.3V190h11.7v-3.5h-8.2v-4.6h12.8v8.1h19.7zm-24.3-16.3v-3.5H85.9v3.5h52.6zm-16.4 16.3v-11.6H111v3.5h7.7v4.6h-12.8v-8.1h-20v11.6h3.5v-8.1h13v8.1h19.7zm-24.5-3.5v3.5h-3.5v-3.5h3.5zm-81.4 0v3.5h-3.5v-3.5h3.5zm228 3.5v-19.7h-3.5v16.2h-4.8v-16.2h-3.4v16.2H228v-16.2h-3.5v8.2h-16.3V190h11.7v-3.5h-8.2v-4.6h12.8v8.1h19.7zm-24.3-16.3v-3.5h-52.6v3.5h52.6zm-16.4 16.3v-11.6h-11.1v3.5h7.6v4.6h-12.7v-8.1h-20v11.6h3.5v-8.1h13v8.1h19.7zm-24.5-3.5v3.5h-3.5v-3.5h3.5zm146.6 3.5v-19.7h-3.5v16.2h-4.7v-16.2h-3.5v16.2h-4.5v-16.2h-3.5v8.2h-16.3V190h11.7v-3.5h-8.2v-4.6h12.8v8.1h19.7zm-24.3-16.3v-3.5h-52.6v3.5h52.6zm-16.4 16.3v-11.6h-11.1v3.5h7.6v4.6h-12.7v-8.1h-20v11.6h3.5v-8.1h13v8.1h19.7zm-24.5-3.5v3.5h-3.5v-3.5h3.5zm146.6 3.5v-19.7h-3.5v16.2h-4.8v-16.2h-3.4v16.2h-4.5v-16.2h-3.5v8.2H371V190h11.7v-3.5h-8.2v-4.6h12.8v8.1H407zm-24.3-16.3v-3.5h-52.6v3.5h52.6zm-16.4 16.3v-11.6h-11.1v3.5h7.6v4.6h-12.7v-8.1h-20v11.6h3.5v-8.1h13v8.1h19.7zm-24.5-3.5v3.5h-3.5v-3.5h3.5zm146.6 3.5v-19.7h-3.5v16.2h-4.8v-16.2h-3.4v16.2h-4.5v-16.2h-3.5v8.2h-16.3V190h11.7v-3.5h-8.2v-4.6h12.8v8.1h19.7zm-24.3-16.3v-3.5h-52.6v3.5h52.6zm-16.4 16.3v-11.6h-11.1v3.5h7.6v4.6h-12.7v-8.1h-20v11.6h3.5v-8.1h13v8.1h19.7zm-24.5-3.5v3.5h-3.5v-3.5h3.5zm146.6 3.5v-19.7h-3.5v16.2h-4.8v-16.2H558v16.2h-4.4v-16.2h-3.5v8.2h-16.3V190h11.7v-3.5h-8.2v-4.6h12.8v8.1h19.7zm-24.3-16.3v-3.5h-52.6v3.5h52.6zm-16.4 16.3v-11.6H518v3.5h7.6v4.6h-12.7v-8.1h-20v11.6h3.5v-8.1h13v8.1h19.7zm-24.5-3.5v3.5h-3.5v-3.5h3.5zm146.6 3.5v-19.7h-3.5v16.2h-4.8v-16.2h-3.5v16.2H635v-16.2h-3.5v8.2h-16.3V190h11.7v-3.5h-8.2v-4.6h12.8v8.1h19.7zm-24.3-16.3v-3.5h-52.6v3.5h52.6zm-16.4 16.3v-11.6h-11.1v3.5h7.6v4.6h-12.7v-8.1h-20v11.6h3.5v-8.1h13v8.1h19.7zm-24.5-3.5v3.5h-3.5v-3.5h3.5zm146.6 3.5v-19.7h-3.5v16.2h-4.8v-16.2h-3.5v16.2h-4.4v-16.2h-3.5v8.2h-16.3V190h11.7v-3.5h-8.2v-4.6h12.8v8.1h19.7zm-24.3-16.3v-3.5h-52.6v3.5h52.6zm-16.4 16.3v-11.6h-11.1v3.5h7.6v4.6h-12.7v-8.1h-20v11.6h3.5v-8.1h13v8.1h19.7zm-24.6-3.5v3.5h-3.4v-3.5h3.4zm146.7 3.5v-19.7h-3.5v16.2h-4.8v-16.2h-3.5v16.2h-4.4v-16.2h-3.5v8.2H778V190h11.6v-3.5h-8.1v-4.6h12.8v8.1H814zm-24.4-16.3v-3.5h-52.5v3.5h52.5zm-16.3 16.3v-11.6h-11.1v3.5h7.6v4.6h-12.7v-8.1h-20v11.6h3.5v-8.1h13v8.1h19.7zm-24.6-3.5v3.5h-3.4v-3.5h3.4zm146.7 3.5v-19.7h-3.5v16.2h-4.8v-16.2h-3.5v16.2h-4.4v-16.2h-3.5v8.2h-16.3V190h11.7v-3.5h-8.2v-4.6h12.8v8.1h19.7zm-24.3-16.3v-3.5h-52.6v3.5h52.6zm-16.4 16.3v-11.6h-11.2v3.5h7.7v4.6h-12.7v-8.1h-20v11.6h3.5v-8.1h13v8.1h19.7zm-24.6-3.5v3.5h-3.4v-3.5h3.4z"/><path fill="#E52620" d="M0 400.9h4.7v4.7h36v-4.7h4.7v4.7h36v-4.7h4.7v4.7h36v-4.7h4.7v4.7h36v-4.7h4.7v4.7h36v-4.7h4.7v4.7h36v-4.7h4.7v4.7h36v-4.7h4.7v4.7h36v-4.7h4.7v4.7h36v-4.7h4.7v4.7h36v-4.7h4.7v4.7h36v-4.7h4.7v4.7h36v-4.7h4.7v4.7h36v-4.7h4.7v4.7h36v-4.7h4.7v4.7h36v-4.7h4.7v4.7h36v-4.7h4.7v4.7h36v-4.7h4.7v4.7h36v-4.7h4.7v4.7h36v-4.7h4.7v4.7h36v-4.7h4.7v4.7h36v-4.7h4.7v4.7h36v-4.7h4.6V600H0z"/><path fill="#FFF" d="M81.4 429.8v-19.7h-3.5v16.2h-4.7v-16.2h-3.5v16.2h-4.5v-16.2h-3.5v8.2H45.4v11.6h11.7v-3.5h-8.2v-4.6h12.8v8.1h19.7zm-24.3-16.2v-3.5H4.5v3.5h52.6zm-16.4 16.2v-11.6H29.6v3.5h7.7v4.6H24.5v-8.1h-20v11.6H8v-8.1h13v8.1h19.7zm122.1 0v-19.7h-3.5v16.2h-4.7v-16.2h-3.5v16.2h-4.5v-16.2h-3.5v8.2h-16.3v11.6h11.7v-3.5h-8.2v-4.6h12.8v8.1h19.7zm-24.3-16.2v-3.5H85.9v3.5h52.6zm-16.4 16.2v-11.6H111v3.5h7.7v4.6h-12.8v-8.1h-20v11.6h3.5v-8.1h13v8.1h19.7zm-24.5-3.5v3.5h-3.5v-3.5h3.5zm-81.4 0v3.5h-3.5v-3.5h3.5zm228 3.5v-19.7h-3.5v16.2h-4.8v-16.2h-3.4v16.2H228v-16.2h-3.5v8.2h-16.3v11.6h11.7v-3.5h-8.2v-4.6h12.8v8.1h19.7zm-24.3-16.2v-3.5h-52.6v3.5h52.6zm-16.4 16.2v-11.6h-11.1v3.5h7.6v4.6h-12.7v-8.1h-20v11.6h3.5v-8.1h13v8.1h19.7zm-24.5-3.5v3.5h-3.5v-3.5h3.5zm146.6 3.5v-19.7h-3.5v16.2h-4.7v-16.2h-3.5v16.2h-4.5v-16.2h-3.5v8.2h-16.3v11.6h11.7v-3.5h-8.2v-4.6h12.8v8.1h19.7zm-24.3-16.2v-3.5h-52.6v3.5h52.6zm-16.4 16.2v-11.6h-11.1v3.5h7.6v4.6h-12.7v-8.1h-20v11.6h3.5v-8.1h13v8.1h19.7zm-24.5-3.5v3.5h-3.5v-3.5h3.5zm146.6 3.5v-19.7h-3.5v16.2h-4.8v-16.2h-3.4v16.2h-4.5v-16.2h-3.5v8.2H371v11.6h11.7v-3.5h-8.2v-4.6h12.8v8.1H407zm-24.3-16.2v-3.5h-52.6v3.5h52.6zm-16.4 16.2v-11.6h-11.1v3.5h7.6v4.6h-12.7v-8.1h-20v11.6h3.5v-8.1h13v8.1h19.7zm-24.5-3.5v3.5h-3.5v-3.5h3.5zm146.6 3.5v-19.7h-3.5v16.2h-4.8v-16.2h-3.4v16.2h-4.5v-16.2h-3.5v8.2h-16.3v11.6h11.7v-3.5h-8.2v-4.6h12.8v8.1h19.7zm-24.3-16.2v-3.5h-52.6v3.5h52.6zm-16.4 16.2v-11.6h-11.1v3.5h7.6v4.6h-12.7v-8.1h-20v11.6h3.5v-8.1h13v8.1h19.7zm-24.5-3.5v3.5h-3.5v-3.5h3.5zm146.6 3.5v-19.7h-3.5v16.2h-4.8v-16.2H558v16.2h-4.4v-16.2h-3.5v8.2h-16.3v11.6h11.7v-3.5h-8.2v-4.6h12.8v8.1h19.7zm-24.3-16.2v-3.5h-52.6v3.5h52.6zm-16.4 16.2v-11.6H518v3.5h7.6v4.6h-12.7v-8.1h-20v11.6h3.5v-8.1h13v8.1h19.7zm-24.5-3.5v3.5h-3.5v-3.5h3.5zm146.6 3.5v-19.7h-3.5v16.2h-4.8v-16.2h-3.5v16.2H635v-16.2h-3.5v8.2h-16.3v11.6h11.7v-3.5h-8.2v-4.6h12.8v8.1h19.7zm-24.3-16.2v-3.5h-52.6v3.5h52.6zm-16.4 16.2v-11.6h-11.1v3.5h7.6v4.6h-12.7v-8.1h-20v11.6h3.5v-8.1h13v8.1h19.7zm-24.5-3.5v3.5h-3.5v-3.5h3.5zm146.6 3.5v-19.7h-3.5v16.2h-4.8v-16.2h-3.5v16.2h-4.4v-16.2h-3.5v8.2h-16.3v11.6h11.7v-3.5h-8.2v-4.6h12.8v8.1h19.7zm-24.3-16.2v-3.5h-52.6v3.5h52.6zm-16.4 16.2v-11.6h-11.1v3.5h7.6v4.6h-12.7v-8.1h-20v11.6h3.5v-8.1h13v8.1h19.7zm-24.6-3.5v3.5h-3.4v-3.5h3.4zm146.7 3.5v-19.7h-3.5v16.2h-4.8v-16.2h-3.5v16.2h-4.4v-16.2h-3.5v8.2H778v11.6h11.6v-3.5h-8.1v-4.6h12.8v8.1H814zm-24.4-16.2v-3.5h-52.5v3.5h52.5zm-16.3 16.2v-11.6h-11.1v3.5h7.6v4.6h-12.7v-8.1h-20v11.6h3.5v-8.1h13v8.1h19.7zm-24.6-3.5v3.5h-3.4v-3.5h3.4zm146.7 3.5v-19.7h-3.5v16.2h-4.8v-16.2h-3.5v16.2h-4.4v-16.2h-3.5v8.2h-16.3v11.6h11.7v-3.5h-8.2v-4.6h12.8v8.1h19.7zm-24.3-16.2v-3.5h-52.6v3.5h52.6zm-16.4 16.2v-11.6h-11.2v3.5h7.7v4.6h-12.7v-8.1h-20v11.6h3.5v-8.1h13v8.1h19.7zm-24.6-3.5v3.5h-3.4v-3.5h3.4z"/></svg>