<svg xmlns="http://www.w3.org/2000/svg" width="900" height="600" viewBox="0 0 900 600"><path fill="#F00" d="M0 0h900v600H0z"/><path fill="#060" d="M0 0h360v600H0z"/><g fill="#FF0" stroke="#000" stroke-linecap="round" stroke-linejoin="round"><path stroke-width=".573" d="M477.4 393.1C432 391.7 224.2 262 222.8 241.3l11.5-19.1c20.6 29.9 233 156.1 253.9 151.6l-10.8 19.3"/><path stroke-width=".573" d="M231.9 219.6c-4.1 10.9 54.2 47 124.4 89.6 70.1 42.7 130.6 69 135.1 65.2.3-.5 2.2-3.8 2-3.8-.8 1.3-2.9 1.7-6.1.7-18.9-5.5-68.4-28.1-129.6-65.3-61.2-37-114.4-71.2-122.7-85.7-.6-1-1-2.8-.9-4.3h-.2l-1.8 3.1-.2.5zm246.5 174.1c-.8 1.4-2.2 1.4-4.9 1.1-16.9-1.9-68.4-26.9-129.2-63.3-70.8-42.4-129.3-81-123-91.1l1.7-3.1.3.1c-5.7 17.1 115.4 86.4 122.6 90.8 70.1 43.4 129.2 68.8 134.4 62.2l-1.9 3.3z"/><path stroke-width=".573" d="M360.3 253.8c45.4-.4 101.3-6.2 133.5-19l-6.9-11.3c-19 10.5-75.3 17.5-127 18.5-61.1-.6-104.2-6.3-125.8-20.8l-6.6 12c39.7 16.9 80.4 20.5 132.8 20.6"/><path stroke-width=".573" d="M495.7 235.1c-1.1 1.8-22.1 9-53.1 14.4-21 3.2-48.4 5.9-82.5 6-32.4 0-59-2.3-79-5-32.5-5.1-49.2-12.2-55.4-14.7.6-1.2 1-2 1.5-3.1 17.8 7.1 34.7 11.4 54.4 14.4 19.9 2.7 46.1 5 78.4 5 34 0 61.1-3 81.9-6.1 31.7-5.1 49.1-11.7 51.5-14.8l2.3 3.9zm-6.1-11.5c-3.4 2.8-20.6 8.8-50.7 13.7-20.1 2.9-45.7 5.5-78.4 5.5-31.1 0-56.4-2.1-75.7-4.9-30.6-4-46.9-11.2-52.8-13.3l1.8-3c4.6 2.3 20.3 8.7 51.3 13.1 19.1 2.7 44.5 4.7 75.4 4.7 32.5 0 57.8-2.7 77.8-5.5 30.3-4.2 46.6-11.9 49.1-13.9l2.2 3.6zM211.3 308.5c27.9 15 89.9 22.6 148.5 23.1 53.4.1 122.9-8.3 148.9-22l-.7-15c-8.1 12.7-82.7 24.9-148.8 24.4-66.1-.5-127.6-10.7-148-23.9l.1 13.4"/><path stroke-width=".573" d="M510.2 306.3v3.6c-3.9 4.7-28.4 11.7-59.2 16.7-23.4 3.6-53.9 6.3-91.9 6.3-36.1 0-64.9-2.6-87.2-6-35.3-5.1-57.9-14.1-62.4-16.8v-4.2c13.6 9.1 50.5 15.7 62.9 17.7 22.2 3.4 50.8 6 86.7 6 37.8 0 68.2-2.7 91.4-6.2 22.1-3.3 53.5-11.6 59.7-17.1zm0-12.7v3.6c-3.9 4.7-28.4 11.7-59.2 16.7-23.4 3.6-53.9 6.3-91.9 6.3-36.1 0-64.9-2.6-87.2-6-35.3-5.1-57.9-14.1-62.4-16.8v-4.2c13.6 9 50.5 15.7 62.9 17.7 22.2 3.4 50.8 6 86.7 6 37.8 0 68.2-2.7 91.4-6.3 22.1-3.2 53.5-11.5 59.7-17zM359.7 390.5c-64.2-.4-119.1-17.5-130.7-20.3l8.5 13.3c20.5 8.6 74.1 21.5 122.9 20.1 48.8-1.4 91.4-5.2 121.4-19.8l8.7-13.7c-20.6 9.5-90.2 20.3-130.8 20.4"/><path stroke-width=".55" d="M484.9 380.6c-1.3 1.9-2.6 3.9-3.9 5.7-14.2 5-36.5 10.2-45.9 11.8-19.2 4-49 6.9-75.4 6.9-56.8-.8-103.4-12-125.2-21.4l-1.8-3 .3-.5 3 1.2c38.9 13.9 82.6 19.5 124 20.5 26.3.1 52.6-3 73.9-6.8 32.7-6.5 45.9-11.5 49.9-13.7l1.1-.7zm7.6-12.4l.1.1c-1 1.6-1.9 3.2-2.9 4.9-7.6 2.7-28.1 8.7-58 12.9-19.7 2.7-32 5.3-71.2 6.1-73.5-1.9-121.1-16.2-132.4-19.8l-1.7-3.2c42.6 11.1 86.1 18.9 134.1 19.7 35.9-.8 51.2-3.4 70.7-6.1 34.9-5.4 52.5-11.2 57.8-12.8-.1-.1-.1-.2-.2-.3l3.7-1.5z"/><path stroke-width=".573" d="M359.5 152.1c-81.7 0-148.4 66.5-148.4 148.1s66.7 148.1 148.4 148.1 148.9-66.5 148.9-148.1-67.2-148.1-148.9-148.1zm95 241.3c-24.6 23.6-57.2 38.8-95.4 39.5-42.6.8-82.7-27-93.4-39.1-21-23.8-38.2-54.1-38.7-94.9 2.6-46.1 20.7-78.1 46.9-100.2 26.2-22 61.1-32.7 90.2-32 33.5.9 72.7 17.3 99.8 50 17.7 21.4 25.4 44.6 29.4 79.8.2 42.3-21.4 80.2-38.8 96.9z"/><path stroke-width=".573" d="M359.9 151.6c81.8 0 148.5 66.7 148.5 148.5s-66.7 148.5-148.5 148.5-148.5-66.7-148.5-148.5c-.1-81.8 66.7-148.5 148.5-148.5zM214.6 300.2c0 79.9 65.6 145.3 145.2 145.3S505 380.1 505 300.2s-65.6-145.3-145.2-145.3-145.2 65.4-145.2 145.3z"/><path stroke-width=".573" d="M360 164c74.6 0 136 61.2 136 136.1 0 74.8-61.4 136.1-136 136.1S224 375 224 300.1c-.1-74.9 61.4-136.1 136-136.1zM227.2 300c0 73 60 132.8 132.8 132.8 72.8 0 132.8-59.8 132.8-132.8 0-73-60-132.8-132.8-132.8-72.8 0-132.8 59.8-132.8 132.8z"/><path stroke-width=".573" d="M366 151h-12.7v298.4H366V151z"/><path stroke-width=".573" d="M364.7 149.3h3.2v301.9h-3.2V149.3zm-12.6 0h3.3v301.9h-3.3V149.3z"/><path stroke-width=".573" d="M508.5 305.9v-11l-9-8.4-51-13.5-73.5-7.5-88.5 4.5-63 15-12.7 9.4v11L243 291l76.5-12H393l54 6 37.5 9 24 11.9z"/><path stroke-width=".573" d="M359.9 277.2c35.1-.1 69.1 3.3 96.1 8.6 27.9 5.6 47.5 12.5 54.2 20.4v3.9c-8.1-9.7-34.5-16.9-54.8-21-26.8-5.2-60.6-8.6-95.5-8.5-36.8.1-71.1 3.6-97.5 8.7-21.2 4.2-49.4 12.6-53 20.8v-4c1.9-5.7 23-14.2 52.5-20.1 26.7-5.4 61-8.8 98-8.8zm0-12.8c35.1-.1 69.1 3.3 96.1 8.6 27.9 5.6 47.5 12.5 54.2 20.4v3.9c-8.1-9.7-34.5-16.9-54.8-20.9-26.8-5.2-60.6-8.6-95.5-8.5-36.8.1-70.9 3.6-97.3 8.7-20.4 3.9-49.8 12.6-53.1 20.8v-4c1.9-5.6 23.4-14.5 52.5-20.1 26.6-5.4 60.9-8.8 97.9-8.9zM359.2 199.4c55.3-.3 103.5 7.7 125.5 19l8 13.9c-19.2-10.3-71.2-21.1-133.5-19.5-50.8.3-105 5.6-132.3 20.1l9.6-16.1c22.5-11.4 75.2-17.3 122.7-17.4"/><path stroke-width=".573" d="M360 210.9c31.5-.1 62 1.7 86.2 6.1 22.6 4.2 44.1 10.5 47.2 13.9l2.4 4.2c-7.5-4.9-26.1-10.3-50-14.9-24-4.5-54.5-6-85.8-5.9-35.6-.1-63.2 1.8-87 5.9-25.1 4.7-42.5 11.4-46.8 14.6l2.3-4.5c8.3-4.3 21.6-9.4 43.8-13.4 24.6-4.4 52.5-5.8 87.7-6zm-.1-12.7c30.2-.1 60 1.6 83.2 5.8 18.3 3.6 36.4 9.1 43.1 14.1l3.5 5.5c-5.9-6.6-28.3-12.8-48-16.3-23-4-51.6-5.5-81.8-5.8-31.7.1-60.9 2-83.6 6.2-21.7 4.1-35.6 9-41.6 12.8l3.1-4.6c8.2-4.3 21.3-8.2 38-11.5 22.9-4.2 52.3-6.1 84.1-6.2zM433.7 361.9c-27.3-5.1-54.7-5.8-73.8-5.6-92.1 1.1-121.9 18.9-125.5 24.3l-6.9-11.2c23.5-17 73.6-26.5 132.9-25.6 30.8.5 57.3 2.5 79.7 6.9l-6.4 11.2"/><path stroke-width=".55" d="M359.4 354.7c25.6.4 50.8 1.4 75 6l-1.8 3.1c-22.5-4.2-46.6-5.8-73.2-5.6-34-.3-68.4 2.9-98.3 11.5-9.4 2.6-25.1 8.7-26.7 13.7l-1.7-2.9c.5-3 10-9.1 27.6-14.1 34.3-9.8 66.4-11.5 99.1-11.7zm1.1-12.9c26.5.5 54 1.7 80.6 7l-1.8 3.2c-24.1-4.8-47.1-6.4-78.6-6.9-34.1.1-70.3 2.5-103.2 12.1-10.6 3.1-28.9 9.8-29.6 15.1l-1.7-3.1c.4-4.8 16.3-11.1 30.5-15.2 33.2-9.7 69.5-12.1 103.8-12.2z"/><path stroke-width=".573" d="M491.4 371.1l-11.1 17.2-31.8-28.3-82.5-55.5-93-51-48.3-16.5 10.3-19.1 3.5-1.9 30 7.5 99 51 57 36 48 34.5 19.5 22.5-.6 3.6z"/><path stroke-width=".573" d="M223 237.4c8.5-5.7 70.7 22 135.8 61.3 65 39.4 127 83.9 121.4 92.2l-1.8 2.9-.8.7c.2-.1 1.1-1.3-.1-4.4-2.8-9.1-46.8-44.2-119.8-88.3-71.3-42.5-130.7-68.1-136.6-60.8l1.9-3.6zm270.6 133.4c5.4-10.6-52.4-54.1-123.9-96.4-73.2-41.5-126-65.9-135.6-58.6l-2.1 3.9c0 .2.1-.3.5-.6 1.8-1.5 4.7-1.4 6-1.5 16.6.2 64 22.1 130.5 60.2 29.1 17 123.1 77.2 122.7 94.2 0 1.5.1 1.8-.4 2.5l2.3-3.7z"/></g><path fill="#FFF" stroke="#000" stroke-width=".67" d="M270.9 316.5c0 24.4 10 46.5 26.2 62.6 16.2 16.2 38.3 26.4 62.7 26.4 24.6 0 46.9-10 63-26.1 16.2-16.1 26.2-38.3 26.2-62.8V197.8l-178.1-.2v118.9z"/><path fill="#F00" stroke="#000" stroke-width=".507" d="M274.2 316.7c0 23.4 9.7 44.7 25.2 60.1 15.5 15.5 36.9 25.1 60.3 25.1 23.5 0 44.9-9.5 60.3-24.9 15.5-15.4 25-36.6 25-60.1V201.6H274.2v115.1m136.6-80.6v73.3l-.1 7.8c0 2-.1 4.4-.4 6.3-1.4 11.6-6.7 21.7-14.6 29.6-9.2 9.2-22 14.9-36.1 14.9-14 0-26.5-5.9-35.7-15.2-9.5-9.5-15-22.5-15-35.9v-81l101.9.2z"/><path fill="#FF0" d="M285.3 231.6c.2-8.3 6.1-10.2 6.1-10.3 0 0 6.3 2.1 6.3 10.3h-12.4"/><path fill="#FF0" stroke="#000" stroke-width=".5" d="M280.2 221.5l-1 9.5h6.2c.1-7.9 6-9.2 6.1-9.2.1 0 6 1.7 6.1 9.2h6.2l-1.1-9.6-22.5.1zM278.8 231.1h25.4c.5 0 1 .5 1 1.2 0 .6-.4 1.2-1 1.2h-25.4c-.5 0-1-.5-1-1.2s.4-1.2 1-1.2z"/><path fill="#FF0" stroke="#000" stroke-width=".5" d="M288 231c0-5 3.4-6.4 3.4-6.4s3.5 1.4 3.5 6.4H288M279.3 217.6h24.4c.5 0 .9.5.9 1.1s-.4 1.1-.9 1.1h-24.4c-.5 0-.9-.5-.9-1.1 0-.6.4-1.1.9-1.1z"/><path fill="#FF0" stroke="#000" stroke-width=".5" d="M279.8 219.7h23.3c.5 0 .9.5.9 1.1 0 .6-.4 1.1-.9 1.1h-23.3c-.5 0-.9-.5-.9-1.1 0-.6.4-1.1.9-1.1zM287.4 203.8h1.8v1.3h1.3v-1.3h1.9v1.3h1.3v-1.3h1.9v3c0 .5-.4.8-.8.8h-6.6c-.4 0-.9-.4-.9-.8l.1-3zM294.3 207.9l.4 9.7h-6.5l.4-9.7h5.7M286.4 212.3l.2 5.2h-6.2l.2-5.2h5.8zM302.3 212.3l.2 5.2h-6.2l.2-5.2h5.8z"/><path fill="#FF0" stroke="#000" stroke-width=".5" d="M279.4 208.6h1.8v1.3h1.3v-1.3h1.8v1.3h1.3v-1.3h1.8v3c0 .5-.4.8-.8.8h-6.5c-.4 0-.8-.4-.8-.8l.1-3zM295.4 208.6h1.8v1.3h1.3v-1.3h1.8v1.3h1.3v-1.3h1.8v3c0 .5-.4.8-.8.8h-6.5c-.4 0-.8-.4-.8-.8l.1-3z"/><path d="M290.8 210.9c0-.9 1.3-1 1.3 0v2.3h-1.3v-2.3M282.9 214.3c0-.9 1.3-.9 1.2 0v1.8h-1.2v-1.8M298.8 214.3c0-.9 1.3-.9 1.2 0v1.8h-1.2v-1.8"/><g><path fill="#FF0" d="M285.3 301.1c.2-8.3 6.1-10.2 6.1-10.3 0 0 6.3 2.1 6.3 10.3h-12.4"/><path fill="#FF0" stroke="#000" stroke-width=".5" d="M280.2 291l-1 9.5h6.2c.1-7.9 6-9.2 6.1-9.2.1 0 6 1.7 6.1 9.2h6.2l-1.1-9.6-22.5.1zM278.8 300.6h25.4c.5 0 1 .5 1 1.2 0 .6-.4 1.2-1 1.2h-25.4c-.5 0-1-.5-1-1.2s.4-1.2 1-1.2z"/><path fill="#FF0" stroke="#000" stroke-width=".5" d="M288 300.5c0-5 3.4-6.4 3.4-6.4s3.5 1.5 3.5 6.4H288M279.3 287.1h24.4c.5 0 .9.5.9 1.1 0 .6-.4 1.1-.9 1.1h-24.4c-.5 0-.9-.5-.9-1.1 0-.7.4-1.1.9-1.1z"/><path fill="#FF0" stroke="#000" stroke-width=".5" d="M279.8 289.2h23.3c.5 0 .9.5.9 1.1 0 .6-.4 1.1-.9 1.1h-23.3c-.5 0-.9-.5-.9-1.1 0-.6.4-1.1.9-1.1zM287.4 273.3h1.8v1.3h1.3v-1.3h1.9v1.3h1.3v-1.3h1.9v3c0 .5-.4.8-.8.8h-6.6c-.4 0-.9-.4-.9-.8l.1-3zM294.3 277.3l.4 9.7h-6.5l.4-9.7h5.7M286.4 281.8l.2 5.2h-6.2l.2-5.2h5.8zM302.3 281.8l.2 5.2h-6.2l.2-5.2h5.8zM279.4 278h1.8v1.3h1.3V278h1.8v1.3h1.3V278h1.8v3c0 .5-.4.8-.8.8h-6.5c-.4 0-.8-.4-.8-.8l.1-3zM295.4 278h1.8v1.3h1.3V278h1.8v1.3h1.3V278h1.8v3c0 .5-.4.8-.8.8h-6.5c-.4 0-.8-.4-.8-.8l.1-3z"/><path d="M290.8 280.4c0-.9 1.3-1 1.3 0v2.3h-1.3v-2.3M282.9 283.7c0-.9 1.3-.9 1.2 0v1.8h-1.2v-1.8M298.8 283.7c0-.9 1.3-.9 1.2 0v1.8h-1.2v-1.8"/><g><path fill="#FF0" d="M312.4 373.4c-5.7-6-3-11.5-3-11.6 0 0 6-3 11.8 2.8l-8.8 8.8"/><path fill="#FF0" stroke="#000" stroke-width=".5" d="M301.6 369.9l6 7.4 4.4-4.4c-5.5-5.6-2.3-10.7-2.2-10.8.1-.1 5.5-3 10.8 2.1l4.4-4.4-7.6-6-15.8 16.1zM307.4 377.7l17.9-18c.4-.4 1.1-.3 1.5.1.5.5.5 1.1.1 1.5l-17.9 18c-.4.4-1.1.3-1.5-.1-.4-.5-.5-1.1-.1-1.5z"/><path fill="#FF0" stroke="#000" stroke-width=".5" d="M313.9 371.1c-3.5-3.5-2.1-6.9-2.1-6.9s3.5-1.5 7 2l-4.9 4.9M298.2 367.8l17.2-17.3c.4-.4 1-.3 1.4.1.4.4.5 1 .1 1.4l-17.2 17.3c-.4.4-1 .3-1.4-.1-.4-.4-.5-1.1-.1-1.4z"/><path fill="#FF0" stroke="#000" stroke-width=".5" d="M300.1 368.9l16.4-16.5c.3-.3 1-.3 1.4.1.4.4.5 1 .1 1.4l-16.4 16.5c-.3.3-1 .3-1.4-.1-.4-.4-.5-1-.1-1.4zM294.1 352.4l1.3-1.3.9.9.9-1-.9-.9 1.3-1.3.9.9.9-1-.9-.9 1.3-1.3 2.1 2.1c.3.3.3.8 0 1.1l-4.7 4.7c-.3.3-.9.4-1.2.1l-1.9-2.1zM301.8 350.3l7.2 6.5-4.6 4.6-6.6-7.1 4-4M299.5 359l3.8 3.5-4.3 4.5-3.6-3.8 4.1-4.2zM310.7 347.8l3.8 3.5-4.4 4.4-3.6-3.8 4.2-4.1zM291.9 361.3l1.3-1.3.9.9.9-.9-1-.9 1.3-1.3.9.9.9-.9-1-.9 1.3-1.3 2.1 2.1c.3.3.3.8 0 1.1l-4.6 4.6c-.3.3-.8.3-1.2 0l-1.8-2.1zM303.1 350l1.3-1.3.9.9.9-.9-1-.9 1.3-1.3.9.9.9-.9-1-.9 1.3-1.3 2.1 2.1c.3.3.3.8 0 1.1l-4.6 4.6c-.3.3-.8.3-1.2 0l-1.8-2.1z"/><path d="M301.6 354.9c-.7-.6.3-1.6.9-.9l1.6 1.6-.9.9-1.6-1.6M298.3 362.9c-.6-.6.2-1.5.9-.9l1.3 1.3-.9.9-1.3-1.3M432.3 303.159c-.85.003-.924-1.2-.005-1.273l1.838-.007.005 1.273-1.839.007"/></g><g><path fill="#FF0" d="M353.9 231.6c.2-8.3 6.1-10.2 6.1-10.3 0 0 6.3 2.1 6.3 10.3h-12.4"/><path fill="#FF0" stroke="#000" stroke-width=".5" d="M348.8 221.5l-1 9.5h6.2c.1-7.9 6-9.2 6.1-9.2.1 0 6 1.7 6.1 9.2h6.2l-1.1-9.6-22.5.1zM347.3 231.1h25.4c.5 0 1 .5 1 1.2 0 .6-.4 1.2-1 1.2h-25.4c-.5 0-1-.5-1-1.2.1-.7.5-1.2 1-1.2z"/><path fill="#FF0" stroke="#000" stroke-width=".5" d="M356.6 231c0-5 3.4-6.4 3.4-6.4s3.5 1.4 3.5 6.4h-6.9M347.9 217.6h24.4c.5 0 .9.5.9 1.1s-.4 1.1-.9 1.1h-24.4c-.5 0-.9-.5-.9-1.1 0-.6.4-1.1.9-1.1z"/><path fill="#FF0" stroke="#000" stroke-width=".5" d="M348.4 219.7h23.3c.5 0 .9.5.9 1.1 0 .6-.4 1.1-.9 1.1h-23.3c-.5 0-.9-.5-.9-1.1 0-.6.4-1.1.9-1.1zM355.9 203.8h1.8v1.3h1.3v-1.3h1.9v1.3h1.3v-1.3h1.9v3c0 .5-.4.8-.8.8h-6.6c-.4 0-.9-.4-.9-.8l.1-3zM362.9 207.9l.4 9.7h-6.5l.4-9.7h5.7M355 212.3l.2 5.2H349l.2-5.2h5.8zM370.9 212.3l.2 5.2h-6.2l.2-5.2h5.8z"/><path fill="#FF0" stroke="#000" stroke-width=".5" d="M348 208.6h1.8v1.3h1.3v-1.3h1.8v1.3h1.3v-1.3h1.8v3c0 .5-.4.8-.8.8h-6.5c-.4 0-.8-.4-.8-.8l.1-3zM363.9 208.6h1.8v1.3h1.3v-1.3h1.8v1.3h1.3v-1.3h1.8v3c0 .5-.4.8-.8.8h-6.5c-.4 0-.8-.4-.8-.8l.1-3z"/><path d="M359.4 210.9c0-.9 1.3-1 1.3 0v2.3h-1.3v-2.3M351.4 214.3c0-.9 1.3-.9 1.2 0v1.8h-1.2v-1.8M367.4 214.3c0-.9 1.3-.9 1.2 0v1.8h-1.2v-1.8"/><g><path fill="#FF0" d="M434.4 231.6c-.2-8.3-6.1-10.2-6.1-10.3 0 0-6.3 2.1-6.3 10.3h12.4"/><path fill="#FF0" stroke="#000" stroke-width=".5" d="M439.5 221.5l1 9.5h-6.2c-.1-7.9-6-9.2-6.1-9.2-.1 0-6 1.7-6.1 9.2h-6.2l1.1-9.6 22.5.1zM440.9 231.1h-25.4c-.5 0-1 .5-1 1.2 0 .6.4 1.2 1 1.2h25.4c.5 0 1-.5 1-1.2s-.5-1.2-1-1.2z"/><path fill="#FF0" stroke="#000" stroke-width=".5" d="M431.7 231c0-5-3.4-6.4-3.4-6.4s-3.5 1.4-3.5 6.4h6.9M440.4 217.6H416c-.5 0-.9.5-.9 1.1s.4 1.1.9 1.1h24.4c.5 0 .9-.5.9-1.1 0-.6-.4-1.1-.9-1.1z"/><path fill="#FF0" stroke="#000" stroke-width=".5" d="M439.9 219.7h-23.3c-.5 0-.9.5-.9 1.1 0 .6.4 1.1.9 1.1h23.3c.5 0 .9-.5.9-1.1 0-.6-.4-1.1-.9-1.1zM432.3 203.8h-1.8v1.3h-1.3v-1.3h-1.9v1.3H426v-1.3h-2v3c0 .5.4.8.8.8h6.6c.4 0 .9-.4.9-.8v-3zM425.4 207.9l-.4 9.7h6.5l-.4-9.7h-5.7M433.3 212.3l-.2 5.2h6.2l-.2-5.2h-5.8zM417.4 212.3l-.2 5.2h6.2l-.2-5.2h-5.8z"/><path fill="#FF0" stroke="#000" stroke-width=".5" d="M440.2 208.6h-1.8v1.3h-1.3v-1.3h-1.8v1.3H434v-1.3h-1.8v3c0 .5.4.8.8.8h6.5c.4 0 .8-.4.8-.8l-.1-3zM424.3 208.6h-1.8v1.3h-1.3v-1.3h-1.8v1.3H418v-1.3h-1.8v3c0 .5.4.8.8.8h6.5c.4 0 .8-.4.8-.8v-3z"/><path d="M428.8 210.9c0-.9-1.3-1-1.3 0v2.3h1.3v-2.3M436.8 214.3c0-.9-1.3-.9-1.2 0v1.8h1.2v-1.8M420.9 214.3c0-.9-1.3-.9-1.2 0v1.8h1.2v-1.8"/><g><path fill="#FF0" d="M434.4 301.1c-.2-8.3-6.1-10.2-6.1-10.3 0 0-6.3 2.1-6.3 10.3h12.4"/><path fill="#FF0" stroke="#000" stroke-width=".5" d="M439.5 291l1 9.5h-6.2c-.1-7.9-6-9.2-6.1-9.2-.1 0-6 1.7-6.1 9.2h-6.2l1.1-9.6 22.5.1zM440.9 300.6h-25.4c-.5 0-1 .5-1 1.2 0 .6.4 1.2 1 1.2h25.4c.5 0 1-.5 1-1.2s-.5-1.2-1-1.2z"/><path fill="#FF0" stroke="#000" stroke-width=".5" d="M431.7 300.5c0-5-3.4-6.4-3.4-6.4s-3.5 1.5-3.5 6.4h6.9M440.4 287.1H416c-.5 0-.9.5-.9 1.1 0 .6.4 1.1.9 1.1h24.4c.5 0 .9-.5.9-1.1 0-.7-.4-1.1-.9-1.1z"/><path fill="#FF0" stroke="#000" stroke-width=".5" d="M439.9 289.2h-23.3c-.5 0-.9.5-.9 1.1 0 .6.4 1.1.9 1.1h23.3c.5 0 .9-.5.9-1.1 0-.6-.4-1.1-.9-1.1zM432.3 273.3h-1.8v1.3h-1.3v-1.3h-1.9v1.3H426v-1.3h-2v3c0 .5.4.8.8.8h6.6c.4 0 .9-.4.9-.8v-3zM425.4 277.3l-.4 9.7h6.5l-.4-9.7h-5.7M433.3 281.8l-.2 5.2h6.2l-.2-5.2h-5.8zM417.4 281.8l-.2 5.2h6.2l-.2-5.2h-5.8zM440.2 278h-1.8v1.3h-1.3V278h-1.8v1.3H434V278h-1.8v3c0 .5.4.8.8.8h6.5c.4 0 .8-.4.8-.8l-.1-3zM424.3 278h-1.8v1.3h-1.3V278h-1.8v1.3H418V278h-1.8v3c0 .5.4.8.8.8h6.5c.4 0 .8-.4.8-.8v-3z"/><path d="M428.8 280.4c0-.9-1.3-1-1.3 0v2.3h1.3v-2.3M436.8 283.7c0-.9-1.3-.9-1.2 0v1.8h1.2v-1.8M420.9 283.7c0-.9-1.3-.9-1.2 0v1.8h1.2v-1.8"/><g><path fill="#FF0" d="M407.3 373.4c5.7-6 3-11.5 3-11.6 0 0-6-3-11.8 2.8l8.8 8.8"/><path fill="#FF0" stroke="#000" stroke-width=".5" d="M418.1 369.9l-6 7.4-4.4-4.4c5.5-5.6 2.3-10.7 2.2-10.8-.1-.1-5.5-3-10.8 2.1l-4.4-4.4 7.6-6 15.8 16.1zM412.3 377.7l-17.9-18c-.4-.4-1.1-.3-1.5.1-.5.5-.5 1.1-.1 1.5l17.9 18c.4.4 1.1.3 1.5-.1.4-.5.5-1.1.1-1.5z"/><path fill="#FF0" stroke="#000" stroke-width=".5" d="M405.8 371.1c3.5-3.5 2.1-6.9 2.1-6.9s-3.5-1.5-7 2l4.9 4.9M421.5 367.8l-17.2-17.3c-.4-.4-1-.3-1.4.1-.4.4-.5 1-.1 1.4l17.2 17.3c.4.4 1 .3 1.4-.1.4-.4.5-1.1.1-1.4z"/><path fill="#FF0" stroke="#000" stroke-width=".5" d="M419.6 368.9l-16.4-16.5c-.3-.3-1-.3-1.4.1-.4.4-.5 1-.1 1.4l16.4 16.5c.3.3 1 .3 1.4-.1.4-.4.5-1 .1-1.4zM425.6 352.4l-1.3-1.3-.9.9-.9-1 .9-.9-1.3-1.3-.9.9-.9-1 .9-.9-1.3-1.3-2.1 2.1c-.3.3-.3.8 0 1.1l4.7 4.7c.3.3.9.4 1.2.1l1.9-2.1zM417.9 350.3l-7.2 6.5 4.6 4.6 6.6-7.1-4-4M420.2 359l-3.8 3.5 4.4 4.4 3.6-3.8-4.2-4.1zM409 347.8l-3.8 3.5 4.4 4.4 3.6-3.8-4.2-4.1z"/><path fill="#FF0" stroke="#000" stroke-width=".5" d="M427.8 361.3l-1.3-1.3-.9.9-.9-.9.9-.9-1.3-1.3-.9.9-.9-.9.9-.9-1.3-1.3-2.1 2.1c-.3.3-.3.8 0 1.1l4.6 4.6c.3.3.8.3 1.2 0l2-2.1zM416.6 350l-1.3-1.3-.9.9-.9-.9.9-.9-1.3-1.3-.9.9-.9-.9.9-.9-1.3-1.3-2.1 2.1c-.3.3-.3.8 0 1.1l4.6 4.6c.3.3.8.3 1.2 0l2-2.1z"/><path d="M418.1 354.9c.7-.6-.3-1.6-.9-.9l-1.6 1.6.9.9 1.6-1.6M421.4 362.9c.6-.6-.2-1.5-.9-.9l-1.3 1.3.9.9 1.3-1.3M69.692 351.6c-.6-.6.2-1.5.9-.9l1.2 1.3-.9.9-1.2-1.3"/></g><g><path fill="#039" d="M349 303.6c0 3.3 1.3 6.3 3.3 8.5 2 2.2 4.9 3.6 8 3.6 3.1 0 5.9-1.4 8-3.5 2-2.2 3.3-5.2 3.3-8.5v-16.2h-22.5l-.1 16.1"/><circle fill="#FFF" cx="354.1" cy="293.6" r="2.2"/><circle fill="#FFF" cx="366.6" cy="293.6" r="2.2"/><circle fill="#FFF" cx="360.3" cy="299.6" r="2.2"/><circle fill="#FFF" cx="354.1" cy="305.9" r="2.2"/><circle fill="#FFF" cx="366.6" cy="305.9" r="2.2"/></g><g><path fill="#039" d="M349 264.6c0 3.3 1.3 6.3 3.3 8.5 2 2.2 4.9 3.6 8 3.6 3.1 0 5.9-1.4 8-3.5 2-2.2 3.3-5.2 3.3-8.5v-16.2h-22.5l-.1 16.1"/><circle fill="#FFF" cx="354.1" cy="254.6" r="2.2"/><circle fill="#FFF" cx="366.6" cy="254.6" r="2.2"/><circle fill="#FFF" cx="360.3" cy="260.6" r="2.2"/><circle fill="#FFF" cx="354.1" cy="266.8" r="2.2"/><circle fill="#FFF" cx="366.6" cy="266.8" r="2.2"/></g><g><path fill="#039" d="M317.8 303.6c0 3.3 1.3 6.3 3.3 8.5 2 2.2 4.9 3.6 8 3.6 3.1 0 5.9-1.4 8-3.5 2-2.2 3.3-5.2 3.3-8.5v-16.2h-22.5l-.1 16.1"/><circle fill="#FFF" cx="322.9" cy="293.6" r="2.2"/><circle fill="#FFF" cx="335.4" cy="293.6" r="2.2"/><circle fill="#FFF" cx="329.1" cy="299.6" r="2.2"/><circle fill="#FFF" cx="322.9" cy="305.9" r="2.2"/><circle fill="#FFF" cx="335.4" cy="305.9" r="2.2"/></g><g><path fill="#039" d="M380.1 303.6c0 3.3 1.3 6.3 3.3 8.5 2 2.2 4.9 3.6 8 3.6 3.1 0 5.9-1.4 8-3.5 2-2.2 3.3-5.2 3.3-8.5v-16.2h-22.5l-.1 16.1"/><circle fill="#FFF" cx="385.2" cy="293.6" r="2.2"/><circle fill="#FFF" cx="397.7" cy="293.6" r="2.2"/><circle fill="#FFF" cx="391.5" cy="299.6" r="2.2"/><circle fill="#FFF" cx="385.2" cy="305.9" r="2.2"/><circle fill="#FFF" cx="397.7" cy="305.9" r="2.2"/></g><g><path fill="#039" d="M349 342.3c0 3.3 1.3 6.3 3.3 8.5 2 2.2 4.9 3.6 8 3.6 3.1 0 5.9-1.4 8-3.5 2-2.2 3.3-5.2 3.3-8.5v-16.2h-22.5l-.1 16.1"/><circle fill="#FFF" cx="354.1" cy="332.3" r="2.2"/><circle fill="#FFF" cx="366.6" cy="332.3" r="2.2"/><circle fill="#FFF" cx="360.3" cy="338.3" r="2.2"/><circle fill="#FFF" cx="354.1" cy="344.5" r="2.2"/><circle fill="#FFF" cx="366.6" cy="344.5" r="2.2"/></g></g></g></g></g></svg>