<svg xmlns="http://www.w3.org/2000/svg" width="900" height="600" viewBox="0 0 900 600"><path fill="#00853F" d="M0 0h900v600H0z"/><path fill="#FDEF42" d="M300 0h600v600H300z"/><path fill="#E31B23" d="M600 0h300v600H600z"/><g fill="#00853F"><path d="M450 200l-30.9 95.1 47.6 15.5L450 200z"/><path d="M450 200l30.9 95.1-47.6 15.5L450 200z"/><path d="M545.1 269.1h-100v50l100-50z"/><path d="M545.1 269.1l-80.9 58.8-29.4-40.5 110.3-18.3z"/><path d="M508.8 380.9l-30.9-95.1-47.6 15.5 78.5 79.6z"/><path d="M508.8 380.9l-80.9-58.8 29.4-40.5 51.5 99.3z"/><path d="M391.2 380.9l80.9-58.8-29.4-40.5-51.5 99.3z"/><path d="M391.2 380.9l30.9-95.1 47.6 15.5-78.5 79.6z"/><path d="M354.9 269.1l80.9 58.8 29.4-40.5-110.3-18.3z"/><path d="M354.9 269.1h100v50l-100-50z"/></g></svg>