<svg xmlns="http://www.w3.org/2000/svg" width="900" height="600" viewBox="0 0 900 600"><path fill="#FFF" stroke="#A9A9AA" stroke-width="10" stroke-miterlimit="10" d="M0 0h900v600H0z"/><path fill="#143A99" d="M333.3 66.7H900v66.7H333.3zM333.3 200H900v66.7H333.3zM0 333.3h900V400H0zM0 466.7h900v66.7H0z"/><path fill="#FFD700" d="M275.1 117.8c-3.3-1.3-7.2-2.4-9-2.7-3-.4-6.7.1-10 1.4-2.8 1.2-6.2 3.1-10.7 5.9-5.1 3.2-11.3 5.2-15.6 6.4-4 1.1-12.3 1.2-12.4 1.2l-1.2 2.1h.2l-14.5 20.7c-.4.1.4 2.1 1.6 1.7l19.1.6c-.1.1-.2.1-.2.1l2.8 1c.5-.2 11.9-4.9 17.3-9.5 4.1-3.4 9.5-9.2 12.2-12.5 2.4-3.1 6.9-8 8.8-9.3 3.6-2.4 6.3-2.7 8.3-3l.8-.1c1.9-.2 7-.3 7.1-.3 0 0 2-.1 2.7-.1-.1-.1-3.7-2.5-7.3-3.6z"/><path fill="#231F20" d="M275.1 117.8c-3.3-1.3-7.2-2.4-9-2.7-3-.4-6.7.1-10 1.4-2.8 1.2-6.2 3.1-10.7 5.9-5.1 3.2-11.3 5.2-15.6 6.4-4 1.1-12.3 1.2-12.4 1.2l-1.2 2.1c.4 0 10 0 14.2-1.2 4.4-1.2 10.8-3.3 16.1-6.6 4.4-2.8 7.7-4.6 10.4-5.7 2.9-1.1 6.3-1.6 8.8-1.3.6.1 1.4.3 2.4.6-3.9.4-8.1 1.7-11.9 4.6-11.6 8.7-21.6 15.6-27 18.3-5.7 2.9-22.7 9.6-26 10.2l.4 2.1c3.8-.7 21.1-7.6 26.6-10.4 5.4-2.8 15.6-9.7 27.3-18.5 4.3-3.2 9.3-4.2 13.6-4.2-2.1.2-5 .7-8.8 3.3-2.3 1.6-7 6.8-9.3 9.7-2.6 3.3-7.9 8.9-11.9 12.2-5.1 4.3-18.6 10.1-18.7 10.1l2.8 1c.5-.2 12-4.9 17.3-9.5 4.1-3.4 9.5-9.2 12.2-12.5 2.5-3.1 6.9-8 8.8-9.3 3.6-2.4 6.3-2.7 8.3-3l.8-.1c1.9-.2 7-.3 7.1-.3 0 0 2-.1 2.7-.1-.1-.2-3.7-2.6-7.3-3.7z"/><path fill="#FFD700" d="M54.7 215.6c3.3 1.3 7.2 2.4 9 2.7 3 .4 6.7-.1 10-1.4 2.8-1.2 6.2-3 10.7-5.9 5.1-3.2 11.3-5.2 15.6-6.4 4-1.1 12.3-1.2 12.4-1.2l1.2-2.1h-.2l15.7-22c.4-.1-.4-2.1-1.6-1.7l-20.4.6c.1 0 .2-.1.2-.1l-2.8-1c-.5.2-11.9 4.9-17.3 9.5-4.1 3.4-9.5 9.2-12.2 12.5-2.5 3.1-6.9 8-8.9 9.3-3.6 2.4-6.3 2.7-8.3 3l-.8.1c-1.9.2-7 .3-7.1.3 0 0-2 0-2.7.1.3.2 3.9 2.7 7.5 3.7z"/><path fill="#231F20" d="M54.7 215.6c3.3 1.3 7.2 2.4 9 2.7 3 .4 6.7-.1 10-1.4 2.8-1.2 6.2-3 10.7-5.9 5.1-3.2 11.3-5.2 15.6-6.4 4-1.1 12.3-1.2 12.4-1.2l1.2-2.1c-.3 0-10 0-14.2 1.2-4.4 1.2-10.8 3.2-16.1 6.6-4.4 2.8-7.7 4.6-10.4 5.7-2.9 1.1-6.3 1.6-8.8 1.3-.6-.1-1.4-.3-2.4-.6 3.9-.4 8.1-1.7 11.9-4.6 11.5-8.7 21.6-15.6 27-18.4 5.7-2.9 22.7-9.6 26-10.2l-.4-2.1c-3.8.7-21.1 7.6-26.6 10.4-5.5 2.8-15.6 9.7-27.3 18.5-4.3 3.3-9.3 4.2-13.6 4.2 2.1-.2 5-.7 8.8-3.3 2.3-1.6 7-6.8 9.3-9.7 2.6-3.3 7.9-8.9 11.9-12.2 5.1-4.3 18.6-10.1 18.7-10.1l-2.8-1c-.5.2-11.9 4.9-17.3 9.5-4.1 3.4-9.5 9.2-12.2 12.5-2.4 3.1-6.9 8-8.9 9.3-3.6 2.4-6.3 2.7-8.3 3l-.8.1c-1.9.2-7 .3-7.1.3 0 0-2 0-2.7.1.2.3 3.8 2.8 7.4 3.8z"/><path fill="#FFD700" d="M207.9 54.9c-3.2 1.4-6.8 3.4-8.3 4.4-2.4 1.8-4.6 4.8-6.1 8-1.1 2.8-2.2 6.5-3.4 11.7-1.3 5.9-4.4 11.7-6.5 15.5-2 3.6-7.9 9.5-8 9.6l.6 2.4.1-.1 4 25.5c-.2.4 1.8 1.2 2.3.1l14.3-13.7c0 .1-.1.2-.1.2l2.7-1.2c.2-.5 4.9-11.9 5.5-19 .5-5.3.3-13.2-.2-17.5-.5-4-.7-10.6-.3-12.8.9-4.3 2.6-6.4 3.8-8l.5-.6c1.2-1.6 4.8-5.2 4.8-5.2s1.4-1.5 1.8-2c.1 0-4.1.9-7.5 2.7z"/><path fill="#231F20" d="M207.9 54.9c-3.2 1.4-6.8 3.4-8.3 4.4-2.4 1.8-4.6 4.8-6.1 8-1.1 2.8-2.2 6.5-3.4 11.7-1.3 5.9-4.4 11.7-6.5 15.5-2 3.6-7.9 9.5-8 9.6l.6 2.4c.2-.3 7-7.1 9.2-10.9 2.2-4 5.3-9.9 6.7-16.1 1.2-5.1 2.2-8.7 3.3-11.4 1.2-2.8 3.3-5.6 5.3-7.2.5-.3 1.2-.8 2.1-1.3-2.5 3.1-4.5 6.9-5.2 11.6-2 14.3-4.3 26.3-6.1 32-1.9 6.1-9.2 22.8-11.1 25.6l1.7 1.2c2.2-3.1 9.6-20.3 11.5-26.1 1.9-5.8 4.2-18 6.2-32.4.7-5.4 3.6-9.5 6.6-12.6-1.3 1.6-3 4-3.9 8.5-.5 2.7-.2 9.8.3 13.5.5 4.2.7 11.9.2 17-.6 6.7-6 20.3-6.1 20.4l2.7-1.2c.2-.5 4.9-11.9 5.5-19 .5-5.3.3-13.2-.2-17.5-.5-4-.7-10.6-.3-12.8.9-4.3 2.6-6.4 3.8-8l.5-.6c1.2-1.6 4.8-5.2 4.8-5.2s1.4-1.5 1.8-2c0 .2-4.2 1.1-7.6 2.9z"/><path fill="#FFD700" d="M123.1 278.6c3.2-1.5 6.8-3.4 8.3-4.4 2.4-1.8 4.6-4.8 6-8.1 1.1-2.8 2.2-6.5 3.4-11.7 1.3-5.9 4.4-11.7 6.5-15.5 2-3.6 7.9-9.5 8-9.6l-.6-2.4-.1.1-2.8-25.5c.2-.4-1.8-1.2-2.3-.1l-15.6 13.7c0-.1.1-.2.1-.2l-2.7 1.3c-.2.5-4.9 11.9-5.5 19-.5 5.3-.3 13.2.2 17.5.5 4 .7 10.6.3 12.8-.9 4.3-2.5 6.4-3.8 8l-.5.5c-1.2 1.6-4.8 5.2-4.8 5.2s-1.4 1.5-1.8 2c.1 0 4.3-.8 7.7-2.6z"/><path fill="#231F20" d="M123.1 278.6c3.2-1.5 6.8-3.4 8.3-4.4 2.4-1.8 4.6-4.8 6-8.1 1.1-2.8 2.2-6.5 3.4-11.7 1.3-5.9 4.4-11.7 6.5-15.5 2-3.6 7.9-9.5 8-9.6l-.6-2.4c-.2.2-7 7.1-9.2 10.9-2.2 4-5.3 9.9-6.7 16.1-1.2 5.1-2.2 8.7-3.3 11.4-1.3 2.9-3.3 5.6-5.4 7.2-.5.3-1.2.8-2.1 1.3 2.5-3.1 4.5-6.9 5.2-11.7 2-14.3 4.3-26.3 6.1-32.1 1.9-6.1 9.2-22.8 11.1-25.6l-1.8-1.2c-2.2 3.1-9.6 20.3-11.4 26.1-1.9 5.8-4.2 18-6.2 32.4-.7 5.3-3.6 9.5-6.6 12.6 1.3-1.6 3-4.1 3.9-8.5.5-2.7.2-9.8-.3-13.5-.5-4.2-.7-11.9-.2-17 .6-6.7 6-20.3 6.1-20.4l-2.7 1.3c-.2.5-4.9 11.9-5.5 19-.5 5.3-.3 13.2.2 17.5.5 4 .7 10.6.3 12.8-.9 4.3-2.5 6.4-3.8 8l-.4.5c-1.2 1.6-4.8 5.2-4.8 5.2s-1.4 1.5-1.8 2c.1 0 4.3-.8 7.7-2.6z"/><path fill="#FFD700" d="M116 56.5c-1.3 3.3-2.4 7.2-2.7 9-.4 3 .1 6.7 1.4 10 1.2 2.8 3.1 6.2 5.9 10.7 3.2 5.1 5.2 11.3 6.4 15.6 1.1 4 1.2 12.3 1.2 12.4l2.1 1.2v-.2L151 131c.1.4 2.1-.4 1.7-1.6l1.9-20.4c0 .1-1.2.2-1.2.2l1-2.8c-.2-.5-4.9-11.9-9.5-17.3-3.4-4.1-9.1-9.5-12.5-12.2-3.1-2.5-8-7-9.3-8.9-2.4-3.6-2.7-6.3-3-8.3l-.1-.8c-.3-1.9-.3-7-.3-7.1 0 0 0-2-.1-2.7-.1.2-2.5 3.8-3.6 7.4z"/><path fill="#231F20" d="M116 56.5c-1.3 3.3-2.4 7.2-2.7 9-.4 3 .1 6.7 1.4 10 1.2 2.8 3.1 6.2 5.9 10.7 3.2 5.1 5.2 11.3 6.4 15.6 1.1 4 1.2 12.3 1.2 12.4l2.1 1.2c0-.3 0-10-1.2-14.2-1.2-4.4-3.3-10.8-6.6-16.1-2.8-4.4-4.6-7.7-5.7-10.4-1.1-2.9-1.6-6.3-1.3-8.9.1-.6.3-1.4.6-2.4.4 3.9 1.7 8.1 4.6 11.9 8.7 11.5 15.6 21.6 18.3 27 2.9 5.7 9.6 22.7 10.2 26l2.1-.4c-.7-3.8-7.6-21.1-10.4-26.6-2.8-5.4-9.7-15.6-18.5-27.3-3.3-4.3-4.2-9.3-4.2-13.6.2 2 .7 5 3.3 8.8 1.6 2.3 6.8 7 9.8 9.3 3.3 2.6 8.9 7.9 12.2 11.9 4.3 5.1 10.1 18.6 10.1 18.7l1-2.8c-.2-.5-4.9-11.9-9.5-17.3-3.4-4.1-9.2-9.5-12.5-12.2-3.1-2.5-8-7-9.3-8.9-2.4-3.6-2.7-6.4-3-8.3l-.1-.8c-.3-1.9-.3-7-.3-7.1 0 0 0-2-.1-2.7-.3.3-2.7 3.9-3.8 7.5z"/><path fill="#FFD700" d="M215 276.9c1.3-3.3 2.4-7.2 2.7-9 .4-3-.1-6.7-1.4-10-1.2-2.8-3-6.2-5.9-10.7-3.2-5.1-5.2-11.3-6.4-15.6-1.3-4.5-1.2-11.2-1.2-12.4l-2.1-1.2v.2l-19.4-14.5c-.1-.4-2.1.4-1.7 1.6l-3.1 19.1c0-.1-.1-.2-.1-.2l.3 2.8c.2.5 4.9 12 9.5 17.3 3.4 4.1 9.2 9.5 12.5 12.2 3.1 2.5 8 6.9 9.3 8.9 2.4 3.6 2.7 6.3 3 8.3l.1.8c.3 1.9.3 7 .3 7.1 0 0 .1 2 .1 2.7 0-.1 2.5-3.8 3.5-7.4z"/><path fill="#231F20" d="M215 276.9c1.3-3.3 2.4-7.2 2.7-9 .4-3-.1-6.7-1.4-10-1.2-2.8-3-6.2-5.9-10.7-3.2-5.1-5.2-11.3-6.4-15.6-1.1-4-1.2-12.3-1.2-12.4l-2.1-1.2c0 .4 0 10 1.2 14.3 1.2 4.4 3.3 10.8 6.6 16.1 2.8 4.4 4.6 7.7 5.7 10.4 1.1 2.9 1.6 6.3 1.3 8.8-.1.6-.3 1.4-.6 2.4-.4-3.9-1.7-8.1-4.6-11.9-8.7-11.5-15.6-21.6-18.3-27-2.9-5.7-9.6-22.7-10.2-26l-2.1.4c.7 3.8 7.6 21.1 10.4 26.6 2.8 5.4 9.7 15.6 18.5 27.3 3.2 4.3 4.2 9.3 4.2 13.6-.2-2.1-.7-5-3.3-8.8-1.6-2.3-6.8-7-9.8-9.3-3.3-2.6-8.9-7.9-12.2-11.9-4.3-5.1-10.1-18.6-10.1-18.7l-1 2.8c.2.5 4.9 12 9.5 17.3 3.4 4.1 9.2 9.5 12.5 12.2 3.1 2.5 8 6.9 9.3 8.8 2.4 3.6 2.7 6.3 3 8.3l.1.8c.3 1.9.3 7 .3 7.1 0 0 0 2 .1 2.7.3-.1 2.8-3.8 3.8-7.4z"/><path fill="#FFD700" d="M53 123.7c1.4 3.2 3.4 6.8 4.4 8.3 1.8 2.4 4.8 4.6 8 6 2.8 1.1 6.5 2.2 11.7 3.4 5.9 1.3 11.7 4.4 15.5 6.5 3.6 2 9.5 7.9 9.6 8l2.4-.6-.1-.1 25.5-2.8c.4.2 1.2-1.8.1-2.3l-13.7-15.6c.1 0 .2.1.2.1l-1.3-2.7c-.5-.2-11.9-4.9-19-5.5-5.3-.5-13.2-.2-17.5.3-4 .5-10.6.7-12.8.3-4.3-.9-6.4-2.5-8-3.8l-.6-.5c-1.6-1.2-5.2-4.8-5.2-4.8s-1.5-1.4-2-1.8c.2 0 1 4.2 2.8 7.6z"/><path fill="#231F20" d="M53 123.7c1.4 3.2 3.4 6.8 4.4 8.3 1.8 2.4 4.8 4.6 8 6 2.8 1.1 6.5 2.2 11.7 3.4 5.9 1.3 11.7 4.4 15.5 6.5 3.6 2 9.5 7.9 9.6 8l2.4-.6c-.2-.2-7.1-7-10.9-9.2-4-2.2-9.9-5.3-16.1-6.7-5.1-1.2-8.7-2.2-11.4-3.3-2.8-1.2-5.6-3.3-7.2-5.4-.3-.5-.8-1.2-1.3-2.1 3.1 2.5 6.9 4.5 11.6 5.2 14.3 2 26.3 4.3 32 6.1 6.1 1.9 22.8 9.2 25.6 11.1l1.2-1.7c-3.1-2.2-20.3-9.6-26.1-11.4-5.8-1.9-18-4.2-32.4-6.2-5.3-.7-9.5-3.6-12.6-6.6 1.6 1.3 4 3 8.5 3.9 2.7.5 9.8.2 13.5-.3 4.2-.5 11.9-.7 17-.2 6.7.6 20.3 6 20.4 6.1l-1.3-2.7c-.5-.2-11.9-4.9-19-5.5-5.3-.5-13.2-.2-17.5.3-4 .5-10.6.7-12.8.3-4.3-.9-6.4-2.5-8-3.8l-.6-.5c-1.6-1.2-5.2-4.8-5.2-4.8s-1.5-1.4-2-1.8c.4 0 1.2 4.2 3 7.6z"/><path fill="#FFD700" d="M278 209.8c-1.5-3.2-3.4-6.8-4.4-8.3-1.8-2.4-4.8-4.6-8.1-6.1-2.8-1.1-6.5-2.2-11.7-3.4-5.9-1.3-11.7-4.4-15.5-6.5-3.6-2-9.5-7.9-9.6-8l-2.4.6s0 .1.1.1l-25.5 2.8c-.4-.2-1.2 1.8-.1 2.3l13.7 15.6c-.1 0-.2-.1-.2-.1l1.3 2.7c.5.2 11.9 4.9 19 5.5 5.3.5 13.2.3 17.5-.2 4-.5 10.5-.7 12.8-.3 4.3.9 6.4 2.5 8 3.8l.6.5c1.6 1.2 5.2 4.8 5.2 4.8s1.5 1.4 2 1.8c0 0-.9-4.3-2.7-7.6z"/><path fill="#231F20" d="M278 209.8c-1.5-3.2-3.4-6.8-4.4-8.3-1.8-2.4-4.8-4.6-8.1-6.1-2.8-1.1-6.5-2.2-11.7-3.4-5.9-1.3-11.7-4.4-15.5-6.5-3.6-2-9.5-7.9-9.6-8l-2.4.6c.2.2 7.1 7 11 9.2 4 2.2 9.9 5.3 16.1 6.7 5.1 1.2 8.7 2.2 11.4 3.3 2.8 1.3 5.6 3.3 7.2 5.4.3.5.8 1.2 1.3 2.1-3.1-2.5-6.9-4.5-11.6-5.2-14.3-2-26.3-4.3-32.1-6.1-6.1-1.9-22.8-9.3-25.6-11.1l-1.2 1.7c3.1 2.2 20.3 9.6 26.1 11.4 5.8 1.9 18 4.2 32.4 6.2 5.3.7 9.5 3.6 12.6 6.6-1.6-1.3-4-3-8.5-3.9-2.7-.5-9.8-.2-13.5.3-4.2.5-11.9.7-17 .2-6.7-.6-20.3-6-20.4-6.1l1.3 2.7c.5.2 11.9 4.9 19 5.5 5.3.5 13.2.3 17.5-.2 4-.5 10.5-.7 12.8-.3 4.3.9 6.4 2.5 8 3.8l.6.5c1.6 1.2 5.2 4.8 5.2 4.8s1.5 1.4 2 1.8c-.2 0-1.1-4.3-2.9-7.6z"/><path fill="#FFD700" d="M288.2 166.3l-87.4-15.4-.4 2 .2.1v28.9h.2l.3 1.9 87.3-15.4 6-1-6.2-1.1z"/><path fill="#231F20" d="M294.5 167.4l-6.3-1.1-91.3-16.1-.4 2 79.7 14.1H206v2h71l-76.1 13.5.3 2 87.3-15.4z"/><path fill="#FFD700" d="M42.7 167.7l87.4 15.4.4-2.1h-.2v-29h-.2l-.3-1.9-87.2 15.4-6 1 6.1 1.2z"/><path fill="#231F20" d="M36.3 166.6l6.4 1.1 91.3 16.1.4-2-79.7-14.1h70.2v-2.1H53.8l76.2-13.4-.4-2-87.2 15.3z"/><path fill="#FFD700" d="M251.7 79.7L179 130.6l1.2 1.7.2-.1 20.5 20.5.2-.1 1.6 1.1L253.5 81l3.5-5-5.3 3.7z"/><path fill="#231F20" d="M257 76l-5.3 3.7-75.9 53.2 1.1 1.7 66.3-46.4-49.6 49.6 1.4 1.5L245.3 89l-44.4 63.4 1.7 1.2L253.5 81z"/><path fill="#FFD700" d="M79.1 254.3l72.7-50.9-1.2-1.7-.2.1-20.5-20.5-.1.1-1.6-1.1L77.4 253l-3.5 5 5.2-3.7z"/><path fill="#231F20" d="M73.9 258l5.2-3.7 76-53.2-1.2-1.7-66.3 46.4 49.7-49.6-1.5-1.5-50.2 50.2 44.3-63.3-1.7-1.2L77.4 253z"/><path fill="#FFD700" d="M164.7 44.2l-15.4 87.4 2 .4.1-.2h28.9v-.2l1.9-.3L166.8 44l-1.1-6-1 6.2z"/><path fill="#231F20" d="M165.8 37.9l-1.1 6.3-16.1 91.4 2 .3 14.1-79.7v70.3h2.1V55.4l13.4 76.1 2-.3-15.3-87.3z"/><path fill="#FFD700" d="M166.2 289.7l15.4-87.4-2-.4-.1.2h-29v.2l-1.9.3L164 290l1 6 1.2-6.3z"/><path fill="#231F20" d="M165 296.1l1.2-6.4 16-91.3-2-.3-14 79.6v-70.2h-2.1v71.1l-13.5-76.2-2 .4L164 290z"/><path fill="#FFD700" d="M78.1 80.7l50.9 72.7 1.7-1.2-.1-.2 20.5-20.5-.1-.1 1.1-1.6-72.7-50.9-5-3.5 3.7 5.3z"/><path fill="#231F20" d="M74.4 75.4l3.7 5.3 53.2 75.9 1.7-1.1-46.4-66.3 49.6 49.6 1.5-1.4-50.2-50.3 63.3 44.4 1.2-1.7-72.6-50.9z"/><path fill="#FFD700" d="M252.7 253.3l-50.9-72.7-1.7 1.2.1.2-20.5 20.5.2.1-1.1 1.6 72.6 50.8 5 3.5-3.7-5.2z"/><path fill="#231F20" d="M256.4 258.5l-3.7-5.2-53.1-76-1.8 1.2 46.4 66.3-49.6-49.7-1.5 1.5 50.3 50.2-63.4-44.3-1.2 1.7 72.6 50.8z"/><path fill="#FFD700" d="M164.7 127.1c-22.5 0-40.7 18.3-40.7 40.8 0 22.5 18.2 40.8 40.7 40.8 22.5 0 40.7-18.2 40.7-40.8 0-22.5-18.2-40.8-40.7-40.8z"/><path fill="#231F20" d="M164.9 125.9c-23.1 0-41.9 18.7-41.9 41.9s18.7 41.9 41.9 41.9c23.1 0 41.9-18.7 41.9-41.9s-18.8-41.9-41.9-41.9zm0 82c-22.2 0-40.2-18-40.2-40.2 0-22.2 18-40.2 40.2-40.2 22.2 0 40.2 18 40.2 40.2-.1 22.2-18 40.2-40.2 40.2z"/><path fill="#231F20" d="M136.4 151.7s9-4 14.4-2.6 7.5 3.3 7.5 3.3 3.2 1.8 1.7-.8c-1.6-2.6-6.9-5-6.9-5s-4.8-3.1-10.8-.1c-5.9 3-8.2 4.8-5.9 5.2z"/><path fill="#231F20" d="M137.5 157.8s7.5-4.8 12.2-3.9c4.7.9 5.9 1.2 7.8 3.7 0 0 .1-4.8-5.5-5.2-5.6-.4-9.5 1.3-9.9 1.5-1.9 1.1-4.6 3.9-4.6 3.9z"/><path fill="#231F20" d="M153.1 155.7c-.6-2-3-3-5.4-2.1-2.4.8-4 3.1-3.4 5.2.6 2 3 3 5.5 2.1 2.3-.9 3.9-3.2 3.3-5.2z"/><path fill="#231F20" d="M139.9 157.9s3.6 3.5 5.8 4.2 5.3.3 6.5-.2c1.2-.5 3.3-1.5 3.6-1.7.2-.2 1.5-2.8-1.3-1.5-2.5 1.2-3.6 2.4-5.2 2.5-1.1.1-3.6-.5-4.6-1-1-.5-4.8-2.3-4.8-2.3z"/><path fill="#231F20" d="M142.8 159.9s-1.8-2.8.7-5.3c2.5-2.4-1.2.1-1.2.1s-.4.5-.5.9c-.2 1.2-.1 3.5.4 4 .8 1 .6.3.6.3zM193.3 151.7s-9-4-14.4-2.6-7.5 3.3-7.5 3.3-3.2 1.8-1.7-.8c1.6-2.6 6.9-5 6.9-5s4.8-3.1 10.7-.1c6 3 8.3 4.8 6 5.2z"/><path fill="#231F20" d="M192.1 157.8s-7.5-4.8-12.2-3.9c-4.7.9-5.9 1.2-7.8 3.7 0 0-.1-4.8 5.5-5.2 5.6-.4 9.5 1.3 9.9 1.5 1.9 1.1 4.6 3.9 4.6 3.9z"/><path fill="#231F20" d="M176.5 155.7c.6-2 3-3 5.5-2.1 2.4.8 3.9 3.1 3.4 5.2-.6 2-3 3-5.4 2.1-2.5-.9-4.1-3.2-3.5-5.2z"/><path fill="#231F20" d="M189.7 157.9s-3.6 3.5-5.8 4.2c-2.2.7-5.3.3-6.5-.2-1.2-.5-3.3-1.5-3.6-1.7-.3-.2-1.5-2.8 1.3-1.5 2.5 1.2 3.7 2.4 5.2 2.5 1.1.1 3.7-.5 4.7-1 .9-.5 4.7-2.3 4.7-2.3z"/><path fill="#231F20" d="M186.8 159.9s1.8-2.8-.7-5.3c-2.5-2.4 1.2.1 1.2.1s.4.5.4.9c.2 1.2.1 3.5-.4 4-.7 1-.5.3-.5.3zM177 176.1c-1.1-.3-2.3-.4-2.7-1.4-.4-1-1.8-3.7-2-4-.2-.2-2.1-1.6-1.4-.3 3.3 3.1.2 6.1-2.6 3 1.3 3.2-3.4 3-3.4 3s-4.7.2-3.4-3c-2.7 3-5.9 0-2.6-3 .7-1.3-1.1.1-1.4.3-.3.2-1.6 2.9-2 4-.4 1-1.7 1.1-2.7 1.4s-2.9 2.7-2.9 3c0 .3 1.9-1.5 3.1-1.9 1.2-.4 3.6-1 5.5-.9 1.9.1 3.8 2 6.3 2.1h.4c2.5-.1 4.4-2 6.3-2.1 1.9-.1 4.3.5 5.5.9 1.2.4 3.2 2.1 3.1 1.9-.2-.3-2-2.7-3.1-3zM182.4 182.7s1 1.2 1.9 2.6c-.6 0-4.8-.2-5.9-.5-1.1-.3-3.8-1.5-5.5-1.9-1.6-.4-3.4-.5-4.5-.1-1 .3-3.2.6-3.7.6-.5-.1-2.7-.3-3.6-.6-1.1-.3-2.9-.3-4.5.1s-4.4 1.5-5.5 1.9c-1.1.3-5.2.5-5.9.5 1-1.4 1.9-2.6 1.9-2.6-3.1 1.5-3.8 5.5-3.8 5.5.4-.7 1.1-1.8 1.8-2.8.3.3 4.4 1.9 6.2 3 2 1.2 8.6 3.7 11 3.8h4.6c2.4-.1 9-2.6 11-3.8 1.8-1.1 5.9-2.7 6.2-3 .7 1 1.4 2.1 1.8 2.8.3 0-.4-4-3.5-5.5zm-17.3 6.5h-.2-.1H164.5c-6.3.2-11.8-2.3-11.8-2.3 2.3-.6 11.9-.6 11.9-.6h.3s9.7 0 11.9.6c.1 0-5.3 2.5-11.7 2.3zM165 196.5h3.2s-1.2-.9-3-1h-.2-.1H164.6c-1.9.1-3 1-3 1H165z"/></svg>